<?xml version="1.0" encoding="UTF-8" standalone="no"?>
<svg
   xmlns:dc="http://purl.org/dc/elements/1.1/"
   xmlns:cc="http://creativecommons.org/ns#"
   xmlns:rdf="http://www.w3.org/1999/02/22-rdf-syntax-ns#"
   xmlns:svg="http://www.w3.org/2000/svg"
   xmlns="http://www.w3.org/2000/svg"
   version="1.1"
   id="svg4482"
   viewBox="0 0 36.148625 36.150936"
   height="10.202598mm"
   width="10.201945mm">
  <defs
     id="defs4484" />
  <metadata
     id="metadata4487">
    <rdf:RDF>
      <cc:Work
         rdf:about="">
        <dc:format>image/svg+xml</dc:format>
        <dc:type
           rdf:resource="http://purl.org/dc/dcmitype/StillImage" />
        <dc:title></dc:title>
      </cc:Work>
    </rdf:RDF>
  </metadata>
  <g
     transform="translate(-770.49711,-377.14387)"
     id="layer1">
    <g
       id="g4467"
       transform="matrix(1.25,0,0,-1.25,239.3626,583.249)">
      <path
         id="path202-7"
         style="fill:#ffffff;fill-opacity:1;fill-rule:evenodd;stroke:none"
         d="m 450.17051,164.7566 -14.06,-14.0605 c -0.142,-0.1414 -0.142,-0.3965 0,-0.5664 l 14.06,-14.0594 c 0.17,-0.1426 0.425,-0.1426 0.567,0 l 3.089,3.118 -10.969,10.9414 c -0.143,0.1699 -0.143,0.425 0,0.5664 l 10.969,10.9707 -3.089,3.0898 c -0.142,0.17 -0.397,0.17 -0.567,0 l 0,0" />
      <path
         id="path202-3"
         style="fill:#ffffff;fill-opacity:1;fill-rule:evenodd;stroke:none"
         d="m 428.56361,164.7566 14.06,-14.0605 c 0.142,-0.1414 0.142,-0.3965 0,-0.5664 l -14.06,-14.0594 c -0.17,-0.1426 -0.425,-0.1426 -0.567,0 l -3.089,3.118 10.969,10.9414 c 0.143,0.1699 0.143,0.425 0,0.5664 l -10.969,10.9707 3.089,3.0898 c 0.142,0.17 0.397,0.17 0.567,0 l 0,0" />
    </g>
  </g>
</svg>
