<?xml version="1.0" encoding="UTF-8" standalone="no"?>
<svg
   xmlns:dc="http://purl.org/dc/elements/1.1/"
   xmlns:cc="http://creativecommons.org/ns#"
   xmlns:rdf="http://www.w3.org/1999/02/22-rdf-syntax-ns#"
   xmlns:svg="http://www.w3.org/2000/svg"
   xmlns="http://www.w3.org/2000/svg"
   xmlns:xlink="http://www.w3.org/1999/xlink"
   version="1.1"
   id="svg5937"
   viewBox="0 0 238.76643 324.66741"
   height="91.628357mm"
   width="67.385193mm">
  <defs
     id="defs5939">
    <linearGradient
       gradientUnits="userSpaceOnUse"
       y2="16050.35"
       x2="3152.9907"
       y1="16050.35"
       x1="2575.7861"
       id="linearGradient5715"
       xlink:href="#linearGradient5693" />
    <linearGradient
       id="linearGradient5693">
      <stop
         id="stop5695"
         offset="0"
         style="stop-color:#8443d6;stop-opacity:1" />
      <stop
         id="stop5697"
         offset="1"
         style="stop-color:#44ced3;stop-opacity:1" />
    </linearGradient>
    <linearGradient
       gradientUnits="userSpaceOnUse"
       y2="16083.5"
       x2="3150.5989"
       y1="15948.447"
       x1="2513.8401"
       id="linearGradient5699"
       xlink:href="#linearGradient5693" />
    <linearGradient
       y2="16083.5"
       x2="3150.5989"
       y1="15948.447"
       x1="2513.8401"
       gradientUnits="userSpaceOnUse"
       id="linearGradient6653"
       xlink:href="#linearGradient5693" />
    <linearGradient
       y2="16050.35"
       x2="3152.9907"
       y1="16050.35"
       x1="2575.7861"
       gradientUnits="userSpaceOnUse"
       id="linearGradient6655"
       xlink:href="#linearGradient5693" />
  </defs>
  <metadata
     id="metadata5942">
    <rdf:RDF>
      <cc:Work
         rdf:about="">
        <dc:format>image/svg+xml</dc:format>
        <dc:type
           rdf:resource="http://purl.org/dc/dcmitype/StillImage" />
        <dc:title></dc:title>
      </cc:Work>
    </rdf:RDF>
  </metadata>
  <g
     transform="translate(-620.61678,-458.59996)"
     id="layer1">
    <g
       style="fill:none;stroke:#212427;stroke-opacity:1"
       id="g430"
       transform="matrix(0.13111375,0,0,-0.13111375,369.27587,2640.7386)">
      <path
         d="m 3707.6,14197.3 -1760.2,0 0,2102.7 1760.2,0 0,-2102.7"
         style="fill:none;fill-opacity:1;fill-rule:nonzero;stroke:#212427;stroke-opacity:1"
         id="path432" />
    </g>
    <g
       style="fill:#ffffff;fill-opacity:1;stroke:#212427;stroke-opacity:1"
       id="g434"
       transform="matrix(0.13111375,0,0,-0.13111375,369.27587,2640.7386)">
      <path
         d="m 3707.6,14197.3 -1760.2,0 0,2102.7 1760.2,0 0,-2102.7 z"
         style="fill:#ffffff;fill-opacity:1;stroke:#212427;stroke-width:60.86330032;stroke-linecap:butt;stroke-linejoin:miter;stroke-miterlimit:10;stroke-dasharray:none;stroke-opacity:1"
         id="path436" />
    </g>
    <g
       style="fill:none;stroke:#212427;stroke-opacity:1"
       id="g438"
       transform="matrix(0.13111375,0,0,-0.13111375,369.27587,2640.7386)">
      <path
         d="m 3567.82,14338.2 -1480.54,0 0,1961.8 1480.54,0 0,-1961.8"
         style="fill:none;fill-opacity:1;fill-rule:nonzero;stroke:#212427;stroke-opacity:1"
         id="path440" />
    </g>
    <g
       style="fill:none;stroke:#212427;stroke-opacity:1"
       id="g442"
       transform="matrix(0.13111375,0,0,-0.13111375,369.27587,2640.7386)">
      <path
         d="m 3567.82,14338.2 -1480.54,0 0,1961.8 1480.54,0 0,-1961.8 z"
         style="fill:none;stroke:#212427;stroke-width:60.86330032;stroke-linecap:butt;stroke-linejoin:miter;stroke-miterlimit:10;stroke-dasharray:none;stroke-opacity:1"
         id="path444" />
    </g>
    <path
       d="m 665.83337,606.72611 148.35,0"
       style="fill:none;fill-opacity:1;fill-rule:nonzero;stroke:#212427;stroke-width:1.25;stroke-opacity:1"
       id="path446" />
    <path
       d="m 665.83337,606.72611 148.35,0"
       style="fill:none;stroke:#212427;stroke-width:7.98005009;stroke-linecap:butt;stroke-linejoin:miter;stroke-miterlimit:10;stroke-dasharray:none;stroke-opacity:1"
       id="path448" />
    <path
       d="m 665.83337,656.17611 34.7175,0"
       style="fill:none;fill-opacity:1;fill-rule:nonzero;stroke:#212427;stroke-width:1.25;stroke-opacity:1"
       id="path450" />
    <path
       d="m 665.83337,656.17611 34.7175,0"
       style="fill:none;stroke:#212427;stroke-width:7.98005009;stroke-linecap:butt;stroke-linejoin:miter;stroke-miterlimit:10;stroke-dasharray:none;stroke-opacity:1"
       id="path452" />
    <path
       d="m 714.22212,656.17611 99.96125,0"
       style="fill:none;fill-opacity:1;fill-rule:nonzero;stroke:#212427;stroke-width:1.25;stroke-opacity:1"
       id="path454" />
    <path
       d="m 714.22212,656.17611 99.96125,0"
       style="fill:none;stroke:#212427;stroke-width:7.98005009;stroke-linecap:butt;stroke-linejoin:miter;stroke-miterlimit:10;stroke-dasharray:none;stroke-opacity:1"
       id="path456" />
    <path
       d="m 665.83337,629.87611 56.81625,0"
       style="fill:none;fill-opacity:1;fill-rule:nonzero;stroke:#212427;stroke-width:1.25;stroke-opacity:1"
       id="path458" />
    <path
       d="m 665.83337,629.87611 56.81625,0"
       style="fill:none;stroke:#212427;stroke-width:7.98005009;stroke-linecap:butt;stroke-linejoin:miter;stroke-miterlimit:10;stroke-dasharray:none;stroke-opacity:1"
       id="path460" />
    <path
       d="m 738.43087,629.87611 75.7525,0"
       style="fill:none;fill-opacity:1;fill-rule:nonzero;stroke:#212427;stroke-width:1.25;stroke-opacity:1"
       id="path462" />
    <path
       d="m 738.43087,629.87611 75.7525,0"
       style="fill:none;stroke:#212427;stroke-width:7.98005009;stroke-linecap:butt;stroke-linejoin:miter;stroke-miterlimit:10;stroke-dasharray:none;stroke-opacity:1"
       id="path464" />
    <path
       d="m 665.83337,681.31361 148.35,0"
       style="fill:none;fill-opacity:1;fill-rule:nonzero;stroke:#212427;stroke-width:1.25;stroke-opacity:1"
       id="path466" />
    <path
       d="m 665.83337,681.31361 148.35,0"
       style="fill:none;stroke:#212427;stroke-width:7.98005009;stroke-linecap:butt;stroke-linejoin:miter;stroke-miterlimit:10;stroke-dasharray:none;stroke-opacity:1"
       id="path468" />
    <path
       d="m 665.83337,730.76361 34.7175,0"
       style="fill:none;fill-opacity:1;fill-rule:nonzero;stroke:#212427;stroke-width:1.25;stroke-opacity:1"
       id="path470" />
    <path
       d="m 665.83337,730.76361 34.7175,0"
       style="fill:none;stroke:#212427;stroke-width:7.98005009;stroke-linecap:butt;stroke-linejoin:miter;stroke-miterlimit:10;stroke-dasharray:none;stroke-opacity:1"
       id="path472" />
    <path
       d="m 714.22212,730.76361 99.96125,0"
       style="fill:none;fill-opacity:1;fill-rule:nonzero;stroke:#212427;stroke-width:1.25;stroke-opacity:1"
       id="path474" />
    <path
       d="m 714.22212,730.76361 99.96125,0"
       style="fill:none;stroke:#212427;stroke-width:7.98005009;stroke-linecap:butt;stroke-linejoin:miter;stroke-miterlimit:10;stroke-dasharray:none;stroke-opacity:1"
       id="path476" />
    <path
       d="m 665.83337,704.46361 56.81625,0"
       style="fill:none;fill-opacity:1;fill-rule:nonzero;stroke:#212427;stroke-width:1.25;stroke-opacity:1"
       id="path478" />
    <path
       d="m 665.83337,704.46361 56.81625,0"
       style="fill:none;stroke:#212427;stroke-width:7.98005009;stroke-linecap:butt;stroke-linejoin:miter;stroke-miterlimit:10;stroke-dasharray:none;stroke-opacity:1"
       id="path480" />
    <path
       d="m 738.43087,704.46361 75.7525,0"
       style="fill:none;fill-opacity:1;fill-rule:nonzero;stroke:#212427;stroke-width:1.25;stroke-opacity:1"
       id="path482" />
    <path
       d="m 738.43087,704.46361 75.7525,0"
       style="fill:none;stroke:#212427;stroke-width:7.98005009;stroke-linecap:butt;stroke-linejoin:miter;stroke-miterlimit:10;stroke-dasharray:none;stroke-opacity:1"
       id="path484" />
    <g
       style="fill:none;stroke:#212427;stroke-opacity:1"
       id="g486"
       transform="matrix(0.13362875,0,0,-0.13362875,369.27587,2640.7386)">
      <path
         d="m 2978.64,16087.4 c 0.07,2.5 0.4,5.2 0.4,7.8 0,113.1 -91.68,204.8 -204.74,204.8 -113.09,0 -204.77,-91.7 -204.77,-204.8 0,-2.6 0.34,-5.3 0.48,-7.8 l -142.07,0 0,-220.4 692.8,0 0,220.4 -142.1,0"
         style="fill:none;fill-opacity:1;fill-rule:nonzero;stroke:#212427;stroke-opacity:1"
         id="path488" />
    </g>
    <g
       style="fill:url(#linearGradient5699);fill-opacity:1;stroke:#212427;stroke-opacity:1"
       id="g490"
       transform="matrix(0.13362875,0,0,-0.13362875,369.27587,2640.7386)">
      <path
         d="m 2978.64,16087.4 c 0.07,2.5 0.4,5.2 0.4,7.8 0,113.1 -91.68,204.8 -204.74,204.8 -113.09,0 -204.77,-91.7 -204.77,-204.8 0,-2.6 0.34,-5.3 0.48,-7.8 l -142.07,0 0,-220.4 692.8,0 0,220.4 -142.1,0 z"
         style="fill:url(#linearGradient6653);fill-opacity:1;stroke:#212427;stroke-width:59.71789932;stroke-linecap:butt;stroke-linejoin:miter;stroke-miterlimit:10;stroke-dasharray:none;stroke-opacity:1"
         id="path492" />
    </g>
    <g
       style="fill:url(#linearGradient5715);fill-opacity:1;stroke:#212427;stroke-opacity:1"
       id="g494"
       transform="matrix(0.129425,0,0,-0.129425,369.27587,2640.7386)">
      <path
         d="m 2864.41,15953.3 c -53.69,0 -97.18,43.4 -97.18,97.1 0,53.7 43.49,97.1 97.18,97.1 53.65,0 97.15,-43.4 97.15,-97.1 0,-53.7 -43.5,-97.1 -97.15,-97.1 z m 209.84,94.4 c 0,6.4 -0.31,12.7 -0.87,18.8 l 41.99,11.1 -18.87,72 -42.81,-11.2 c -8.98,18.8 -20.72,36 -34.75,51.3 l 27.54,35.6 -58.93,45.5 -27.84,-36.1 c -18.07,9.2 -37.51,15.8 -58.06,19.5 l 0,45.8 -74.4,0 0,-45.8 c -19.54,-3.4 -38.14,-9.7 -55.38,-18.1 l -27.39,36.5 -59.57,-44.7 27.13,-36.1 c -10.39,-10.8 -19.51,-22.7 -27.29,-35.7 l -41.8,15.4 -25.73,-69.8 41.05,-15 c -2.45,-12.7 -3.73,-25.7 -3.73,-39 0,-4.6 0.26,-9.1 0.48,-13.7 l -41.6,-10.9 18.86,-72 40.71,10.7 c 8.83,-19.6 20.56,-37.7 34.67,-53.6 l -25.35,-32.8 58.92,-45.4 25.05,32.3 c 18.67,-10 39.24,-17.1 60.97,-21 l 0,-40.6 74.4,0 0,40.6 c 20.55,3.6 40.14,10.3 58.21,19.5 l 24.45,-32.6 59.57,44.6 -24.82,33.1 c 10.59,11.5 19.73,24.2 27.49,37.7 l 39.36,-14.4 25.69,69.8 -40.11,14.8 c 1.78,11 2.76,22.4 2.76,33.9 z"
         style="fill:url(#linearGradient6655);fill-opacity:1;stroke:#212427;stroke-width:61.65750122;stroke-linecap:butt;stroke-linejoin:miter;stroke-miterlimit:10;stroke-dasharray:none;stroke-opacity:1"
         id="path496" />
    </g>
  </g>
</svg>
