<?xml version="1.0" encoding="UTF-8" standalone="no"?>
<svg
   xmlns:dc="http://purl.org/dc/elements/1.1/"
   xmlns:cc="http://creativecommons.org/ns#"
   xmlns:rdf="http://www.w3.org/1999/02/22-rdf-syntax-ns#"
   xmlns:svg="http://www.w3.org/2000/svg"
   xmlns="http://www.w3.org/2000/svg"
   xmlns:sodipodi="http://sodipodi.sourceforge.net/DTD/sodipodi-0.dtd"
   xmlns:inkscape="http://www.inkscape.org/namespaces/inkscape"
   version="1.1"
   id="svg4621"
   viewBox="0 0 526.46241 588.13453"
   height="165.98463mm"
   width="148.57939mm"
   inkscape:version="0.91 r13725"
   sodipodi:docname="logo-black.svg">
  <sodipodi:namedview
     pagecolor="#ffffff"
     bordercolor="#666666"
     borderopacity="1"
     objecttolerance="10"
     gridtolerance="10"
     guidetolerance="10"
     inkscape:pageopacity="0"
     inkscape:pageshadow="2"
     inkscape:window-width="2560"
     inkscape:window-height="1026"
     id="namedview7"
     showgrid="false"
     fit-margin-top="0"
     fit-margin-left="0"
     fit-margin-right="0"
     fit-margin-bottom="0"
     inkscape:zoom="0.41452272"
     inkscape:cx="263.23121"
     inkscape:cy="293.1371"
     inkscape:window-x="0"
     inkscape:window-y="0"
     inkscape:window-maximized="1"
     inkscape:current-layer="svg4621" />
  <defs
     id="defs4623" />
  <metadata
     id="metadata4626">
    <rdf:RDF>
      <cc:Work
         rdf:about="">
        <dc:format>image/svg+xml</dc:format>
        <dc:type
           rdf:resource="http://purl.org/dc/dcmitype/StillImage" />
        <dc:title></dc:title>
      </cc:Work>
    </rdf:RDF>
  </metadata>
  <g
     transform="translate(-182.48309,-245.04673)"
     id="layer1"
     style="stroke-width:22;stroke-miterlimit:4;stroke-dasharray:none">
    <path
       d="m 193.48309,256.04673 0,195.55512 0,195.55654 15.93779,0 0,-179.61909 339.08599,339.08563 0,-22.53863 -332.48339,-332.48445 195.55512,-195.55512 -22.5404,0 -179.61732,179.61733 0,-179.61733 z m 504.4624,226.80426 0,136.58634 c -29.5689,18.47976 -62.83311,27.72035 -99.79335,27.72035 l -5.54421,0 c -34.6089,0 -66.86539,-9.07228 -96.76984,-27.21649 -29.9041,-18.14422 -53.59288,-42.16855 -71.06528,-72.07335 -17.13543,-30.24036 -25.70421,-62.32854 -25.70421,-96.26528 0,-53.42456 19.31988,-99.28949 57.96106,-137.59405 38.64083,-38.64048 84.84095,-57.96107 138.60177,-57.96107 35.95323,0 70.05756,9.40819 102.31406,28.22457 l 0,18.64807 c -31.58433,-21.50398 -65.68973,-32.2565 -102.31406,-32.2565 -49.39228,0 -91.72878,17.80831 -127.00984,53.42493 -35.28,35.28035 -52.92071,77.78516 -52.92071,127.51405 0,49.393 17.64071,91.89744 52.92071,127.51406 35.28106,35.61661 77.61756,53.42457 127.00984,53.42457 27.55205,0 56.11323,-7.05615 85.68178,-21.16843 l 1.67173,-128.38394 z"
       style="fill:#212427;fill-opacity:1;stroke:#212427;stroke-width:22;stroke-miterlimit:4;stroke-dasharray:none;stroke-opacity:1"
       id="rect321-6-0-10-25-3-0-7"
       inkscape:connector-curvature="0" />
  </g>
</svg>
