<?xml version="1.0" encoding="UTF-8" standalone="no"?>
<!-- Created with Inkscape (http://www.inkscape.org/) -->

<svg
   xmlns:dc="http://purl.org/dc/elements/1.1/"
   xmlns:cc="http://creativecommons.org/ns#"
   xmlns:rdf="http://www.w3.org/1999/02/22-rdf-syntax-ns#"
   xmlns:svg="http://www.w3.org/2000/svg"
   xmlns="http://www.w3.org/2000/svg"
   xmlns:sodipodi="http://sodipodi.sourceforge.net/DTD/sodipodi-0.dtd"
   xmlns:inkscape="http://www.inkscape.org/namespaces/inkscape"
   width="837.89185mm"
   height="177.26991mm"
   viewBox="0 0 2968.9082 628.12174"
   id="svg4140"
   version="1.1"
   inkscape:version="0.91 r13725"
   sodipodi:docname="logo-full-white.svg">
  <defs
     id="defs4142" />
  <sodipodi:namedview
     id="base"
     pagecolor="#ffffff"
     bordercolor="#666666"
     borderopacity="1.0"
     inkscape:pageopacity="0.0"
     inkscape:pageshadow="2"
     inkscape:zoom="0.12374369"
     inkscape:cx="-4268.7321"
     inkscape:cy="-216.86434"
     inkscape:document-units="px"
     inkscape:current-layer="layer1"
     showgrid="false"
     fit-margin-top="0"
     fit-margin-left="0"
     fit-margin-right="0"
     fit-margin-bottom="0"
     inkscape:window-width="2560"
     inkscape:window-height="1026"
     inkscape:window-x="0"
     inkscape:window-y="0"
     inkscape:window-maximized="1" />
  <metadata
     id="metadata4145">
    <rdf:RDF>
      <cc:Work
         rdf:about="">
        <dc:format>image/svg+xml</dc:format>
        <dc:type
           rdf:resource="http://purl.org/dc/dcmitype/StillImage" />
        <dc:title />
      </cc:Work>
    </rdf:RDF>
  </metadata>
  <g
     inkscape:label="Layer 1"
     inkscape:groupmode="layer"
     id="layer1"
     transform="translate(913.64412,-63.434261)">
    <path
       inkscape:connector-curvature="0"
       id="path4624"
       style="font-style:normal;font-variant:normal;font-weight:normal;font-stretch:normal;font-size:medium;line-height:1.25;font-family:'Poiret One';-inkscape-font-specification:'Poiret One, Normal';text-align:start;letter-spacing:0px;word-spacing:0px;writing-mode:lr-tb;text-anchor:start;opacity:1;fill:#ffffff;fill-opacity:1;stroke:#ffffff;stroke-width:22;stroke-miterlimit:4;stroke-dasharray:none;stroke-opacity:1"
       d="m -521.99664,230.253 0,219.91603 -15.6384,0 0,-54.7346 q -13.6835,27.8557 -41.0509,43.9831 -27.3675,16.12704 -58.6443,16.12704 -47.89314,0 -82.10194,-33.72024 -34.20924,-34.2092 -34.20924,-81.6133 0,-47.40413 34.20924,-81.12473 34.2088,-34.2092 82.10194,-34.2092 31.2768,0 59.6215,16.616 28.8337,16.616 40.0737,43.983 l 0,-55.2231 15.6384,0 z m -216.00648,110.44673 q 0,41.0508 29.81104,71.3504 30.2995,29.8109 71.35054,29.8109 41.5396,0 70.8619,-29.8109 29.3219,-30.2996 29.3219,-71.3504 0,-41.53973 -29.8106,-71.83923 -29.3223,-30.2995 -70.3732,-30.2995 -41.05104,0 -71.35054,30.7881 -29.81104,30.2996 -29.81104,71.35063 z" />
    <path
       inkscape:connector-curvature="0"
       id="path4626"
       style="font-style:normal;font-variant:normal;font-weight:normal;font-stretch:normal;font-size:medium;line-height:1.25;font-family:'Poiret One';-inkscape-font-specification:'Poiret One, Normal';text-align:start;letter-spacing:0px;word-spacing:0px;writing-mode:lr-tb;text-anchor:start;opacity:1;fill:#ffffff;fill-opacity:1;stroke:#ffffff;stroke-width:22;stroke-miterlimit:4;stroke-dasharray:none;stroke-opacity:1"
       d="m -384.98434,439.41753 0,13.68354 q -34.6979,0 -59.1329,-22.96874 -24.435,-23.4578 -24.435,-59.6218 l 0,-228.71263 15.6384,0 0,88.9437 67.4408,0 0,13.6836 -67.4408,0 0,126.08533 q 0,29.8109 19.5481,49.3589 20.0367,19.5481 48.3814,19.5481 z" />
    <path
       inkscape:connector-curvature="0"
       id="path4628"
       style="font-style:normal;font-variant:normal;font-weight:normal;font-stretch:normal;font-size:medium;line-height:1.25;font-family:'Poiret One';-inkscape-font-specification:'Poiret One, Normal';text-align:start;letter-spacing:0px;word-spacing:0px;writing-mode:lr-tb;text-anchor:start;opacity:1;fill:#ffffff;fill-opacity:1;stroke:#ffffff;stroke-width:22;stroke-miterlimit:4;stroke-dasharray:none;stroke-opacity:1"
       d="m -126.83494,230.253 0,219.91603 -15.6384,0 0,-54.7346 q -13.6835,27.8557 -41.051,43.9831 -27.3674,16.12704 -58.6442,16.12704 -47.8928,0 -82.102,-33.72024 -34.2092,-34.2092 -34.2092,-81.6133 0,-47.40413 34.2092,-81.12473 34.2092,-34.2092 82.102,-34.2092 31.2768,0 59.6218,16.616 28.8333,16.616 40.0734,43.983 l 0,-55.2231 15.6384,0 z m -216.0064,110.44673 q 0,41.0508 29.8109,71.3504 30.2995,29.8109 71.3505,29.8109 41.5396,0 70.8619,-29.8109 29.3223,-30.2996 29.3223,-71.3504 0,-41.53973 -29.8109,-71.83923 -29.3223,-30.2995 -70.3733,-30.2995 -41.051,0 -71.3505,30.7881 -29.8109,30.2996 -29.8109,71.35063 z" />
    <path
       inkscape:connector-curvature="0"
       id="path4630"
       style="font-style:normal;font-variant:normal;font-weight:normal;font-stretch:normal;font-size:medium;line-height:1.25;font-family:'Poiret One';-inkscape-font-specification:'Poiret One, Normal';text-align:start;letter-spacing:0px;word-spacing:0px;writing-mode:lr-tb;text-anchor:start;opacity:1;fill:#ffffff;fill-opacity:1;stroke:#ffffff;stroke-width:22;stroke-miterlimit:4;stroke-dasharray:none;stroke-opacity:1"
       d="m 60.025268,260.0639 q -21.5029,-21.5029 -47.4041,-21.5029 -25.901199,0 -45.9383,19.5481 -19.5481,19.548 -19.5481,45.4493 l 0,146.61063 -15.6384,0 0,-219.91603 15.6384,0 0,32.743 q 8.7966,-16.616 27.3674,-27.3674 18.5709007,-10.7515 41.5397,-10.7515 22.9691,0 43.9834,15.6387 l 0,19.5481 z" />
    <path
       inkscape:connector-curvature="0"
       id="path4632"
       style="font-style:normal;font-variant:normal;font-weight:normal;font-stretch:normal;font-size:medium;line-height:1.25;font-family:'Poiret One';-inkscape-font-specification:'Poiret One, Normal';text-align:start;letter-spacing:0px;word-spacing:0px;writing-mode:lr-tb;text-anchor:start;opacity:1;fill:#ffffff;fill-opacity:1;stroke:#ffffff;stroke-width:22;stroke-miterlimit:4;stroke-dasharray:none;stroke-opacity:1"
       d="m 235.79036,436.48543 0,13.6836 -151.497992,0 125.107792,-206.23253 -111.912896,0 0,-13.6835 139.768896,0 -125.5964,206.23243 124.1306,0 z" />
    <path
       inkscape:connector-curvature="0"
       id="path4634"
       style="font-style:normal;font-variant:normal;font-weight:normal;font-stretch:normal;font-size:medium;line-height:1.25;font-family:'Poiret One';-inkscape-font-specification:'Poiret One, Normal';text-align:start;letter-spacing:0px;word-spacing:0px;writing-mode:lr-tb;text-anchor:start;opacity:1;fill:#ffffff;fill-opacity:1;stroke:#ffffff;stroke-width:22;stroke-miterlimit:4;stroke-dasharray:none;stroke-opacity:1"
       d="m 455.84343,230.253 15.6388,0 0,213.07423 q 0,43.49454 -30.2995,73.79404 -30.2996,30.2995 -74.28301,30.2995 -52.77969,0 -83.56816,-40.5623 l 0.9776,-24.435 q 13.6836,23.4577 35.67507,37.1413 22.4805,14.1725 46.91549,14.1725 36.16411,0 62.55391,-26.3902 26.3898,-25.9012 26.3898,-62.55394 l 0,-37.1413 q -23.9463,47.89274 -83.56781,47.89274 -40.56239,0 -69.39599,-28.34474 -28.83327,-28.8333 -28.83327,-68.907 l 0,-128.03983 15.6384,0 0,128.03983 q 0,33.7206 24.43527,58.6442 24.9236,24.924 58.64419,24.924 33.72061,0 58.15561,-24.924 24.9236,-24.9236 24.9236,-58.6442 l 0,-128.03983 z" />
    <path
       inkscape:connector-curvature="0"
       id="path4636"
       style="font-style:normal;font-variant:normal;font-weight:normal;font-stretch:normal;font-size:medium;line-height:1.25;font-family:'Poiret One';-inkscape-font-specification:'Poiret One, Normal';text-align:start;letter-spacing:0px;word-spacing:0px;writing-mode:lr-tb;text-anchor:start;opacity:1;fill:#ffffff;fill-opacity:1;stroke:#ffffff;stroke-width:22;stroke-miterlimit:4;stroke-dasharray:none;stroke-opacity:1"
       d="m 540.83213,450.16903 -15.6387,0 0,-219.91603 15.6387,0 0,44.4717 q 24.9237,-49.8476 85.0341,-49.8476 41.051,0 68.907,28.3447 27.8561,28.345 27.8561,68.90703 l 0,128.0402 -15.6384,0 0,-128.0402 q 0,-33.72023 -23.9464,-58.64423 -23.4577,-24.9236 -57.1783,-24.9236 -33.7202,0 -59.6215,24.9236 -25.4126,24.924 -25.4126,58.64423 l 0,128.0402 z" />
    <path
       inkscape:connector-curvature="0"
       id="path4638"
       style="font-style:normal;font-variant:normal;font-weight:normal;font-stretch:normal;font-size:medium;line-height:1.25;font-family:'Poiret One';-inkscape-font-specification:'Poiret One, Normal';text-align:start;letter-spacing:0px;word-spacing:0px;writing-mode:lr-tb;text-anchor:start;opacity:1;fill:#ffffff;fill-opacity:1;stroke:#ffffff;stroke-width:22;stroke-miterlimit:4;stroke-dasharray:none;stroke-opacity:1"
       d="m 1000.426,230.253 0,219.91603 -15.63836,0 0,-54.7346 q -13.6835,27.8557 -41.051,43.9831 -27.3674,16.12704 -58.64421,16.12704 -47.8927,0 -82.1019,-33.72024 -34.2093,-34.2092 -34.2093,-81.6133 0,-47.40413 34.2093,-81.12473 34.2092,-34.2092 82.1019,-34.2092 31.27681,0 59.62181,16.616 28.8333,16.616 40.0734,43.983 l 0,-55.2231 15.63836,0 z M 784.41963,340.69973 q 0,41.0508 29.8109,71.3504 30.2996,29.8109 71.3505,29.8109 41.53961,0 70.86191,-29.8109 29.3223,-30.2996 29.3223,-71.3504 0,-41.53973 -29.8109,-71.83923 -29.3223,-30.2995 -70.37331,-30.2995 -41.0509,0 -71.3505,30.7881 -29.8109,30.2996 -29.8109,71.35063 z" />
    <path
       inkscape:connector-curvature="0"
       id="path4642"
       style="font-style:normal;font-variant:normal;font-weight:normal;font-stretch:normal;font-size:medium;line-height:1.25;font-family:'Poiret One';-inkscape-font-specification:'Poiret One, Normal';text-align:start;letter-spacing:0px;word-spacing:0px;writing-mode:lr-tb;text-anchor:start;opacity:1;fill:#ffffff;fill-opacity:1;stroke:#ffffff;stroke-width:22;stroke-miterlimit:4;stroke-dasharray:none;stroke-opacity:1"
       d="m 1670.5975,455.54457 q -46.9151,0 -80.6357,-34.69784 -33.7206,-35.1865 -33.7206,-81.6133 0,-46.42653 34.2092,-80.14713 34.2092,-34.2092 82.102,-34.2092 48.3817,0 82.102,34.2092 34.2092,33.7206 34.2092,80.63613 0,46.4264 -33.2316,81.1243 -33.232,34.69784 -80.6362,34.69784 l -4.3983,0 z m 102.6277,-114.84484 q 0,-41.53973 -29.8109,-71.83923 -29.322,-30.2995 -70.3733,-30.2995 -41.051,0 -71.3505,30.7881 -29.8109,30.2996 -29.8109,71.35063 0,41.0508 29.8109,71.3504 30.2995,29.8109 71.3505,29.8109 41.54,0 70.8619,-29.8109 29.3223,-30.2996 29.3223,-71.3504 z" />
    <path
       inkscape:connector-curvature="0"
       id="path4644"
       style="font-style:normal;font-variant:normal;font-weight:normal;font-stretch:normal;font-size:medium;line-height:1.25;font-family:'Poiret One';-inkscape-font-specification:'Poiret One, Normal';text-align:start;letter-spacing:0px;word-spacing:0px;writing-mode:lr-tb;text-anchor:start;opacity:1;fill:#ffffff;fill-opacity:1;stroke:#ffffff;stroke-width:22;stroke-miterlimit:4;stroke-dasharray:none;stroke-opacity:1"
       d="m 1857.7097,230.7416 0,219.42743 -15.6384,0 0,-219.42743 15.6384,0 z m -7.8194,-53.7573 q -14.1722,0 -14.1722,-13.1949 0,-13.1949 14.1722,-13.1949 14.1725,0 14.1725,13.1949 0,13.1949 -14.1725,13.1949 z" />
    <path
       inkscape:connector-curvature="0"
       id="path4646"
       style="font-style:normal;font-variant:normal;font-weight:normal;font-stretch:normal;font-size:medium;line-height:1.25;font-family:'Poiret One';-inkscape-font-specification:'Poiret One, Normal';text-align:start;letter-spacing:0px;word-spacing:0px;writing-mode:lr-tb;text-anchor:start;opacity:1;fill:#ffffff;fill-opacity:1;stroke:#ffffff;stroke-width:22;stroke-miterlimit:4;stroke-dasharray:none;stroke-opacity:1"
       d="m 1970.4701,238.072 q -12.7063,0 -22.4805,8.308 -9.7739,8.308 -9.7739,20.5257 0,12.2173 10.7515,22.4801 11.2401,10.2629 26.3898,19.0595 15.6384,8.30803 31.2772,18.08223 15.6383,9.7738 26.3898,24.9235 11.2401,15.1498 11.2401,34.6978 0,28.8337 -21.9916,49.359 -21.5029,20.03674 -52.291,20.03674 -19.5481,0 -36.6527,-8.30764 -16.616,-8.797 -24.4354,-22.9692 l 0,-23.4577 q 18.5709,41.051 59.6219,41.051 25.4126,0 42.5172,-15.6384 17.5932,-15.6384 17.5932,-34.6978 0,-19.5481 -11.2401,-32.7434 -10.7514,-13.1948 -26.3902,-22.4801 -15.6384,-9.2852 -31.2768,-18.0818 -15.1497,-9.2856 -26.3898,-21.99193 -10.7515,-13.1949 -10.7515,-30.2995 0,-17.5933 13.6836,-29.322 14.1725,-12.2176 36.164,-12.2176 21.9916,0 37.63,17.1046 l 0,20.0367 q -15.6384,-23.4578 -39.5848,-23.4578 z" />
    <path
       style="opacity:1;fill:#ffffff;stroke:#ffffff;stroke-width:22;stroke-miterlimit:4;stroke-dasharray:none;stroke-opacity:1"
       d="m 1512.0824,295.4389 0,133.09403 c -28.8004,18.00731 -61.2001,27.01164 -97.1998,27.01164 l -5.4001,0 c -33.7095,0 -65.1277,-8.84034 -94.255,-26.52062 -29.127,-17.68029 -52.2,-41.09042 -69.2183,-70.23061 -16.6902,-29.46711 -25.0362,-60.73487 -25.0362,-93.80387 0,-52.05863 18.8177,-96.75084 56.4547,-134.07606 37.6365,-37.652542 82.6361,-56.479149 134.9997,-56.479149 35.0188,0 68.2368,9.167649 99.655,27.502949 l 0,18.17131 c -30.7634,-20.954191 -63.9825,-31.431769 -99.655,-31.431769 -48.1087,0 -89.3449,17.352979 -123.7091,52.058929 -34.3631,34.37834 -51.5454,75.79637 -51.5454,124.25379 0,48.13011 17.1823,89.54775 51.5454,124.25369 34.3642,34.70595 75.6004,52.05863 123.7091,52.05863 26.836,0 54.6549,-6.87579 83.4551,-20.62716 l 1.6282,-125.10145 z"
       id="rect321-6-0-10-25-3-0-7"
       inkscape:connector-curvature="0" />
    <path
       inkscape:connector-curvature="0"
       style="fill:#ffffff;stroke:#ffffff;stroke-width:22;stroke-miterlimit:4;stroke-dasharray:none;stroke-opacity:1;opacity:1"
       d="m -902.64412,141.7979 0,371.66386 15.1441,0 0,-170.68713 322.22726,322.22515 0,-21.4157 -315.95246,-315.95425 185.83406,-185.83193 -21.42,0 -170.68886,170.68925 0,-170.68925 z"
       id="path4722" />
  </g>
</svg>
