<?xml version="1.0" encoding="UTF-8" standalone="no"?>
<svg
   xmlns:dc="http://purl.org/dc/elements/1.1/"
   xmlns:cc="http://creativecommons.org/ns#"
   xmlns:rdf="http://www.w3.org/1999/02/22-rdf-syntax-ns#"
   xmlns:svg="http://www.w3.org/2000/svg"
   xmlns="http://www.w3.org/2000/svg"
   xmlns:sodipodi="http://sodipodi.sourceforge.net/DTD/sodipodi-0.dtd"
   xmlns:inkscape="http://www.inkscape.org/namespaces/inkscape"
   version="1.1"
   id="svg2"
   viewBox="0 0 399.99999 74.490236"
   height="21.0228mm"
   width="112.88889mm"
   inkscape:version="0.91 r13725"
   sodipodi:docname="section-wave.svg">
  <sodipodi:namedview
     pagecolor="#ffffff"
     bordercolor="#666666"
     borderopacity="1"
     objecttolerance="10"
     gridtolerance="10"
     guidetolerance="10"
     inkscape:pageopacity="0"
     inkscape:pageshadow="2"
     inkscape:window-width="2361"
     inkscape:window-height="1026"
     id="namedview12"
     showgrid="false"
     inkscape:zoom="0.35355339"
     inkscape:cx="401.50761"
     inkscape:cy="321.04146"
     inkscape:window-x="90"
     inkscape:window-y="0"
     inkscape:window-maximized="0"
     inkscape:current-layer="svg2"
     fit-margin-top="0"
     fit-margin-left="0"
     fit-margin-right="0"
     fit-margin-bottom="0" />
  <defs
     id="defs4">
    <clipPath
       id="clipPath4170"
       clipPathUnits="userSpaceOnUse">
      <path
         transform="scale(1,-1)"
         d="M 386.98183,600.78125 A 202.85715,147.72588 0 0 1 184.1831,748.50712 202.85715,147.72588 0 0 1 -18.732434,600.86633 202.85715,147.72588 0 0 1 183.94943,453.05543 202.85715,147.72588 0 0 1 386.98169,600.61108"
         id="path4172"
         style="opacity:1;fill:#ff0000;fill-opacity:1;fill-rule:nonzero;stroke:none;stroke-width:22;stroke-miterlimit:4;stroke-dasharray:none;stroke-opacity:1"
         inkscape:connector-curvature="0" />
    </clipPath>
    <clipPath
       id="clipPath4170-9"
       clipPathUnits="userSpaceOnUse">
      <path
         transform="scale(1,-1)"
         d="M 386.98183,600.78125 A 202.85715,147.72588 0 0 1 184.1831,748.50712 202.85715,147.72588 0 0 1 -18.732434,600.86633 202.85715,147.72588 0 0 1 183.94943,453.05543 202.85715,147.72588 0 0 1 386.98169,600.61108"
         id="path4172-2"
         style="opacity:1;fill:#ff0000;fill-opacity:1;fill-rule:nonzero;stroke:none;stroke-width:22;stroke-miterlimit:4;stroke-dasharray:none;stroke-opacity:1"
         inkscape:connector-curvature="0" />
    </clipPath>
  </defs>
  <metadata
     id="metadata7">
    <rdf:RDF>
      <cc:Work
         rdf:about="">
        <dc:format>image/svg+xml</dc:format>
        <dc:type
           rdf:resource="http://purl.org/dc/dcmitype/StillImage" />
        <dc:title></dc:title>
      </cc:Work>
    </rdf:RDF>
  </metadata>
  <path
     style="fill:#ffffff;fill-rule:evenodd;stroke:none;stroke-width:1px;stroke-linecap:butt;stroke-linejoin:miter;stroke-opacity:1"
     d="M 0,0 0,50 A 217.54018,217.54018 0 0 1 99.93554,25.50782 217.54018,217.54018 0 0 1 200,50 217.54018,217.54018 0 0 0 299.9355,74.49024 217.54018,217.54018 0 0 0 400,50 L 400,0 0,0 Z"
     id="rect4197-5"
     inkscape:connector-curvature="0" />
</svg>
