<?xml version="1.0" encoding="UTF-8" standalone="no"?>
<svg
   xmlns:dc="http://purl.org/dc/elements/1.1/"
   xmlns:cc="http://creativecommons.org/ns#"
   xmlns:rdf="http://www.w3.org/1999/02/22-rdf-syntax-ns#"
   xmlns:svg="http://www.w3.org/2000/svg"
   xmlns="http://www.w3.org/2000/svg"
   xmlns:xlink="http://www.w3.org/1999/xlink"
   xmlns:sodipodi="http://sodipodi.sourceforge.net/DTD/sodipodi-0.dtd"
   xmlns:inkscape="http://www.inkscape.org/namespaces/inkscape"
   viewBox="0 0 4943.9824 3666.762"
   height="3666.762"
   width="4943.9824"
   xml:space="preserve"
   version="1.1"
   id="svg2"
   inkscape:version="0.91 r13725"
   sodipodi:docname="text-image2.svg"><sodipodi:namedview
     pagecolor="#ffffff"
     bordercolor="#666666"
     borderopacity="1"
     objecttolerance="10"
     gridtolerance="10"
     guidetolerance="10"
     inkscape:pageopacity="0"
     inkscape:pageshadow="2"
     inkscape:window-width="2560"
     inkscape:window-height="1026"
     id="namedview155"
     showgrid="false"
     fit-margin-top="0"
     fit-margin-left="0"
     fit-margin-right="0"
     fit-margin-bottom="0"
     inkscape:zoom="0.051248089"
     inkscape:cx="-8611.3485"
     inkscape:cy="2633.4157"
     inkscape:window-x="0"
     inkscape:window-y="0"
     inkscape:window-maximized="1"
     inkscape:current-layer="svg2" /><metadata
     id="metadata8"><rdf:RDF><cc:Work
         rdf:about=""><dc:format>image/svg+xml</dc:format><dc:type
           rdf:resource="http://purl.org/dc/dcmitype/StillImage" /><dc:title></dc:title></cc:Work></rdf:RDF></metadata><defs
     id="defs6"><linearGradient
       id="linearGradient5693"><stop
         style="stop-color:#8443d6;stop-opacity:1"
         offset="0"
         id="stop5695" /><stop
         style="stop-color:#44ced3;stop-opacity:1"
         offset="1"
         id="stop5697" /></linearGradient><linearGradient
       gradientUnits="userSpaceOnUse"
       y2="14359.15"
       x2="7416.6299"
       y1="14359.15"
       x1="3429.1499"
       id="linearGradient4825"
       xlink:href="#linearGradient5693" /><linearGradient
       gradientUnits="userSpaceOnUse"
       y2="15998.997"
       x2="10867.752"
       y1="15998.997"
       x1="10320.81"
       id="linearGradient4833"
       xlink:href="#linearGradient5693" /><linearGradient
       gradientUnits="userSpaceOnUse"
       y2="15471.1"
       x2="11990.6"
       y1="15471.1"
       x1="9346.6504"
       id="linearGradient4835"
       xlink:href="#linearGradient5693" /><linearGradient
       gradientUnits="userSpaceOnUse"
       y2="9656.6992"
       x2="16297.055"
       y1="9656.6992"
       x1="12238.664"
       id="linearGradient4869"
       xlink:href="#linearGradient5693" /><linearGradient
       inkscape:collect="always"
       xlink:href="#linearGradient5693"
       id="linearGradient4283"
       gradientUnits="userSpaceOnUse"
       x1="12238.664"
       y1="9656.6992"
       x2="16297.055"
       y2="9656.6992" /><linearGradient
       inkscape:collect="always"
       xlink:href="#linearGradient5693"
       id="linearGradient4285"
       gradientUnits="userSpaceOnUse"
       x1="3429.1499"
       y1="14359.15"
       x2="7416.6299"
       y2="14359.15" /><linearGradient
       inkscape:collect="always"
       xlink:href="#linearGradient5693"
       id="linearGradient4287"
       gradientUnits="userSpaceOnUse"
       x1="9346.6504"
       y1="15471.1"
       x2="11990.6"
       y2="15471.1" /><linearGradient
       inkscape:collect="always"
       xlink:href="#linearGradient5693"
       id="linearGradient4289"
       gradientUnits="userSpaceOnUse"
       x1="10320.81"
       y1="15998.997"
       x2="10867.752"
       y2="15998.997" /></defs><g
     transform="matrix(0.1730875,0,0,-0.1730875,-445.75851,4135.9013)"
     id="g18"><path
       inkscape:connector-curvature="0"
       id="path20"
       style="fill:#ffffff;fill-opacity:1;fill-rule:nonzero;stroke:none"
       d="m 16300,12320.7 -2381.7,-284.4 -284.4,2381.8 2381.7,284.4 284.4,-2381.8" /></g><g
     transform="matrix(0.17394375,0,0,-0.17394375,-445.75851,4135.9013)"
     id="g22"
     style="fill:#212427;fill-opacity:1"><path
       inkscape:connector-curvature="0"
       id="path24"
       style="fill:#212427;fill-opacity:1;fill-rule:nonzero;stroke:none"
       d="m 13703.3,13842.5 212.7,-1781.1 2219.4,264.9 -212.6,1781.2 -2219.5,-265 z m 146.4,-1941.3 c -16.9,0 -33.4,5.6 -46.9,16.2 -15.8,12.4 -26,30.7 -28.4,50.6 l -230.7,1931.8 c -4.9,41.6 24.7,79.3 66.4,84.3 l 2370,283 c 19.9,2.3 40.1,-3.2 55.9,-15.7 15.8,-12.4 26,-30.7 28.4,-50.6 L 16295,12269 c 5,-41.6 -24.7,-79.3 -66.3,-84.3 l -2370,-283 c -3,-0.3 -6,-0.5 -9,-0.5" /></g><g
     transform="matrix(0.21017875,0,0,-0.21017875,-445.75851,4135.9013)"
     id="g26"
     style="fill:#212427;fill-opacity:1"><path
       inkscape:connector-curvature="0"
       id="path28"
       style="fill:#212427;fill-opacity:1;fill-rule:nonzero;stroke:none"
       d="m 8882.86,9221.92 c 0,0 2217.54,1524.18 7417.14,1224.28 l -169.3,-1883.25 -1524.9,-311.52 -3434.5,0 -1461.53,587.06 -826.91,383.43" /></g><g
     transform="matrix(0.19009375,0,0,-0.19009375,-445.75851,4135.9013)"
     id="g30"><path
       inkscape:connector-curvature="0"
       id="path32"
       style="fill:#ffffff;fill-opacity:1;fill-rule:nonzero;stroke:none"
       d="m 15668.5,14364.1 c 74,-1102.4 -759.6,-2056 -1861.9,-2130 -1102.4,-74 -2055.9,759.6 -2130,1861.9 -73.9,1102.4 759.7,2056 1862,2130 1102.3,74 2055.9,-759.7 2129.9,-1861.9" /></g><g
     transform="matrix(0.19093,0,0,-0.19093,-445.75851,4135.9013)"
     id="g34"
     style="fill:#212427;fill-opacity:1"><path
       inkscape:connector-curvature="0"
       id="path36"
       style="fill:#212427;fill-opacity:1;fill-rule:nonzero;stroke:none"
       d="m 13610.9,12107 c -56.9,0 -113.8,2.3 -170.1,7 -38.1,3.1 -66.4,36.5 -63.2,74.5 3.1,38 35.5,66.6 74.6,63.1 95.5,-7.9 193,-8.5 289.4,-2 512.4,34.3 980.7,266.2 1318.7,652.8 337.9,386.7 505.1,881.7 470.8,1394.2 -71.1,1057.7 -989.1,1860.6 -2047.1,1789.4 -543.2,-36.4 -1047.7,-303.1 -1384,-731.7 -23.6,-30 -67.1,-35.2 -97.1,-11.7 -30,23.5 -35.2,67 -11.6,97 360.4,459.3 901.2,745.2 1483.4,784.3 1133.4,76.1 2118.1,-784.4 2194.2,-1918.1 36.9,-549.2 -142.4,-1079.9 -504.6,-1494.3 -362.3,-414.4 -864.3,-663 -1413.5,-699.8 -46.5,-3.2 -93.2,-4.7 -139.9,-4.7" /></g><g
     transform="matrix(0.18334125,0,0,-0.18334125,-445.75851,4135.9013)"
     id="g38"
     style="fill:#212427;fill-opacity:1"><path
       inkscape:connector-curvature="0"
       id="path40"
       style="fill:#212427;fill-opacity:1;fill-rule:nonzero;stroke:none"
       d="m 15255.6,14309.2 c -12.7,0 -25.6,3.5 -37.3,10.5 -201.4,122.2 -331.1,335.2 -346.8,570 -26.7,397.7 275.1,743 672.7,769.6 340,23 654.6,-199.3 745.2,-528.4 10.6,-38.3 -11.9,-78 -50.2,-88.5 -38.3,-10.5 -77.9,11.9 -88.4,50.2 -72.7,263.6 -323.8,441.8 -596.9,423.2 -318.5,-21.4 -560.3,-297.9 -538.9,-616.4 12.6,-188.1 116.6,-358.8 278,-456.7 34,-20.6 44.8,-64.8 24.2,-98.8 -13.6,-22.3 -37.3,-34.7 -61.6,-34.7" /></g><g
     transform="matrix(0.17594125,0,0,-0.17594125,-445.75851,4135.9013)"
     id="g42"
     style="fill:#212427;fill-opacity:1"><path
       inkscape:connector-curvature="0"
       id="path44"
       style="fill:#212427;fill-opacity:1;fill-rule:nonzero;stroke:none"
       d="m 16293.1,15692.8 c 6.9,-102.5 -70.6,-191.2 -173.1,-198 -102.6,-6.9 -191.2,70.6 -198.1,173.1 -6.9,102.5 70.6,191.2 173.1,198.1 102.6,6.9 191.3,-70.7 198.1,-173.2" /></g><g
     transform="matrix(0.1714125,0,0,-0.1714125,-445.75851,4135.9013)"
     id="g46"
     style="fill:#212427;fill-opacity:1"><path
       inkscape:connector-curvature="0"
       id="path48"
       style="fill:#212427;fill-opacity:1;fill-rule:nonzero;stroke:none"
       d="m 15714.1,16115.2 c 7,-105.2 -72.5,-196.3 -177.8,-203.3 -105.2,-7.1 -196.2,72.5 -203.3,177.7 -7,105.2 72.5,196.3 177.8,203.3 105.2,7.1 196.2,-72.5 203.3,-177.7" /></g><g
     transform="matrix(0.17565875,0,0,-0.17565875,-445.75851,4135.9013)"
     id="g50"
     style="fill:#212427;fill-opacity:1"><path
       inkscape:connector-curvature="0"
       id="path52"
       style="fill:#212427;fill-opacity:1;fill-rule:nonzero;stroke:none"
       d="m 15789.5,14221.5 c -159.6,0 -319.2,51.7 -444.1,156.3 -31.7,26.7 -35.9,74 -9.3,105.8 26.6,31.8 74,36 105.8,9.3 201.4,-168.8 532.7,-158.6 723.3,22.5 30.1,28.5 77.7,27.3 106.2,-2.8 28.6,-30.1 27.3,-77.7 -2.7,-106.2 -129.4,-122.8 -304.4,-184.9 -479.2,-184.9" /></g><g
     transform="matrix(0.21951,0,0,-0.21951,-445.75851,4135.9013)"
     id="g54"
     style="fill:#212427;fill-opacity:1"><path
       inkscape:connector-curvature="0"
       id="path56"
       style="fill:#212427;fill-opacity:1;fill-rule:nonzero;stroke:none"
       d="m 9427.08,2923.96 6872.92,461.42 -351.4,5234.1 -6872.87,-461.42 351.35,-5234.1" /></g><g
     transform="matrix(0.22812875,0,0,-0.22812875,-445.75851,4135.9013)"
     id="g58"
     style="fill:#212427;fill-opacity:1"><path
       inkscape:connector-curvature="0"
       id="path60"
       style="fill:#212427;fill-opacity:1;fill-rule:nonzero;stroke:none"
       d="m 16300,8341.72 c 0,-708.37 -574.2,-1282.55 -1282.6,-1282.55 -708.3,0 -1282.5,574.18 -1282.5,1282.55 0,708.32 574.2,1282.56 1282.5,1282.56 708.4,0 1282.6,-574.24 1282.6,-1282.56" /></g><g
     transform="matrix(0.26225625,0,0,-0.26225625,-445.75851,4135.9013)"
     id="g62"
     style="fill:#212427;fill-opacity:1"><path
       inkscape:connector-curvature="0"
       id="path64"
       style="fill:#212427;fill-opacity:1;fill-rule:nonzero;stroke:none"
       d="M 16300,6168.26 15091.7,4599.27 12489.8,6602.94 13698.1,8171.97 16300,6168.26" /></g><g
     transform="matrix(0.1433075,0,0,-0.1433075,-445.75851,4135.9013)"
     id="g66"
     style="fill:#212427;fill-opacity:1"><path
       inkscape:connector-curvature="0"
       id="path68"
       style="fill:#212427;fill-opacity:1;fill-rule:nonzero;stroke:none"
       d="m 12552.8,10352.9 c 772.5,-821.39 2064.5,-861.07 2886,-88.7 821.5,772.5 861.2,2064.6 88.7,2886 -772.4,821.5 -2064.5,861.2 -2886,88.7 -821.4,-772.4 -861.2,-2064.5 -88.7,-2886" /></g><g
     transform="matrix(0.28866,0,0,-0.28866,-445.75851,4135.9013)"
     id="g70"
     style="fill:#212427;fill-opacity:1"><path
       inkscape:connector-curvature="0"
       id="path72"
       style="fill:#212427;fill-opacity:1;fill-rule:nonzero;stroke:none"
       d="m 14993.1,4519.29 -1674.5,657.96 1306.8,3326.06 1674.6,-658 -1306.9,-3326.02" /></g><g
     transform="matrix(0.2673425,0,0,-0.2673425,-445.75851,4135.9013)"
     id="g74"
     style="fill:#212427;fill-opacity:1"><path
       inkscape:connector-curvature="0"
       id="path76"
       style="fill:#212427;fill-opacity:1;fill-rule:nonzero;stroke:none"
       d="m 16300,5337.41 c 0,-538.78 -436.8,-975.54 -975.6,-975.54 -538.8,0 -975.5,436.76 -975.5,975.54 0,538.77 436.7,975.57 975.5,975.57 538.8,0 975.6,-436.8 975.6,-975.57" /></g><g
     transform="matrix(0.2977825,0,0,-0.2977825,-445.75851,4135.9013)"
     id="g78"><path
       inkscape:connector-curvature="0"
       id="path80"
       style="fill:#ffffff;fill-opacity:1;fill-rule:nonzero;stroke:none"
       d="m 15743.1,7436.79 c 165.9,401.76 300.9,827.53 471.1,1280.59 22.7,60.61 85.8,228.77 85.8,228.77 -381.4,146.29 -968.5,352.11 -1350,498.44 -70.2,26.9 -200.7,73.88 -200.7,73.88 -171.6,-402.02 -434.7,-983.14 -606.3,-1385.16 l 1600.1,-696.52" /></g><g
     transform="matrix(0.282245,0,0,-0.282245,-445.75851,4135.9013)"
     id="g82"><path
       inkscape:connector-curvature="0"
       id="path84"
       style="fill:#ffffff;fill-opacity:1;fill-rule:nonzero;stroke:none"
       d="m 15914.7,9737.09 344.1,873.51 c 41.2,109 -13.7,230.8 -122.7,272 l -15.8,5.9 c -109,41.3 -230.8,-13.7 -271.9,-122.6 l -344.2,-873.58 410.5,-155.23" /></g><g
     transform="matrix(0.2709975,0,0,-0.2709975,-445.75851,4135.9013)"
     id="g86"><path
       inkscape:connector-curvature="0"
       id="path88"
       style="fill:#ffffff;fill-opacity:1;fill-rule:nonzero;stroke:none"
       d="m 16300,9912.31 -385.9,672.19 c -60.4,105.2 -194.7,141.6 -299.9,81.1 l -15.3,-8.7 c -105.2,-60.4 -141.6,-194.7 -81.1,-299.9 l 385.8,-672.23 396.4,227.54" /></g><g
     transform="matrix(0.29066125,0,0,-0.29066125,-445.75851,4135.9013)"
     id="g90"><path
       inkscape:connector-curvature="0"
       id="path92"
       style="fill:#ffffff;fill-opacity:1;fill-rule:nonzero;stroke:none"
       d="m 15834.3,9267.04 425.7,1117.46 c 40,105.8 -13.3,224 -119.2,264.1 l -15.3,5.8 c -105.8,40 -224,-13.3 -264.1,-119.2 l -425.7,-1117.43 398.6,-150.73" /></g><g
     transform="matrix(0.2971925,0,0,-0.2971925,-445.75851,4135.9013)"
     id="g94"><path
       inkscape:connector-curvature="0"
       id="path96"
       style="fill:#ffffff;fill-opacity:1;fill-rule:nonzero;stroke:none"
       d="m 15858.4,8879.39 402.4,1097.98 c 39.2,103.53 -13,219.13 -116.5,258.33 l -14.9,5.6 c -103.5,39.2 -219.2,-13 -258.3,-116.5 l -402.5,-1097.99 389.8,-147.42" /></g><g
     transform="matrix(0.3049925,0,0,-0.3049925,-445.75851,4135.9013)"
     id="g98"><path
       inkscape:connector-curvature="0"
       id="path100"
       style="fill:#ffffff;fill-opacity:1;fill-rule:nonzero;stroke:none"
       d="m 15906,8682.88 326,485.42 c 68,83.74 55.2,206.69 -28.5,274.6 l -12.1,9.84 c -83.8,67.95 -206.7,55.16 -274.7,-28.57 l -538.2,-681.74 527.5,-59.55" /></g><g
     transform="matrix(0.27070125,0,0,-0.27070125,-445.75851,4135.9013)"
     id="g102"><path
       inkscape:connector-curvature="0"
       id="path104"
       style="fill:#ffffff;fill-opacity:1;fill-rule:nonzero;stroke:none"
       d="m 16224.8,10470.7 c 0,0 -57.3,-207.7 -178.5,-74.6 l 10.3,-186.6 71,-70.3 85.5,130.8 86.9,211 -75.2,-10.3" /></g><g
     transform="matrix(0.30569375,0,0,-0.30569375,-445.75851,4135.9013)"
     id="g106"
     style="fill:#212427;fill-opacity:1"><path
       inkscape:connector-curvature="0"
       id="path108"
       style="fill:#212427;fill-opacity:1;fill-rule:nonzero;stroke:none"
       d="m 14252.7,9228.12 0,0 0,0 z m -43.2,-4879.07 c -5.2,0 -10.5,0.94 -15.7,2.98 -22.2,8.67 -33.2,33.74 -24.4,55.9 l 1063.3,2713.06 532,1457.14 c 1.1,2.98 2.5,5.88 4.3,8.58 l 393.2,609.6 c 0.5,0.74 45.4,71.85 29.5,137.72 -7.9,32.83 -29.7,59.25 -66.6,80.8 -79.4,46.29 -164.1,-9.98 -197.9,-46.21 -173,-185.39 -386.9,-484.76 -389,-487.78 -12.7,-17.58 -36.3,-23.15 -55.4,-13.09 -19.1,10.14 -27.8,32.84 -20.2,53.12 l 297.4,804.81 c 4.7,12.39 40.9,117.64 -62.3,183.15 -104.9,66.53 -184.3,-0.9 -193,-8.79 -0.3,-0.29 -4.7,-4.34 -11.1,-11.94 -15,-36.97 -36.6,-66.98 -43.5,-76.02 -12.9,-17.05 -36.4,-22.04 -55.1,-11.81 -18.7,10.26 -27.2,32.67 -19.8,52.74 12.2,33.45 28.4,59.66 42.4,78.27 4.4,12.76 6.4,24.25 4.4,32.14 l -2.8,11.12 c -12.4,50.86 -26.4,108.56 -139.2,134.26 -112,25.5 -164.9,-93 -167.1,-98 l -56.5,-148.34 c -7.5,-19.91 -28.6,-31.36 -49.3,-26.87 -20.8,4.46 -35.3,23.44 -34.1,44.7 0.2,3.64 2.8,97.93 -98.7,138.21 -0.9,0.4 -1.8,0.8 -2.7,1.2 -3.5,1.5 -90.9,40.8 -166.7,-25.41 l 0,0 c 0.1,0 -28.1,-28.46 -53.4,-92.82 l -251.4,-632.99 c -6.8,-21.22 -38,-107.13 -102.8,-128.72 -21.5,-7.2 -54.9,-10.02 -92.6,16.64 -10.5,6.83 -33.5,26.34 -63,77.77 l -79.4,138.3 c -0.5,0.86 -1,1.76 -1.4,2.65 -1.2,2.21 -33.4,63.55 -114.6,72.67 -82.6,9.32 -142.3,-57.7 -142.9,-58.39 -0.6,-0.66 -1.3,-1.48 -1.9,-2.09 -2.3,-2.41 -61.7,-65.71 -26.9,-149.54 l 0,0 c 0,0 9.4,-20.93 25.2,-48.53 l 310.2,-540.33 c 6.8,-11.9 7.6,-26.3 2.1,-38.81 l -303.7,-693.75 -737.8,-1905.83 c -4.9,-12.68 -15.6,-22.29 -28.6,-25.97 -13.1,-3.64 -27.2,-0.94 -38,7.36 l -1188.1,914.93 c -18.9,14.52 -22.4,41.63 -7.8,60.52 14.5,18.89 41.6,22.41 60.5,7.85 l 1142.3,-879.68 717.7,1853.7 295.8,675.55 -299.4,521.48 c -18.6,32.26 -29.3,56.55 -29.7,57.57 -54.9,132.2 32.1,230.67 43.7,243.02 10.4,11.61 94,100.43 216.9,86.73 121.7,-13.66 174,-104.44 181.7,-118.95 l 78.9,-137.48 c 18.4,-32.1 31.4,-44.86 35.1,-48.13 1.2,-0.57 0.3,-0.32 2.4,-1.8 10.3,-7.48 14.6,-6.05 15.9,-5.64 16.4,5.4 38.6,43.51 48.4,74.3 0.3,0.98 0.6,2.04 1,3.02 l 251.9,634.34 c 33,83.76 71.6,121.16 75.9,125.16 114.5,100.1 243.3,47.4 260,39.9 53.4,-21.4 89.3,-54.4 112.7,-89.5 l 13.2,34.6 c 29.2,67.3 121.1,182.5 266.2,149.5 159.8,-36.4 188.5,-135.6 202.6,-192.7 59.3,27.8 148.1,41.2 242.1,-18.5 132.7,-84.2 121.3,-224.41 96.7,-286.81 L 15646,9168.38 c 67.6,86.24 145.6,181.52 218.1,259.13 69.7,74.74 194.7,125.94 304.5,61.86 57.7,-33.69 93.8,-79.41 107.2,-135.83 24.2,-102.19 -38.4,-200.04 -41.1,-204.13 l -390.5,-605.43 -530.8,-1453.54 -1063.7,-2713.99 c -6.7,-17.01 -22.9,-27.4 -40.2,-27.4" /></g><g
     transform="matrix(0.29002375,0,0,-0.29002375,-445.75851,4135.9013)"
     id="g110"><path
       inkscape:connector-curvature="0"
       id="path112"
       style="fill:#000000;fill-opacity:1;fill-rule:nonzero;stroke:none"
       d="m 15858.4,9276.7 c -5.3,0 -10.6,0.9 -15.9,2.84 -23.5,8.79 -35.5,34.96 -26.7,58.53 l 390.2,1047.53 c 8.7,23.5 34.9,35.5 58.5,26.7 23.5,-8.8 35.5,-35 26.7,-58.5 L 15901,9306.31 c -6.8,-18.32 -24.2,-29.61 -42.6,-29.61" /></g><g
     transform="matrix(0.28253,0,0,-0.28253,-445.75851,4135.9013)"
     id="g114"><path
       inkscape:connector-curvature="0"
       id="path116"
       style="fill:#000000;fill-opacity:1;fill-rule:nonzero;stroke:none"
       d="m 15889.8,9692.29 c -5.5,0 -11.1,0.98 -16.5,3.01 -24.1,9.07 -36.3,36.01 -27.2,60.13 l 357.5,948.67 c 9,24.1 35.9,36.3 60.1,27.2 24.1,-9.1 36.3,-36 27.2,-60.1 l -357.5,-948.69 c -7,-18.71 -24.8,-30.22 -43.6,-30.22" /></g><g
     transform="matrix(0.29166625,0,0,-0.29166625,-445.75851,4135.9013)"
     id="g118"><path
       inkscape:connector-curvature="0"
       id="path120"
       style="fill:#000000;fill-opacity:1;fill-rule:nonzero;stroke:none"
       d="m 16048.4,8998.89 c -8.8,0 -17.8,2.62 -25.6,8.02 -20.6,14.18 -25.8,42.34 -11.6,62.91 l 200.2,290.06 c 14.2,20.57 42.3,25.76 62.9,11.57 20.6,-14.19 25.7,-42.38 11.5,-62.91 l -200.1,-290.1 c -8.8,-12.69 -22.9,-19.55 -37.3,-19.55" /></g><g
     transform="matrix(0.33033875,0,0,-0.33033875,-445.75851,4135.9013)"
     id="g122"
     style="fill:#212427;fill-opacity:1"><path
       inkscape:connector-curvature="0"
       id="path124"
       style="fill:#212427;fill-opacity:1;fill-rule:nonzero;stroke:none"
       d="m 15606,8104.55 -3334,-67.54 c -145.1,-2.95 -238.6,107.05 -208.9,245.66 l 347.8,1622.27 c 29.7,138.56 171.4,253.36 316.5,256.36 l 3333.9,67.5 c 145.2,3 238.7,-107 209,-245.65 l -347.8,-1622.27 c -29.7,-138.61 -171.4,-253.37 -316.5,-256.33" /></g><g
     transform="matrix(0.3308675,0,0,-0.3308675,-445.75851,4135.9013)"
     id="g126"
     style="fill:#212427;fill-opacity:1"><path
       inkscape:connector-curvature="0"
       id="path128"
       style="fill:#212427;fill-opacity:1;fill-rule:nonzero;stroke:none"
       d="m 16041.4,10172.7 c -1.7,0 -3.3,0 -4.9,-0.1 l -3328.6,-67.4 c -127.3,-2.6 -251.9,-103.3 -277.9,-224.43 l -347.2,-1619.68 c -11.5,-53.68 -1.3,-103.33 28.9,-139.86 31.4,-38.08 81.2,-58.33 139.9,-57.2 l 3328.6,67.44 c 0.1,0 0.1,0 0.1,0 127.2,2.61 251.8,103.25 277.8,224.41 l 347.2,1619.68 c 11.5,53.64 1.3,103.34 -28.8,139.84 -30.6,37 -78.5,57.3 -135.1,57.3 z M 12246.6,7984.24 c -80.8,0 -150.4,30.49 -196.4,86.25 -46,55.69 -62.1,129.32 -45.4,207.3 l 347.2,1619.68 c 33.3,155.23 192.2,284.13 354.3,287.43 l 3328.6,67.5 c 82.9,1.7 155.8,-29 203,-86.2 46,-55.7 62.1,-129.4 45.4,-207.34 l -347.2,-1619.68 c -33.3,-155.2 -192.2,-284.14 -354.2,-287.43 l -3328.7,-67.43 c -2.2,-0.08 -4.4,-0.08 -6.6,-0.08" /></g><g
     transform="matrix(0.31755375,0,0,-0.31755375,-445.75851,4135.9013)"
     id="g130"
     style="fill:url(#linearGradient4869);fill-opacity:1"><path
       inkscape:connector-curvature="0"
       id="path132"
       style="fill:url(#linearGradient4283);fill-opacity:1;fill-rule:nonzero;stroke:none"
       d="m 16261.1,10472.2 c -3,150.9 -127.8,270.8 -278.8,267.8 l -2816.4,-57.1 -2.2,110.8 c -1.9,92.1 -78,165.2 -170.1,163.3 l -591.7,-12 c -92,-1.9 -165.1,-78 -163.2,-170 l 7.7,-379.4 c 0,-1.6 -0.1,-3.2 -0.1,-4.8 l 35.8,-1766.59 c 3.1,-150.96 127.9,-270.86 278.9,-267.79 l 3468.2,70.31 c 150.9,3.03 270.8,127.89 267.8,278.85 l -35.9,1766.62" /></g><g
     transform="matrix(0.3183725,0,0,-0.3183725,-445.75851,4135.9013)"
     id="g134"
     style="fill:#212427;fill-opacity:1"><path
       inkscape:connector-curvature="0"
       id="path136"
       style="fill:#212427;fill-opacity:1;fill-rule:nonzero;stroke:none"
       d="m 12963.7,10887.4 c -0.9,0 -1.7,0 -2.6,0 l -590.2,-11.9 c -68.8,-1.4 -123.6,-58.5 -122.3,-127.4 l 7.7,-378.3 c 0,-0.6 0,-3.1 0,-3.6 l 35.7,-1763.33 c 2.5,-127.48 108.1,-229.02 235.9,-226.5 l 3459.3,70.12 c 127.4,2.59 229,108.4 226.4,235.89 l -35.7,1762.02 c -2.6,127.5 -107.6,228.7 -235.9,226.5 l -2809.1,-56.9 c -10.1,-0.5 -21.6,3.9 -29.6,11.6 -7.8,7.6 -12.4,18 -12.7,29 l -2.2,110.6 c -1.3,67.9 -57.1,122.2 -124.7,122.2 z m -440.6,-2593.96 c -170.3,0 -310.5,136.76 -314,307.78 l -35.7,1762.08 0,4.3 -7.6,378.9 c -2.3,114.5 88.9,209.5 203.4,211.8 l 590.2,12 c 1.4,0 2.8,0 4.3,0 112.6,0 205.3,-90.4 207.6,-203.5 l 1.3,-69.1 2767.8,56.1 c 172.2,3.2 316.9,-134.5 320.4,-307.7 l 0,0 35.7,-1762.07 c 3.5,-173.15 -134.5,-316.89 -307.7,-320.42 l -3459.3,-70.09 c -2.1,-0.04 -4.3,-0.08 -6.4,-0.08" /></g><g
     transform="matrix(0.28716625,0,0,-0.28716625,-445.75851,4135.9013)"
     id="g138"><path
       inkscape:connector-curvature="0"
       id="path140"
       style="fill:#ffffff;fill-opacity:1;fill-rule:nonzero;stroke:none"
       d="m 16300,9185.9 c -138.8,166.15 -360.3,265.87 -572.8,224.61 -212.5,-41.27 -396.9,-204.59 -463.4,-410.61 l 1036.2,186" /></g><g
     transform="matrix(0.28875375,0,0,-0.28875375,-445.75851,4135.9013)"
     id="g142"
     style="fill:#212427;fill-opacity:1"><path
       inkscape:connector-curvature="0"
       id="path144"
       style="fill:#212427;fill-opacity:1;fill-rule:nonzero;stroke:none"
       d="m 15179.8,8870.44 c -8.1,0 -16.4,1.26 -24.6,3.9 -42,13.55 -65.1,58.61 -51.5,100.65 75.6,233.93 280.4,415.4 521.8,462.24 228.3,44.29 482,-54.02 646.2,-250.6 28.3,-33.9 23.8,-84.33 -10.1,-112.64 -33.9,-28.27 -84.3,-23.77 -112.6,10.13 -127.4,152.55 -321.1,229.61 -493.1,196.15 -182.2,-35.37 -342.9,-177.79 -400,-354.41 -11,-33.86 -42.3,-55.42 -76.1,-55.42" /></g><g
     transform="matrix(0.22077489,0,0,-0.25453342,-442.47051,4206.7776)"
     id="g146"
     style="fill:#212427;fill-opacity:1"><path
       inkscape:connector-curvature="0"
       id="path148"
       style="fill:#212427;fill-opacity:1;fill-rule:nonzero;stroke:none"
       d="m 9358.19,2902.59 46.87,-781 6894.94,0 -119.1,1239.05 -6822.71,-458.05" /></g><g
     transform="matrix(0.21961125,0,0,-0.21961125,-445.75851,4135.9013)"
     id="g150"
     style="fill:#212427;fill-opacity:1"><path
       inkscape:connector-curvature="0"
       id="path152"
       style="fill:#212427;fill-opacity:1;fill-rule:nonzero;stroke:none"
       d="m 16237.8,4137.54 c -31.3,0 -57.7,24.3 -59.8,56.06 l -210.6,3135.32 c -2.2,33.12 22.8,61.75 56,63.97 32.6,2.11 61.7,-22.82 63.9,-55.95 l 210.5,-3135.31 c 2.2,-33.13 -22.8,-61.76 -55.9,-63.98 -1.4,-0.06 -2.7,-0.11 -4.1,-0.11" /></g><path
     inkscape:connector-curvature="0"
     id="path154"
     style="fill:#212427;fill-opacity:1;fill-rule:nonzero;stroke:none"
     d="m 1551.1795,2173.7638 c -161.588,0 -292.588,130.9875 -292.588,292.5875 0,161.5875 131,292.5875 292.588,292.5875 l 0,-585.175" /><g
     transform="matrix(0.1317375,0,0,-0.1317375,-445.75851,4135.9013)"
     id="g156"
     style="fill:#212427;fill-opacity:1"><path
       inkscape:connector-curvature="0"
       id="path158"
       style="fill:#212427;fill-opacity:1;fill-rule:nonzero;stroke:none"
       d="M 13894.6,14467.6 8714.89,10478.8 11120.3,7355.24 16300,11344 13894.6,14467.6" /></g><g
     transform="matrix(0.1360325,0,0,-0.1360325,-445.75851,4135.9013)"
     id="g160"
     style="fill:#212427;fill-opacity:1"><path
       inkscape:connector-curvature="0"
       id="path162"
       style="fill:#212427;fill-opacity:1;fill-rule:nonzero;stroke:none"
       d="M 8049.07,7845.98 11602.5,9242.24 8829.35,16300 5275.94,14903.8 8049.07,7845.98" /></g><path
     inkscape:connector-curvature="0"
     id="path164"
     style="fill:#212427;fill-opacity:1;fill-rule:nonzero;stroke:none"
     d="m 619.42349,2946.2013 c 0,144.0375 116.766,260.8125 260.806,260.8125 144.03701,0 260.80001,-116.775 260.80001,-260.8125 0,-144.0375 -116.763,-260.8 -260.80001,-260.8 -144.04,0 -260.806,116.7625 -260.806,260.8" /><g
     transform="matrix(0.15933875,0,0,-0.15933875,-445.75851,4135.9013)"
     id="g166"><path
       inkscape:connector-curvature="0"
       id="path168"
       style="fill:#ffffff;fill-opacity:1;fill-rule:nonzero;stroke:none"
       d="m 4611.65,12409.6 c -310.02,750.9 -562.23,1546.6 -880.33,2393.3 -42.56,113.3 -160.33,427.5 -160.33,427.5 712.83,273.4 1810.06,658.1 2522.89,931.5 131.27,50.4 375.19,138.1 375.19,138.1 320.7,-751.3 812.32,-1837.4 1133.02,-2588.7 L 4611.65,12409.6" /></g><g
     transform="matrix(0.1747025,0,0,-0.1747025,-445.75851,4135.9013)"
     id="g170"><path
       inkscape:connector-curvature="0"
       id="path172"
       style="fill:#ffffff;fill-opacity:1;fill-rule:nonzero;stroke:none"
       d="m 5329.17,14373.2 -555.98,1411.2 c -66.59,176.1 22.16,372.8 198.23,439.4 l 25.47,9.6 c 176.08,66.6 372.8,-22.1 439.4,-198.2 l 555.97,-1411.2 -663.09,-250.8" /></g><g
     transform="matrix(0.16377375,0,0,-0.16377375,-445.75851,4135.9013)"
     id="g174"><path
       inkscape:connector-curvature="0"
       id="path176"
       style="fill:#ffffff;fill-opacity:1;fill-rule:nonzero;stroke:none"
       d="m 6140.15,14953.5 638.51,1112.3 c 99.98,174.1 322.2,234.2 496.35,134.2 l 25.2,-14.4 c 174.15,-100 234.29,-322.2 134.31,-496.4 l -638.51,-1112.2 -655.86,376.5" /></g><g
     transform="matrix(0.17615,0,0,-0.17615,-445.75851,4135.9013)"
     id="g178"><path
       inkscape:connector-curvature="0"
       id="path180"
       style="fill:#ffffff;fill-opacity:1;fill-rule:nonzero;stroke:none"
       d="m 4657.63,13944.7 -702.49,1843.9 c -66.05,174.6 21.97,369.8 196.6,435.8 l 25.26,9.5 c 174.63,66.1 369.74,-22 435.79,-196.6 l 702.48,-1843.9 -657.64,-248.7" /></g><g
     transform="matrix(0.1728875,0,0,-0.1728875,-445.75851,4135.9013)"
     id="g182"><path
       inkscape:connector-curvature="0"
       id="path184"
       style="fill:#ffffff;fill-opacity:1;fill-rule:nonzero;stroke:none"
       d="m 4105.91,13891.5 -691.84,1887.4 c -67.29,178 22.4,376.8 200.32,444 l 25.73,9.8 c 177.93,67.3 376.72,-22.4 444.02,-200.3 l 691.82,-1887.4 -670.05,-253.5" /></g><g
     transform="matrix(0.16359,0,0,-0.16359,-445.75851,4135.9013)"
     id="g186"><path
       inkscape:connector-curvature="0"
       id="path188"
       style="fill:#ffffff;fill-opacity:1;fill-rule:nonzero;stroke:none"
       d="m 3494.37,14738 -607.85,905 c -126.67,156.1 -102.83,385.4 53.28,512.1 l 22.58,18.3 c 156.11,126.6 385.34,102.8 512.02,-53.3 L 4477.8,14849 3494.37,14738" /></g><g
     transform="matrix(0.15951,0,0,-0.15951,-445.75851,4135.9013)"
     id="g190"><path
       inkscape:connector-curvature="0"
       id="path192"
       style="fill:#ffffff;fill-opacity:1;fill-rule:nonzero;stroke:none"
       d="m 6462.1,16282.4 c 0,0 97.21,-352.4 302.98,-126.5 l -17.51,-316.7 -120.47,-119.3 -145.04,222 -147.55,358.1 127.59,-17.6" /></g><g
     transform="matrix(0.177225,0,0,-0.177225,-445.75851,4135.9013)"
     id="g194"
     style="fill:#212427;fill-opacity:1"><path
       inkscape:connector-curvature="0"
       id="path196"
       style="fill:#212427;fill-opacity:1;fill-rule:nonzero;stroke:none"
       d="m 6014.38,14579 0,0 0,0 z m 74.51,-8415.92 c -29.77,0 -57.83,17.91 -69.35,47.26 l -1834.1,4679.76 -916.09,2508.8 -673.82,1044.6 c -4.43,6.8 -112.52,175.5 -70.73,351.8 23.08,97.3 85.3,176.2 184.92,234.4 189.35,110.4 405.02,22 525.21,-106.8 124.95,-133.9 259.6,-298.2 376.09,-447 l -336.18,909.7 c -41.84,106.1 -61.5,348 167.36,493.2 161.81,102.7 314.77,80 417.59,31.7 24.21,98.5 73.67,269.9 349.6,332.7 250.04,56.8 408.69,-141.9 457.79,-254.9 l 23.95,-62.8 c 40.45,60.6 102.34,117.5 194.41,154.4 28.85,13 250.98,103.9 446.91,-67.4 9.05,-8.3 75.64,-72.8 132.63,-217.5 l 434.38,-1094 c 0.73,-1.7 1.35,-3.5 1.89,-5.3 16.76,-53 55.09,-118.7 83.26,-128 2.37,-0.8 9.64,-3.2 27.48,9.7 3.57,2.5 2.11,2.1 4.14,3.1 6.37,5.6 28.79,27.7 60.56,83 l 136.17,237.1 c 13.16,25.1 103.37,181.7 313.4,205.2 212.21,23.4 356.21,-129.5 374.09,-149.6 20.06,-21.2 170.1,-191 76.14,-417.7 -1.42,-3.2 -19.95,-45 -51.93,-100.8 L 6408.28,13538.3 6917.17,12376 8156.31,9175.57 10126.7,10692.9 c 32.6,25.1 79.3,19.1 104.4,-13.5 25.1,-32.6 19,-79.4 -13.6,-104.4 L 8168.3,8996.84 c -18.62,-14.32 -42.88,-19.04 -65.45,-12.69 -22.64,6.34 -40.98,22.92 -49.44,44.78 l -1273.84,3290.27 -522.7,1193.7 c -9.49,21.7 -8.11,46.5 3.64,67 l 535.05,932 c 27.77,48.4 44.01,84.9 44.2,85.2 59.31,143.2 -43.07,252.3 -47.47,256.9 -0.95,0.9 -2.33,2.4 -3.24,3.5 -0.72,0.8 -103.83,116.4 -246.12,100.3 -140.1,-15.6 -195.68,-121.5 -198,-125.9 -0.55,-1.1 -1.45,-2.9 -2.07,-4 l -136.98,-238.5 c -50.92,-88.7 -90.61,-122.4 -108.67,-134.2 -65.16,-46 -122.74,-41.1 -159.8,-28.7 -111.69,37.3 -165.51,185.5 -177.26,222.1 l -433.47,1091.7 c -44.49,112.9 -93.98,161.8 -94.46,162.3 -128.33,112 -279.45,44.5 -285.77,41.6 -1.24,-0.6 -2.94,-1.4 -4.19,-1.9 -175.06,-69.4 -170.56,-232.2 -170.3,-239 1.49,-36.5 -23.66,-69 -59.39,-76.2 -36.01,-7.4 -71.48,11.9 -84.5,46 l -97.91,257 c -9.12,19.7 -102.74,210.1 -287.7,167.9 -194.59,-44.3 -218.79,-143.7 -240.16,-231.6 l -4.76,-19.1 c -3.46,-13.6 0,-33.4 7.52,-55.3 23.91,-32 51.97,-77.3 73.16,-135.2 12.69,-34.6 -1.89,-73.3 -34.24,-90.9 -32.31,-17.8 -72.76,-9 -95,20.4 -11.81,15.6 -49.1,67.3 -75.01,131.1 -10.76,12.8 -18.1,19.6 -18.32,19.8 -15.81,14.3 -152.94,130.6 -333.71,15.9 -178.05,-113 -115.58,-294.5 -107.87,-314.9 L 3927.54,14049 c 12.94,-35 -2.04,-74.2 -35,-91.6 -32.93,-17.4 -73.74,-7.8 -95.44,22.6 -3.67,5.1 -372.63,521.5 -670.98,841.4 -58.3,62.4 -204.66,159.4 -341.38,79.6 -63.93,-37.2 -101.58,-83.1 -115.07,-140.1 -26.82,-113 50.01,-235.3 50.77,-236.5 l 678.51,-1051.8 c 3.02,-4.7 5.49,-9.6 7.38,-14.8 l 918.34,-2515.1 1833.49,-4678.05 c 15.01,-38.23 -3.89,-81.47 -42.16,-96.42 -8.91,-3.53 -18.1,-5.15 -27.11,-5.15" /></g><g
     transform="matrix(0.1708675,0,0,-0.1708675,-445.75851,4135.9013)"
     id="g198"><path
       inkscape:connector-curvature="0"
       id="path200"
       style="fill:#000000;fill-opacity:1;fill-rule:nonzero;stroke:none"
       d="m 4819.73,14357.5 c -31.32,0 -60.77,19.2 -72.34,50.3 l -662.28,1777.9 c -14.89,40 5.43,84.5 45.39,99.4 39.95,14.9 84.4,-5.4 99.29,-45.5 l 662.28,-1777.9 c 14.89,-40 -5.43,-84.5 -45.38,-99.3 -8.9,-3.4 -17.99,-4.9 -26.96,-4.9" /></g><g
     transform="matrix(0.17161125,0,0,-0.17161125,-445.75851,4135.9013)"
     id="g202"><path
       inkscape:connector-curvature="0"
       id="path204"
       style="fill:#000000;fill-opacity:1;fill-rule:nonzero;stroke:none"
       d="m 5439.74,14574.4 c -31.08,0 -60.32,19 -71.92,49.9 l -588.44,1561.8 c -14.97,39.7 5.07,84 44.82,99 39.78,14.9 84.03,-5.1 99.01,-44.8 l 588.44,-1561.8 c 14.98,-39.8 -5.07,-84.1 -44.82,-99.1 -8.92,-3.4 -18.09,-5 -27.09,-5" /></g><g
     transform="matrix(0.186325,0,0,-0.186325,-445.75851,4135.9013)"
     id="g206"
     style="fill:url(#linearGradient4825);fill-opacity:1"><path
       inkscape:connector-curvature="0"
       id="path208"
       style="fill:url(#linearGradient4285);fill-opacity:1;fill-rule:nonzero;stroke:none"
       d="m 6592.35,12418.3 -3163.2,840.6 830.07,3041.1 3157.41,-861.9 -824.28,-3019.8" /></g><g
     transform="matrix(0.18716125,0,0,-0.18716125,-445.75851,4135.9013)"
     id="g210"
     style="fill:#212427;fill-opacity:1"><path
       inkscape:connector-curvature="0"
       id="path212"
       style="fill:#212427;fill-opacity:1;fill-rule:nonzero;stroke:none"
       d="m 3500.53,13249.6 3012.79,-800.7 783.61,2870.8 -3007.34,820.9 -789.06,-2891 z m 3062.38,-957.3 c -5.99,0 -12.08,0.8 -18.14,2.4 l -3149.04,836.8 c -18.13,4.9 -33.62,16.7 -42.98,33 -9.36,16.3 -11.84,35.6 -6.92,53.7 l 826.33,3027.5 c 4.93,18 16.83,33.3 33.04,42.6 16.24,9.3 35.52,11.7 53.52,6.8 l 3143.33,-858 c 18.03,-4.9 33.39,-16.8 42.61,-33.1 9.28,-16.2 11.75,-35.4 6.81,-53.5 l -820.59,-3006.3 c -8.57,-31.3 -36.96,-51.9 -67.97,-51.9" /></g><g
     transform="matrix(0.1514575,0,0,-0.1514575,-445.75851,4135.9013)"
     id="g214"><path
       inkscape:connector-curvature="0"
       id="path216"
       style="fill:#000000;fill-opacity:1;fill-rule:nonzero;stroke:none"
       d="m 4899.51,15763.3 c -26.28,0 -52.22,11.8 -69.36,34.3 l -267.55,351.1 c -29.16,38.2 -21.77,93 16.51,122.1 38.27,29.2 92.96,21.7 122.05,-16.5 l 267.54,-351.2 c 29.18,-38.2 21.78,-92.8 -16.5,-122 -15.73,-12 -34.32,-17.8 -52.69,-17.8" /></g><g
     transform="matrix(0.15196375,0,0,-0.15196375,-445.75851,4135.9013)"
     id="g218"><path
       inkscape:connector-curvature="0"
       id="path220"
       style="fill:#ffffff;fill-opacity:1;fill-rule:nonzero;stroke:none"
       d="m 4883.12,15797.6 c 262.29,313.9 680.82,502.4 1082.45,424.4 401.63,-77.9 749.97,-386.6 875.74,-775.9 l -1958.19,351.5" /></g><g
     transform="matrix(0.152775,0,0,-0.152775,-445.75851,4135.9013)"
     id="g222"><path
       inkscape:connector-curvature="0"
       id="path224"
       style="fill:#000000;fill-opacity:1;fill-rule:nonzero;stroke:none"
       d="m 6804.99,15277.7 c -36.46,0 -70.36,23.3 -82.17,59.9 -114.88,355.5 -438.55,642.3 -805.39,713.5 -348.08,67.6 -738.19,-86.6 -993.98,-392.8 -30.57,-36.6 -85.04,-41.5 -121.63,-10.9 -36.6,30.6 -41.49,85 -10.92,121.7 295.54,353.6 750.76,530.9 1159.41,451.5 433.38,-84.1 801.09,-409.9 936.86,-829.9 14.67,-45.5 -10.25,-94.1 -55.62,-108.8 -8.85,-2.8 -17.78,-4.2 -26.56,-4.2" /></g><g
     transform="matrix(0.170635,0,0,-0.170635,-445.75851,4135.9013)"
     id="g226"
     style="fill:#212427;fill-opacity:1"><path
       inkscape:connector-curvature="0"
       id="path228"
       style="fill:#212427;fill-opacity:1;fill-rule:nonzero;stroke:none"
       d="m 14082.3,15220.9 c 0,-596 -483.2,-1079.2 -1079.1,-1079.2 -596,0 -1079.1,483.2 -1079.1,1079.2 0,596 483.1,1079.1 1079.1,1079.1 595.9,0 1079.1,-483.1 1079.1,-1079.1" /></g><g
     transform="matrix(0.1926825,0,0,-0.1926825,-445.75851,4135.9013)"
     id="g230"
     style="fill:#212427;fill-opacity:1"><path
       inkscape:connector-curvature="0"
       id="path232"
       style="fill:#212427;fill-opacity:1;fill-rule:nonzero;stroke:none"
       d="m 13182.7,15169.4 c 0,-624.4 -506.2,-1130.5 -1130.6,-1130.5 -624.4,0 -1130.6,506.1 -1130.6,1130.5 0,624.5 506.2,1130.6 1130.6,1130.6 624.4,0 1130.6,-506.1 1130.6,-1130.6" /></g><g
     transform="matrix(0.2073475,0,0,-0.2073475,-445.75851,4135.9013)"
     id="g234"
     style="fill:#212427;fill-opacity:1"><path
       inkscape:connector-curvature="0"
       id="path236"
       style="fill:#212427;fill-opacity:1;fill-rule:nonzero;stroke:none"
       d="m 13828.1,15198.3 c 0,-608.5 -493.2,-1101.7 -1101.7,-1101.7 -608.4,0 -1101.6,493.2 -1101.6,1101.7 0,608.5 493.2,1101.7 1101.6,1101.7 608.5,0 1101.7,-493.2 1101.7,-1101.7" /></g><g
     transform="matrix(0.19736375,0,0,-0.19736375,-445.75851,4135.9013)"
     id="g238"
     style="fill:#212427;fill-opacity:1"><path
       inkscape:connector-curvature="0"
       id="path240"
       style="fill:#212427;fill-opacity:1;fill-rule:nonzero;stroke:none"
       d="m 15675.3,15442.6 c 0,-473.5 -383.8,-857.4 -857.4,-857.4 -473.5,0 -857.4,383.9 -857.4,857.4 0,473.5 383.9,857.4 857.4,857.4 473.6,0 857.4,-383.9 857.4,-857.4" /></g><g
     transform="matrix(0.186385,0,0,-0.186385,-445.75851,4135.9013)"
     id="g242"
     style="fill:#212427;fill-opacity:1"><path
       inkscape:connector-curvature="0"
       id="path244"
       style="fill:#212427;fill-opacity:1;fill-rule:nonzero;stroke:none"
       d="m 14338.3,15682 c 0,-341.3 -276.7,-618 -618,-618 -341.3,0 -617.9,276.7 -617.9,618 0,341.3 276.6,618 617.9,618 341.3,0 618,-276.7 618,-618" /></g><g
     transform="matrix(0.15607625,0,0,-0.15607625,-445.75851,4135.9013)"
     id="g246"
     style="fill:#212427;fill-opacity:1"><path
       inkscape:connector-curvature="0"
       id="path248"
       style="fill:#212427;fill-opacity:1;fill-rule:nonzero;stroke:none"
       d="m 16074.1,15343.6 c 0,-528.2 -428.2,-956.4 -956.4,-956.4 -528.2,0 -956.4,428.2 -956.4,956.4 0,528.2 428.2,956.4 956.4,956.4 528.2,0 956.4,-428.2 956.4,-956.4" /></g><g
     transform="matrix(0.16923125,0,0,-0.16923125,-445.75851,4135.9013)"
     id="g250"><path
       inkscape:connector-curvature="0"
       id="path252"
       style="fill:#ffffff;fill-opacity:1;fill-rule:nonzero;stroke:none"
       d="m 15007.9,15627 c 25.8,-383.3 -264.1,-714.9 -647.3,-740.6 -383.3,-25.8 -714.9,264.1 -740.6,647.3 -25.8,383.3 264.1,714.9 647.3,740.6 383.3,25.7 714.9,-264.1 740.6,-647.3" /></g><g
     transform="matrix(0.163885,0,0,-0.163885,-445.75851,4135.9013)"
     id="g254"
     style="fill:#212427;fill-opacity:1"><path
       inkscape:connector-curvature="0"
       id="path256"
       style="fill:#212427;fill-opacity:1;fill-rule:nonzero;stroke:none"
       d="m 14936.2,15771 c -259.8,0 -519.5,164 -613.9,408.9 -16,41.5 4.7,88.1 46.1,104.1 41.6,16 88.1,-4.7 104.1,-46.2 83.8,-217.3 354.3,-353 578.4,-290.5 42.8,12.1 87.2,-13 99.1,-55.8 12,-42.9 -13,-87.3 -55.9,-99.2 -51.7,-14.5 -104.8,-21.3 -157.9,-21.3" /></g><g
     transform="matrix(0.17437875,0,0,-0.17437875,-445.75851,4135.9013)"
     id="g258"><path
       inkscape:connector-curvature="0"
       id="path260"
       style="fill:#ffffff;fill-opacity:1;fill-rule:nonzero;stroke:none"
       d="m 5606.44,15888.4 261.15,309.9 c 85.7,101.7 250.85,61 279.46,-68.9 l 87.15,-395.8 c 11.36,-51.6 47.38,-94.2 96.31,-114.2 l 375.46,-152.5 c 123.23,-50.1 135.54,-219.8 20.84,-287.1 l -349.49,-205.2 c -45.55,-26.8 -75.03,-74.2 -78.82,-126.9 l -29.1,-404.2 c -9.54,-132.7 -167.08,-196.8 -266.58,-108.5 l -303.15,268.9 c -39.51,35.1 -93.74,48.5 -145.02,35.8 l -393.44,-97.2 c -129.14,-32 -238.81,98 -185.59,220 l 162.12,371.4 c 21.14,48.4 17.09,104.1 -10.81,148.9 l -214.06,344.2 c -70.26,112.9 19.5,257.4 151.88,244.5 l 403.36,-39.4 c 52.57,-5.2 104.3,15.9 138.33,56.3" /></g><g
     transform="matrix(0.17487,0,0,-0.17487,-445.75851,4135.9013)"
     id="g262"
     style="fill:#212427;fill-opacity:1"><path
       inkscape:connector-curvature="0"
       id="path264"
       style="fill:#212427;fill-opacity:1;fill-rule:nonzero;stroke:none"
       d="m 5590.72,15843.8 0.37,0 -0.37,0 z m -13.26,-1165.1 c 56.99,0 112.71,-20.6 156.29,-59.3 l 302.29,-268.3 c 24.61,-21.8 57.46,-27.4 88.03,-15.1 30.5,12.5 50.13,39.5 52.49,72.4 l 29.03,403.1 c 5.52,77.2 48.76,146.9 115.62,186.1 l 348.52,204.7 c 28.4,16.6 43.94,46.2 41.54,79 -2.39,32.9 -22.02,59.8 -52.52,72.3 l -374.42,152.1 c -71.82,29.2 -124.68,91.8 -141.29,167.5 l -86.92,394.7 c -7.08,32.2 -30.39,56.1 -62.37,64 -31.89,7.8 -63.72,-2.4 -84.97,-27.7 l -260.38,-309 0,0 c -49.94,-59.3 -125.6,-90.2 -202.99,-82.6 l -402.22,39.3 c -33.04,3.2 -62.73,-11.7 -80.11,-39.6 -17.35,-28 -17.35,-61.4 0.04,-89.3 l 213.48,-343.2 c 40.96,-65.8 46.89,-147.5 15.88,-218.6 l -161.7,-370.4 c -13.15,-30.2 -8.36,-63.2 12.89,-88.4 21.25,-25.1 52.86,-35.4 84.97,-27.5 l 392.32,97 c 18.67,4.5 37.68,6.8 56.5,6.8 z m 514.24,-499.9 c -56.4,0 -111.72,20.3 -155.78,59.5 l -302.32,268.2 c -20.81,18.5 -49.4,25.5 -76.47,18.9 l -392.31,-97 c -87.63,-21.7 -178.21,7.7 -236.48,76.8 -58.19,68.9 -71.93,163.2 -35.83,246 l 161.7,370.4 c 11.12,25.5 8.98,54.8 -5.71,78.5 l -213.49,343.2 c -47.7,76.6 -47.7,171.9 -0.07,248.6 47.62,76.7 133.22,118.8 222.91,110.1 l 402.22,-39.3 c 27.92,-2.7 55,8.4 72.98,29.7 l 260.37,309 c 58.2,69.2 148.99,98.6 236.47,76.9 87.67,-21.5 154.15,-89.7 173.56,-177.9 l 86.93,-394.7 c 5.96,-27.2 24.97,-49.8 50.75,-60.2 l 374.42,-152.2 c 83.64,-33.9 139.67,-111 146.18,-201.1 6.56,-90 -37.75,-174.4 -115.61,-220 l -348.52,-204.7 c -24.02,-14.1 -39.53,-39.1 -41.51,-66.8 l -29.03,-403.2 c -6.51,-90.1 -62.51,-167.1 -146.12,-201.2 -29.02,-11.8 -59.29,-17.5 -89.24,-17.5" /></g><g
     transform="matrix(0.25316,0,0,-0.25316,-445.75851,4135.9013)"
     id="g266"><path
       inkscape:connector-curvature="0"
       id="path268"
       style="fill:#ffffff;fill-opacity:1;fill-rule:nonzero;stroke:none"
       d="m 8598.91,13536.2 2647.99,633.6 c 80,19.1 129.4,99.5 110.2,179.5 l -435.7,1821.3 c -19.2,80.1 -99.6,129.4 -179.6,110.3 l -2648.06,-633.7 c -79.98,-19.1 -129.36,-99.5 -110.2,-179.5 l 435.79,-1821.3 c 19.16,-80 99.54,-129.4 179.58,-110.2" /></g><g
     transform="matrix(0.25384375,0,0,-0.25384375,-445.75851,4135.9013)"
     id="g270"
     style="fill:#212427;fill-opacity:1"><path
       inkscape:connector-curvature="0"
       id="path272"
       style="fill:#212427;fill-opacity:1;fill-rule:nonzero;stroke:none"
       d="m 10747.6,16189.1 c -7.5,0 -15.1,-0.9 -22.6,-2.7 l -2640.95,-631.9 c -51.81,-12.3 -83.86,-64.6 -71.45,-116.4 l 434.61,-1816.4 c 6.01,-25.1 21.42,-46.3 43.39,-59.8 21.96,-13.5 47.86,-17.6 73.02,-11.7 l 0,0 2640.88,631.9 c 51.8,12.4 83.9,64.7 71.5,116.5 l -434.6,1816.4 c -6,25.1 -21.5,46.3 -43.4,59.8 -15.4,9.5 -32.8,14.3 -50.4,14.3 z M 8540.78,13443.6 c -36.59,0 -72.54,10.1 -104.55,29.7 -45.64,28 -77.65,72.1 -90.11,124.2 l -434.62,1816.4 c -25.7,107.6 40.82,216 148.37,241.7 l 2640.93,631.9 c 52.1,12.5 105.9,3.9 151.5,-24.1 45.7,-28 77.7,-72.2 90.1,-124.2 l 434.7,-1816.5 c 25.7,-107.5 -40.9,-215.9 -148.4,-241.6 l -2640.9,-631.9 c -15.61,-3.8 -31.37,-5.6 -47.02,-5.6" /></g><g
     transform="matrix(0.23424125,0,0,-0.23424125,-445.75851,4135.9013)"
     id="g274"
     style="fill:url(#linearGradient4835);fill-opacity:1"><path
       inkscape:connector-curvature="0"
       id="path276"
       style="fill:url(#linearGradient4287);fill-opacity:1;fill-rule:nonzero;stroke:none"
       d="m 11990.6,15274.8 -1001.5,928.8 -236.3,-640.8 -794.81,737.2 -611.34,-1657.8 1906.95,456.2 -0.1,0 737.1,176.4" /></g><g
     transform="matrix(0.23509125,0,0,-0.23509125,-445.75851,4135.9013)"
     id="g278"
     style="fill:#212427;fill-opacity:1"><path
       inkscape:connector-curvature="0"
       id="path280"
       style="fill:#212427;fill-opacity:1;fill-rule:nonzero;stroke:none"
       d="m 9945.57,16142.8 -543.78,-1474.5 2430.41,581.5 -859.3,796.9 -206.3,-559.5 c -6.5,-17.6 -21.3,-30.8 -39.6,-35.1 -18.2,-4.4 -37.5,0.6 -51.2,13.4 l -730.23,677.3 z m -632.73,-1609.6 c -15.8,0 -31.16,6.7 -41.9,18.8 -13.77,15.5 -17.87,37.3 -10.69,56.7 l 609.13,1651.8 c 6.48,17.6 21.37,30.8 39.56,35.2 18.23,4.3 37.48,-0.7 51.25,-13.4 l 730.21,-677.3 206.4,559.5 c 6.4,17.6 21.3,30.8 39.6,35.1 18.2,4.3 37.4,-0.6 51.2,-13.4 l 997.8,-925.5 c 15.2,-14 21.4,-35.3 16.1,-55.3 -5.2,-20 -21.1,-35.5 -41.2,-40.4 l -2634.38,-630.3 c -4.36,-1 -8.72,-1.5 -13.08,-1.5" /></g><g
     transform="matrix(0.2476525,0,0,-0.2476525,-445.75851,4135.9013)"
     id="g282"
     style="fill:url(#linearGradient4833);fill-opacity:1"><path
       inkscape:connector-curvature="0"
       id="path284"
       style="fill:url(#linearGradient4289);fill-opacity:1;fill-rule:nonzero;stroke:none"
       d="m 10860.2,16062.6 c 35.1,-146.8 -55.5,-294.4 -202.3,-329.5 -146.9,-35.1 -294.4,55.4 -329.5,202.3 -35.2,146.8 55.4,294.3 202.2,329.5 146.9,35.1 294.4,-55.5 329.6,-202.3" /></g><g
     transform="matrix(0.24821375,0,0,-0.24821375,-445.75851,4135.9013)"
     id="g286"
     style="fill:#212427;fill-opacity:1"><path
       inkscape:connector-curvature="0"
       id="path288"
       style="fill:#212427;fill-opacity:1;fill-rule:nonzero;stroke:none"
       d="m 10570.3,16182.4 c -16.9,0 -34,-1.9 -51.1,-6 -117.8,-28.2 -190.7,-147 -162.5,-264.7 28.2,-117.8 147.2,-190.7 264.7,-162.5 117.8,28.2 190.7,146.9 162.5,264.7 -24.1,100.7 -114.3,168.5 -213.6,168.5 z m -0.6,-545.7 c -59.5,0 -117.9,16.4 -169.9,48.3 -74.2,45.6 -126.2,117.3 -146.5,201.9 -20.2,84.7 -6.3,172.2 39.2,246.4 45.5,74.2 117.3,126.2 201.9,146.5 84.7,20.2 172.1,6.3 246.4,-39.3 74.2,-45.5 126.2,-117.2 146.5,-201.9 l 0,0 c 41.8,-174.8 -66.4,-351 -241.2,-392.8 -25.3,-6.1 -51,-9.1 -76.4,-9.1" /></g><g
     transform="matrix(0.22183125,0,0,-0.22183125,-445.75851,4135.9013)"
     id="g290"
     style="fill:#212427;fill-opacity:1"><path
       inkscape:connector-curvature="0"
       id="path292"
       style="fill:#212427;fill-opacity:1;fill-rule:nonzero;stroke:none"
       d="m 7413.12,15966.2 c -25.13,0 -48.46,16 -56.57,41.2 -10.14,31.2 6.99,64.7 38.26,74.9 286.59,92.7 580.85,164.2 874.6,212.4 32.68,5.3 63,-16.6 68.35,-49 5.3,-32.4 -16.68,-63 -49.08,-68.3 -287.89,-47.3 -576.28,-117.4 -857.24,-208.3 -6.09,-2 -12.28,-2.9 -18.32,-2.9 z m -1593.6,-787.7 c -18.88,0 -37.42,8.9 -48.97,25.6 -18.65,27.1 -11.89,64.1 15.16,82.8 246.07,170 506.97,323.5 775.53,456.3 29.53,14.6 65.14,2.4 79.68,-27 14.54,-29.4 2.53,-65.1 -26.94,-79.6 -263.43,-130.3 -519.37,-280.9 -760.71,-447.6 -10.31,-7.1 -22.09,-10.5 -33.75,-10.5 z M 4523.08,13962.8 c -12.87,0 -25.79,4.1 -36.67,12.6 -25.84,20.3 -30.35,57.7 -10.08,83.5 183.51,234 388.21,457.2 608.48,663.4 23.96,22.4 61.62,21.2 84.06,-2.8 22.44,-23.9 21.2,-61.6 -2.76,-84 -215.85,-202.1 -416.43,-420.8 -596.22,-650 -11.73,-14.9 -29.19,-22.7 -46.81,-22.7" /></g><g
     transform="matrix(0.282515,0,0,-0.282515,-445.75851,4135.9013)"
     id="g294"
     style="fill:#212427;fill-opacity:1"><path
       inkscape:connector-curvature="0"
       id="path296"
       style="fill:#212427;fill-opacity:1;fill-rule:nonzero;stroke:none"
       d="m 12059.4,13932.5 c -23.9,0 -44.2,18.2 -46.5,42.4 -2.4,25.7 16.5,48.4 42.2,50.8 163.3,15.1 325.7,22.7 482.8,22.7 0.1,0 0.2,0 0.4,0 74.3,0 149.3,-1.7 222.8,-5 25.8,-1.2 45.7,-23 44.5,-48.8 -1.2,-25.8 -22.9,-45.6 -48.8,-44.5 -72,3.3 -145.6,5 -218.5,5 -0.2,0 -0.3,0 -0.4,0 -154.2,0 -313.7,-7.6 -474.2,-22.4 -1.4,-0.1 -2.9,-0.2 -4.3,-0.2 z m 2074.7,-231.1 c -3.8,0 -7.7,0.4 -11.6,1.4 l -136,34.8 c -79.5,20.2 -160,40.8 -241.7,61.9 -100,25.8 -200.9,48.8 -300,68 -25.4,5 -41.9,29.5 -36.9,54.8 4.9,25.3 29.5,41.8 54.7,36.9 101,-19.6 203.8,-43 305.6,-69.3 81.5,-21.1 162,-41.6 241.3,-61.8 l 136.1,-34.8 c 25,-6.4 40.1,-31.8 33.7,-56.8 -5.4,-21.1 -24.4,-35.1 -45.2,-35.1 z m -3446.9,-39.9 c -20.4,0 -39.1,13.5 -44.9,34 -7,24.9 7.4,50.7 32.3,57.7 244.2,68.9 467.8,123.7 683.3,167.6 25.3,5.1 49.9,-11.2 55.1,-36.5 5.1,-25.3 -11.2,-49.9 -36.5,-55.1 -213.2,-43.3 -434.5,-97.6 -676.6,-165.9 -4.2,-1.2 -8.5,-1.8 -12.7,-1.8 z m 4778.5,-387.8 c -6.4,0 -12.8,1.3 -19,4.1 -193.1,86.1 -406.1,164.6 -651.2,239.9 -24.6,7.6 -38.4,33.7 -30.9,58.4 7.6,24.7 33.8,38.5 58.4,30.9 248.7,-76.5 465.2,-156.3 661.8,-244 23.5,-10.5 34,-38.1 23.6,-61.6 -7.8,-17.4 -24.9,-27.7 -42.7,-27.7 z m 781.4,-455.8 c -9.7,0 -19.4,3 -27.8,9.2 -54.6,40.6 -110.6,80.2 -166.7,117.6 -21.5,14.4 -27.2,43.4 -12.9,64.8 14.3,21.5 43.3,27.2 64.7,12.9 57.5,-38.3 114.8,-78.8 170.6,-120.3 20.7,-15.4 25,-44.7 9.6,-65.4 -9.2,-12.3 -23.2,-18.8 -37.5,-18.8" /></g></svg>