<?xml version="1.0" encoding="UTF-8" standalone="no"?>
<svg
   xmlns:dc="http://purl.org/dc/elements/1.1/"
   xmlns:cc="http://creativecommons.org/ns#"
   xmlns:rdf="http://www.w3.org/1999/02/22-rdf-syntax-ns#"
   xmlns:svg="http://www.w3.org/2000/svg"
   xmlns="http://www.w3.org/2000/svg"
   xmlns:xlink="http://www.w3.org/1999/xlink"
   xmlns:sodipodi="http://sodipodi.sourceforge.net/DTD/sodipodi-0.dtd"
   xmlns:inkscape="http://www.inkscape.org/namespaces/inkscape"
   viewBox="0 0 4080.1174 3481.6343"
   height="3481.6343"
   width="4080.1174"
   xml:space="preserve"
   version="1.1"
   id="svg2"
   inkscape:version="0.91 r13725"
   sodipodi:docname="text-image1.svg"><sodipodi:namedview
     pagecolor="#ffffff"
     bordercolor="#666666"
     borderopacity="1"
     objecttolerance="10"
     gridtolerance="10"
     guidetolerance="10"
     inkscape:pageopacity="0"
     inkscape:pageshadow="2"
     inkscape:window-width="2560"
     inkscape:window-height="1026"
     id="namedview125"
     showgrid="false"
     fit-margin-top="0"
     fit-margin-left="0"
     fit-margin-right="0"
     fit-margin-bottom="0"
     inkscape:zoom="0.054297341"
     inkscape:cx="-7150.0843"
     inkscape:cy="1810.2905"
     inkscape:window-x="0"
     inkscape:window-y="0"
     inkscape:window-maximized="1"
     inkscape:current-layer="svg2" /><metadata
     id="metadata8"><rdf:RDF><cc:Work
         rdf:about=""><dc:format>image/svg+xml</dc:format><dc:type
           rdf:resource="http://purl.org/dc/dcmitype/StillImage" /><dc:title></dc:title></cc:Work></rdf:RDF></metadata><defs
     id="defs6"><linearGradient
       gradientTransform="matrix(1.25,0,0,-1.25,-1040.3446,2380.8448)"
       xlink:href="#linearGradient5693"
       id="linearGradient5723"
       x1="1167.108"
       y1="1186.6345"
       x2="1234.762"
       y2="1186.6345"
       gradientUnits="userSpaceOnUse" /><linearGradient
       id="linearGradient5693"><stop
         style="stop-color:#8443d6;stop-opacity:1"
         offset="0"
         id="stop5695" /><stop
         style="stop-color:#44ced3;stop-opacity:1"
         offset="1"
         id="stop5697" /></linearGradient><linearGradient
       gradientUnits="userSpaceOnUse"
       y2="3509.79"
       x2="16300"
       y1="3509.79"
       x1="8862.1699"
       id="linearGradient4523"
       xlink:href="#linearGradient5693" /><linearGradient
       gradientUnits="userSpaceOnUse"
       y2="6471.6099"
       x2="16300"
       y1="6471.6099"
       x1="14692.1"
       id="linearGradient4539"
       xlink:href="#linearGradient5693" /><linearGradient
       inkscape:collect="always"
       xlink:href="#linearGradient5693"
       id="linearGradient4253"
       gradientUnits="userSpaceOnUse"
       x1="8862.1699"
       y1="3509.79"
       x2="16300"
       y2="3509.79" /><linearGradient
       inkscape:collect="always"
       xlink:href="#linearGradient5693"
       id="linearGradient4255"
       gradientUnits="userSpaceOnUse"
       x1="14692.1"
       y1="6471.6099"
       x2="16300"
       y2="6471.6099" /></defs><g
     transform="matrix(0.23428125,0,0,-0.23428125,-713.8348,3881.3967)"
     id="g18"
     style="fill:#212427;fill-opacity:1"><path
       inkscape:connector-curvature="0"
       id="path20"
       style="fill:#212427;fill-opacity:1;fill-rule:nonzero;stroke:none"
       d="m 11170.1,10000.3 c 0,0 1553.1,-297.28 1553.1,-1330.07 l -4.3,-2139.78 c -0.4,-282.73 186.4,-534.03 459.2,-608.51 8.9,-2.46 17.9,-4.75 27,-6.89 393.3,-94.01 769.5,211.93 769.5,616.41 l 0,4047.04 2325.4,0 0,-6162.55 c 0,-861.84 -698.7,-1560.52 -1560.5,-1560.52 l -2016.3,0 -1553.1,7144.87" /></g><g
     transform="matrix(0.16379375,0,0,-0.16379375,-713.8348,3881.3967)"
     id="g22"><path
       inkscape:connector-curvature="0"
       id="path24"
       style="fill:#ffffff;fill-opacity:1;fill-rule:nonzero;stroke:none"
       d="m 10623.8,13961.8 1968.9,0 0,2338.2 -1968.9,0 0,-2338.2" /></g><g
     transform="matrix(0.1648,0,0,-0.1648,-713.8348,3881.3967)"
     id="g26"><path
       inkscape:connector-curvature="0"
       id="path28"
       style="fill:#000000;fill-opacity:1;fill-rule:nonzero;stroke:none"
       d="m 10658.5,13976.2 1757.6,0 0,2124.5 -1757.6,0 0,-2124.5 z m 1857.2,-199.3 -1956.9,0 c -55,0 -99.6,44.6 -99.6,99.6 l 0,2323.9 c 0,55 44.6,99.6 99.6,99.6 l 1956.9,0 c 55,0 99.6,-44.6 99.6,-99.6 l 0,-2323.9 c 0,-55 -44.6,-99.6 -99.6,-99.6" /></g><g
     transform="matrix(0.209885,0,0,-0.209885,-713.8348,3881.3967)"
     id="g30"
     style="fill:#212427;fill-opacity:1"><path
       inkscape:connector-curvature="0"
       id="path32"
       style="fill:#212427;fill-opacity:1;fill-rule:nonzero;stroke:none"
       d="m 12429.6,14887 c 0,-780.4 -632.6,-1413 -1413,-1413 -780.4,0 -1412.98,632.6 -1412.98,1413 0,780.4 632.58,1413 1412.98,1413 780.4,0 1413,-632.6 1413,-1413" /></g><g
     transform="matrix(0.19056,0,0,-0.19056,-713.8348,3881.3967)"
     id="g34"
     style="fill:#212427;fill-opacity:1"><path
       inkscape:connector-curvature="0"
       id="path36"
       style="fill:#212427;fill-opacity:1;fill-rule:nonzero;stroke:none"
       d="m 12782.2,14933.6 c 0,-754.6 -611.8,-1366.4 -1366.5,-1366.4 -754.6,0 -1366.3,611.8 -1366.3,1366.4 0,754.7 611.7,1366.4 1366.3,1366.4 754.7,0 1366.5,-611.7 1366.5,-1366.4" /></g><g
     transform="matrix(0.23489625,0,0,-0.23489625,-713.8348,3881.3967)"
     id="g38"><path
       inkscape:connector-curvature="0"
       id="path40"
       style="fill:#ffffff;fill-opacity:1;fill-rule:nonzero;stroke:none"
       d="m 16292.9,10321.3 c 7.1,589.3 -36.7,1193.3 -49.9,1849.4 -1.8,87.7 -6.9,331.1 -6.9,331.1 -553.8,-7.3 -1396.5,-42.9 -1950.4,-50.2 -102,-1.3 -290,-7.7 -290,-7.7 -14.2,-592.5 -53.6,-1456.5 -67.9,-2048.9 l 2365.1,-73.7" /></g><g
     transform="matrix(0.20986375,0,0,-0.20986375,-713.8348,3881.3967)"
     id="g42"><path
       inkscape:connector-curvature="0"
       id="path44"
       style="fill:#ffffff;fill-opacity:1;fill-rule:nonzero;stroke:none"
       d="m 16300,13708.4 -5.5,1350.5 c -3.1,167.5 -141.3,301 -308.9,298 l -24.2,-0.5 c -167.6,-3 -301,-141.2 -298.1,-308.8 l 5.6,-1350.4 631.1,11.2" /></g><g
     transform="matrix(0.2068275,0,0,-0.2068275,-713.8348,3881.3967)"
     id="g46"><path
       inkscape:connector-curvature="0"
       id="path48"
       style="fill:#ffffff;fill-opacity:1;fill-rule:nonzero;stroke:none"
       d="m 16300,13468.9 -851.2,674.7 c -133.3,105.6 -327,83.2 -432.6,-50.1 l -15.3,-19.3 c -105.6,-133.2 -83.2,-326.9 50.1,-432.6 l 851.1,-674.6 397.9,501.9" /></g><g
     transform="matrix(0.21793375,0,0,-0.21793375,-713.8348,3881.3967)"
     id="g50"><path
       inkscape:connector-curvature="0"
       id="path52"
       style="fill:#ffffff;fill-opacity:1;fill-rule:nonzero;stroke:none"
       d="m 16300,13152.6 -26.3,1705.6 c -3,161.4 -136.1,289.8 -297.4,287 l -23.4,-0.5 c -161.4,-2.8 -289.8,-136 -287,-297.4 l 26.4,-1705.5 607.7,10.8" /></g><g
     transform="matrix(0.22600125,0,0,-0.22600125,-713.8348,3881.3967)"
     id="g54"><path
       inkscape:connector-curvature="0"
       id="path56"
       style="fill:#ffffff;fill-opacity:1;fill-rule:nonzero;stroke:none"
       d="m 16300,12636.6 -46.2,1644 c -2.8,155.6 -131.2,279.5 -286.8,276.7 l -22.5,-0.4 c -155.6,-2.8 -279.5,-131.2 -276.7,-286.8 l 46.2,-1644 586,10.5" /></g><g
     transform="matrix(0.23730375,0,0,-0.23730375,-713.8348,3881.3967)"
     id="g58"><path
       inkscape:connector-curvature="0"
       id="path60"
       style="fill:#ffffff;fill-opacity:1;fill-rule:nonzero;stroke:none"
       d="m 16086.7,12304.4 169.2,785.8 c 44.1,141.5 -34.9,292 -176.3,336.1 l -20.5,6.4 c -141.5,44.2 -292,-34.8 -336.1,-176.3 l -340.1,-1144.4 703.8,192.4" /></g><g
     transform="matrix(0.2378075,0,0,-0.2378075,-713.8348,3881.3967)"
     id="g62"
     style="fill:#212427;fill-opacity:1"><path
       inkscape:connector-curvature="0"
       id="path64"
       style="fill:#212427;fill-opacity:1;fill-rule:nonzero;stroke:none"
       d="m 16077.8,10126.4 c -37.3,0 -68,29.6 -69.1,67 l -56.4,1923 c -0.2,5.1 0.3,10.3 1.2,15.3 l 191.8,978.8 c 0.1,0.6 12.7,68.5 -7,133.4 -20.4,67 -66,103.5 -143.6,115.1 -35.2,5.3 -69.1,-0.5 -101.3,-17.3 -1,-0.5 -2,-1 -3,-1.5 -57.8,-31.3 -96.9,-89.9 -114.4,-134.8 -99.8,-256.4 -195,-612.3 -231.2,-753.4 -6.2,-24.1 -11.1,-96.7 -12.5,-140.5 -1.3,-37.2 -31.8,-66.7 -69.1,-66.7 -0.1,0 -0.2,0 -0.2,0 -37.4,0.1 -67.8,29.9 -68.8,67.2 l -32.3,1267.5 c 0,1.9 -2.7,97 -72.9,153 -0.2,0.2 -0.4,0.3 -0.6,0.5 -0.1,0.1 -0.2,0.1 -0.2,0.2 -24.4,19.2 -55.1,32.3 -91.2,39.1 -157.7,29.9 -213.9,-88.7 -219.9,-102.2 -0.5,-1.2 -1.3,-3.1 -1.9,-4.3 -0.1,-0.1 -2.1,-4.5 -2.1,-4.6 -2,-4.3 -5.1,-11 -7.8,-20.6 -2.4,-7.7 -5.6,-23.6 -6.5,-53.8 0.2,-23.1 0.2,-38.7 0.2,-38.7 0,-37.8 -30.3,-68.5 -68.1,-69.1 -0.3,0 -0.7,0 -1,0 -37.3,0 -67.9,29.6 -69,67 -0.5,15 -0.5,29.1 -0.2,42.3 -0.1,19.9 -0.3,45.2 -0.6,70.6 -0.3,32.9 -7.7,44.6 -9.2,46.6 l -9.5,13.2 c -17.2,24.2 -35,49.1 -60.3,68 -41.6,31.1 -99.1,40.3 -176.1,28.2 -141.2,-22.2 -154.1,-182.2 -155.1,-199.9 l 3.3,-218.6 c 0.7,-38.1 -29.8,-69.5 -67.9,-70.1 -37,-1.7 -69.5,29.8 -70.2,67.9 l -3.4,220.9 c 3.1,104.1 63.9,303.6 271.9,336.2 115.6,18.2 207.2,0.6 280,-53.8 37.5,-28 63.3,-61.2 82.6,-87.9 61.3,66.8 165.7,126.9 316.3,98.5 58.4,-11 109.5,-33.5 151.5,-66.7 0.3,-0.3 0.6,-0.5 0.9,-0.7 0.1,-0.1 0.2,-0.2 0.3,-0.3 122.7,-98 124.8,-252.3 124.8,-258.8 l 18,-710.2 c 38.8,128.9 83.4,266.4 129.3,384.1 34.8,89.4 102.8,167.4 181.9,208.7 l 0,-0.1 c 1.1,0.6 2.1,1.1 3.1,1.6 57.9,29.4 119.4,39.6 182.9,29.9 128.9,-19.3 219.6,-94.4 255.2,-211.5 29.6,-97.3 12.5,-190.2 10.4,-200.4 l -190.2,-971 56.2,-1915.2 c 1.1,-38.2 -28.9,-70 -66.9,-71.1 -0.8,0 -1.5,0 -2.1,0" /></g><g
     transform="matrix(0.23569375,0,0,-0.23569375,-713.8348,3881.3967)"
     id="g66"
     style="fill:#212427;fill-opacity:1"><path
       inkscape:connector-curvature="0"
       id="path68"
       style="fill:#212427;fill-opacity:1;fill-rule:nonzero;stroke:none"
       d="m 16230.1,9679.27 c -38.3,0 -69.4,30.91 -69.7,69.26 l -2.1,332.67 -5.9,203.6 c -1.2,38.5 29.1,70.6 67.6,71.7 39.8,1.2 70.5,-29.1 71.7,-67.6 l 6.1,-212.1 2,-327.42 c 0.2,-38.51 -30.8,-69.9 -69.3,-70.11 -0.1,0 -0.2,0 -0.4,0" /></g><g
     transform="matrix(0.20184125,0,0,-0.20184125,-713.8348,3881.3967)"
     id="g70"
     style="fill:#212427;fill-opacity:1"><path
       inkscape:connector-curvature="0"
       id="path72"
       style="fill:#212427;fill-opacity:1;fill-rule:nonzero;stroke:none"
       d="m 16218.2,9225.19 c -44.6,0 -81,35.92 -81.4,80.58 l -26.6,2647.73 c -0.4,44.9 35.6,81.6 80.5,82.1 44,-0.2 81.8,-35.6 82.2,-80.5 l 26.7,-2647.72 c 0.4,-44.9 -35.6,-81.69 -80.6,-82.19 -0.3,0 -0.6,0 -0.8,0" /></g><g
     transform="matrix(0.21028125,0,0,-0.21406601,-713.8348,3939.7411)"
     id="g74"
     style="fill:#212427;fill-opacity:1"><path
       inkscape:connector-curvature="0"
       id="path76"
       style="fill:#212427;fill-opacity:1;fill-rule:nonzero;stroke:none"
       d="m 15540.2,11544.6 c -0.8,0 -1.7,0 -2.6,0 -43.1,1.5 -76.9,37.6 -75.4,80.8 l 37.9,1137.3 -728.4,577.3 c -45.7,36.3 -75.6,65.4 -76.9,66.7 -159.6,163.7 -90,361 -79.3,388 8.9,24.4 80.5,204.7 270.6,256.9 156,42.9 273.4,-21.2 317.2,-51.3 0.3,-0.2 0.7,-0.4 1.1,-0.7 l 0,0 c 11.5,-8 19.2,-14.4 22.9,-17.6 l 192.6,-152.7 c 29.5,-23.3 76.8,-60.3 122.7,-95.9 l -4.6,176.1 -1.6,1063 c -0.6,142.5 34.7,220.8 38.7,229.2 110.4,215.8 332.1,214.9 362.5,213.7 90.7,-0.2 170.2,-26.2 236.3,-77.2 83.4,-64.2 115.9,-147.2 121.6,-163.2 3,-8.4 4.5,-17.3 4.5,-26.2 0,-43.1 -35,-78.2 -78.1,-78.2 -34.6,0 -64,22.5 -74.3,53.7 -3.6,9.2 -23.6,55.1 -69.1,90.2 -38.5,29.7 -86.2,44.7 -142.1,44.7 -0.1,0 -0.3,0 -0.6,0 -1.7,0 -3.4,0.1 -5.2,0.2 -5.5,0.3 -147.6,5.7 -215.4,-126.7 l 0,0 c 0.2,0 -23,-55.7 -22.6,-159.8 l 1.6,-1061.3 8.7,-339 c 0.8,-30.6 -16.5,-59 -44.1,-72.3 -27.7,-13.3 -60.5,-9.2 -84.2,10.5 l -9.9,7.6 c -41.9,32.6 -180.2,139.8 -241.8,188.5 l -194.4,154.1 c -1.4,1.1 -2.8,2.4 -4.2,3.6 -0.3,0.3 -3.3,2.7 -8,6 -0.4,0.2 -0.7,0.5 -1.1,0.7 l 0,0 c -25.4,17.5 -94.3,55.3 -187.8,29.6 -118.7,-32.5 -164.7,-158.3 -165.2,-159.6 -0.4,-1.4 -1.2,-3.4 -1.8,-4.8 -1.8,-4.4 -48.3,-123.8 44.9,-219.4 l 0,0 c 0.1,0 25.4,-24.5 63.5,-54.8 l 759.1,-601.6 c 19.5,-15.4 30.4,-39 29.6,-63.8 l -39.2,-1176.8 c -1.4,-42.2 -36.2,-75.5 -78.1,-75.5" /></g><g
     transform="matrix(0.218485,0,0,-0.218485,-713.8348,3881.3967)"
     id="g78"><path
       inkscape:connector-curvature="0"
       id="path80"
       style="fill:#000000;fill-opacity:1;fill-rule:nonzero;stroke:none"
       d="m 16224.3,13254 c -41.1,0 -74.7,33 -75.2,74.2 l -17.5,1417.1 c -0.5,41.5 32.7,75.5 74.2,76.1 0.3,0 0.7,0 0.9,0 41.1,0 74.7,-33.1 75.2,-74.3 l 17.6,-1417 c 0.5,-41.5 -32.7,-75.6 -74.3,-76.1 -0.3,0 -0.6,0 -0.9,0" /></g><g
     transform="matrix(0.21065,0,0,-0.21065,-713.8348,3881.3967)"
     id="g82"><path
       inkscape:connector-curvature="0"
       id="path84"
       style="fill:#000000;fill-opacity:1;fill-rule:nonzero;stroke:none"
       d="m 16221.2,13590.2 c -42.4,0 -77.1,34 -77.9,76.5 l -27.8,1454 c -0.8,43 33.4,78.6 76.5,79.4 43.5,0.8 78.6,-33.4 79.4,-76.5 l 27.8,-1453.9 c 0.8,-43 -33.4,-78.6 -76.5,-79.4 -0.4,-0.1 -1,-0.1 -1.5,-0.1" /></g><g
     transform="matrix(0.22083375,0,0,-0.22083375,-713.8348,3881.3967)"
     id="g86"><path
       inkscape:connector-curvature="0"
       id="path88"
       style="fill:#ffffff;fill-opacity:1;fill-rule:nonzero;stroke:none"
       d="m 10866.1,14094.4 c 0,-1218.1 -987.49,-2205.5 -2205.61,-2205.5 -1218.11,0 -2205.56,987.4 -2205.56,2205.5 0,1218.1 987.45,2205.6 2205.56,2205.6 1218.12,0 2205.61,-987.5 2205.61,-2205.6" /></g><g
     transform="matrix(0.22184125,0,0,-0.22184125,-713.8348,3881.3967)"
     id="g90"
     style="fill:#212427;fill-opacity:1"><path
       inkscape:connector-curvature="0"
       id="path92"
       style="fill:#212427;fill-opacity:1;fill-rule:nonzero;stroke:none"
       d="m 8621.16,11760.9 c -35.56,0 -71.62,0.8 -107.29,2.4 -40.79,1.9 -72.4,36.5 -70.54,77.4 1.91,40.8 35.78,72.5 77.42,70.5 33.24,-1.5 66.77,-2.3 100.41,-2.3 1169.81,0 2121.54,951.7 2121.54,2121.5 0,1169.8 -951.73,2121.5 -2121.54,2121.5 -600.77,0 -1175.9,-256.3 -1577.94,-703.4 -27.32,-30.3 -74.09,-32.8 -104.52,-5.5 -30.37,27.3 -32.91,74.2 -5.58,104.6 430.1,478.1 1045.29,752.4 1688.04,752.4 1251.46,0 2269.54,-1018.1 2269.54,-2269.6 0,-1251.4 -1018.08,-2269.5 -2269.54,-2269.5" /></g><g
     transform="matrix(0.202615,0,0,-0.202615,-713.8348,3881.3967)"
     id="g94"
     style="fill:#212427;fill-opacity:1"><path
       inkscape:connector-curvature="0"
       id="path96"
       style="fill:#212427;fill-opacity:1;fill-rule:nonzero;stroke:none"
       d="m 10658.5,14765.7 c -16.1,0 -32.4,4.7 -46.5,14.6 -222.9,156.6 -355.9,412.3 -355.9,684.3 0,460.6 374.7,835.4 835.4,835.4 395.1,0 739.3,-280.6 818.4,-667.2 9,-43.8 -19.2,-86.6 -63.1,-95.6 -44.2,-8.9 -86.7,19.3 -95.7,63.2 -63.7,311.4 -341.1,537.5 -659.6,537.5 -371.3,0 -673.3,-302.1 -673.3,-673.3 0,-219.2 107.3,-425.4 286.9,-551.6 36.7,-25.7 45.5,-76.2 19.8,-112.9 -15.8,-22.5 -40.9,-34.4 -66.4,-34.4" /></g><g
     transform="matrix(0.19650375,0,0,-0.19650375,-713.8348,3881.3967)"
     id="g98"
     style="fill:#212427;fill-opacity:1"><path
       inkscape:connector-curvature="0"
       id="path100"
       style="fill:#212427;fill-opacity:1;fill-rule:nonzero;stroke:none"
       d="m 11497.2,16086.7 c 0,-117.9 -95.5,-213.4 -213.4,-213.4 -117.8,0 -213.3,95.5 -213.3,213.4 0,117.8 95.5,213.3 213.3,213.3 117.9,0 213.4,-95.5 213.4,-213.3" /></g><g
     transform="matrix(0.19751875,0,0,-0.19751875,-713.8348,3881.3967)"
     id="g102"
     style="fill:#212427;fill-opacity:1"><path
       inkscape:connector-curvature="0"
       id="path104"
       style="fill:#212427;fill-opacity:1;fill-rule:nonzero;stroke:none"
       d="m 10319.1,16087.7 c 0,-117.2 -95.1,-212.2 -212.3,-212.2 -117.18,0 -212.23,95 -212.23,212.2 0,117.3 95.05,212.3 212.23,212.3 117.2,0 212.3,-95 212.3,-212.3" /></g><g
     transform="matrix(0.178235,0,0,-0.178235,-713.8348,3881.3967)"
     id="g106"
     style="fill:#212427;fill-opacity:1"><path
       inkscape:connector-curvature="0"
       id="path108"
       style="fill:#212427;fill-opacity:1;fill-rule:nonzero;stroke:none"
       d="m 11944.2,15895.9 c -221.6,0 -443.4,79.3 -606.5,235.9 -36.8,35.2 -38,93.6 -2.8,130.3 35.2,36.7 93.6,37.9 130.3,2.7 240.3,-230.5 660,-245.8 916.4,-33.1 39.2,32.5 97.2,27.1 129.7,-12.1 32.5,-39.2 27.2,-97.2 -12,-129.7 -156.5,-129.8 -355.8,-194 -555.1,-194" /></g><g
     transform="matrix(0.2226875,0,0,-0.2226875,-713.8348,3881.3967)"
     id="g110"
     style="fill:#212427;fill-opacity:1"><path
       inkscape:connector-curvature="0"
       id="path112"
       style="fill:#212427;fill-opacity:1;fill-rule:nonzero;stroke:none"
       d="m 8213.47,15284.7 c 0,-560.7 -454.56,-1015.2 -1015.27,-1015.2 -560.7,0 -1015.26,454.5 -1015.26,1015.2 0,560.8 454.56,1015.3 1015.26,1015.3 560.71,0 1015.27,-454.5 1015.27,-1015.3" /></g><g
     transform="matrix(0.20588125,0,0,-0.20588125,-713.8348,3881.3967)"
     id="g114"
     style="fill:#212427;fill-opacity:1"><path
       inkscape:connector-curvature="0"
       id="path116"
       style="fill:#212427;fill-opacity:1;fill-rule:nonzero;stroke:none"
       d="m 8018.21,14969.4 c 0,-734.8 -595.67,-1330.5 -1330.56,-1330.5 -734.84,0 -1330.55,595.7 -1330.55,1330.5 0,734.9 595.71,1330.6 1330.55,1330.6 734.89,0 1330.56,-595.7 1330.56,-1330.6" /></g><g
     transform="matrix(0.189075,0,0,-0.189075,-713.8348,3881.3967)"
     id="g118"
     style="fill:#212427;fill-opacity:1"><path
       inkscape:connector-curvature="0"
       id="path120"
       style="fill:#212427;fill-opacity:1;fill-rule:nonzero;stroke:none"
       d="m 9788.57,14851.2 c 0,-800.2 -648.69,-1448.9 -1448.83,-1448.9 -800.15,0 -1448.83,648.7 -1448.83,1448.9 0,800.2 648.68,1448.8 1448.83,1448.8 800.14,0 1448.83,-648.6 1448.83,-1448.8" /></g><g
     transform="matrix(0.2381225,0,0,-0.2381225,-713.8348,3881.3967)"
     id="g122"
     style="fill:#212427;fill-opacity:1"><path
       inkscape:connector-curvature="0"
       id="path124"
       style="fill:#212427;fill-opacity:1;fill-rule:nonzero;stroke:none"
       d="m 9534.99,14972.4 c 0,-733.2 -594.39,-1327.6 -1327.62,-1327.6 -733.24,0 -1327.63,594.4 -1327.63,1327.6 0,733.2 594.39,1327.6 1327.63,1327.6 733.23,0 1327.62,-594.4 1327.62,-1327.6" /></g><g
     transform="matrix(0.22420125,0,0,-0.22420125,-713.8348,3881.3967)"
     id="g126"
     style="fill:#212427;fill-opacity:1"><path
       inkscape:connector-curvature="0"
       id="path128"
       style="fill:#212427;fill-opacity:1;fill-rule:nonzero;stroke:none"
       d="m 11345.5,15478.7 c 0,-453.6 -367.7,-821.4 -821.3,-821.4 -453.6,0 -821.36,367.8 -821.36,821.4 0,453.6 367.76,821.3 821.36,821.3 453.6,0 821.3,-367.7 821.3,-821.3" /></g><g
     transform="matrix(0.198325,0,0,-0.198325,-713.8348,3881.3967)"
     id="g130"><path
       inkscape:connector-curvature="0"
       id="path132"
       style="fill:#ffffff;fill-opacity:1;fill-rule:nonzero;stroke:none"
       d="m 9107.36,15539.8 c 0,-419.8 -340.29,-760.2 -760.12,-760.2 -419.83,0 -760.18,340.4 -760.18,760.2 0,419.9 340.35,760.2 760.18,760.2 419.83,0 760.12,-340.3 760.12,-760.2" /></g><g
     transform="matrix(0.19207875,0,0,-0.19207875,-713.8348,3881.3967)"
     id="g134"
     style="fill:#212427;fill-opacity:1"><path
       inkscape:connector-curvature="0"
       id="path136"
       style="fill:#212427;fill-opacity:1;fill-rule:nonzero;stroke:none"
       d="m 8809.24,15688.5 c -297.86,0 -592.4,203.2 -681.56,490.6 -13.99,45.1 11.2,93 56.29,107 45.04,13.9 93,-11.2 107.06,-56.3 75.81,-244.3 361.83,-412.9 612.25,-360.7 46.4,9.7 91.56,-20.1 101.13,-66.4 9.63,-46.2 -20.11,-91.5 -66.32,-101.1 -42.56,-8.8 -85.77,-13.1 -128.85,-13.1" /></g><g
     transform="matrix(0.18287125,0,0,-0.18287125,-713.8348,3881.3967)"
     id="g138"
     style="fill:#212427;fill-opacity:1"><path
       inkscape:connector-curvature="0"
       id="path140"
       style="fill:#212427;fill-opacity:1;fill-rule:nonzero;stroke:none"
       d="m 16300,11107.7 c 0,615.2 -359.9,1174.8 -921.4,1426.1 -377.6,168.9 -883.8,302.2 -1540.9,302.2 l -6647.32,0 c 0,0 -1098.47,-42.5 -1747.75,-385.8 C 4932.7,12180.6 4616.6,11648 4616.6,11071.1 l 0,-8369.54 5504.1,-425.57 6179.3,0 0,8831.71" /></g><g
     transform="matrix(0.145955,0,0,-0.145955,-713.8348,3881.3967)"
     id="g142"
     style="fill:#212427;fill-opacity:1"><path
       inkscape:connector-curvature="0"
       id="path144"
       style="fill:#212427;fill-opacity:1;fill-rule:nonzero;stroke:none"
       d="m 9009.04,16082.6 c 0,0 -4097.97,217.4 -4097.97,-2755.1 0,-2972.5 0,-6968.42 0,-6968.42 0,0 -342.8,-3507.42 1790.14,-3507.42 l 6829.89,0 0,3507.42 -3121.5,0 c -816.9,0 -1477.21,665.96 -1470.36,1482.82 l 69.8,8240.7" /></g><g
     transform="matrix(0.2931,0,0,-0.2931,-713.8348,3881.3967)"
     id="g146"><path
       inkscape:connector-curvature="0"
       id="path148"
       style="fill:#ffffff;fill-opacity:1;fill-rule:nonzero;stroke:none"
       d="m 8254.57,1420.04 7628.03,0 c 230.5,0 417.4,186.84 417.4,417.35 l 0,5246.55 c 0,230.51 -186.9,417.35 -417.4,417.35 l -7628.03,0 c -230.51,0 -417.35,-186.84 -417.35,-417.35 l 0,-5246.55 c 0,-230.51 186.84,-417.35 417.35,-417.35" /></g><g
     transform="matrix(0.2941075,0,0,-0.2941075,-713.8348,3881.3967)"
     id="g150"
     style="fill:#212427;fill-opacity:1"><path
       inkscape:connector-curvature="0"
       id="path152"
       style="fill:#212427;fill-opacity:1;fill-rule:nonzero;stroke:none"
       d="m 8226.29,7419.74 c -198.57,0 -360.11,-161.51 -360.11,-360.07 l 0,-5228.58 c 0,-198.56 161.54,-360.07 360.11,-360.07 l 7601.91,0 c 198.6,0 360.1,161.51 360.1,360.07 l 0,5228.58 c 0,198.56 -161.5,360.07 -360.1,360.07 l -7601.91,0 z m 7601.91,-6060.41 -7601.91,0 c -260.15,0 -471.77,211.61 -471.77,471.76 l 0,5228.58 c 0,260.15 211.62,471.76 471.77,471.76 l 7601.91,0 c 260.1,0 471.8,-211.61 471.8,-471.76 l 0,-5228.58 c 0,-260.15 -211.7,-471.76 -471.8,-471.76" /></g><g
     transform="matrix(0.1311125,0,0,-0.1311125,-713.8348,3881.3967)"
     id="g154"
     style="fill:#212427;fill-opacity:1"><path
       inkscape:connector-curvature="0"
       id="path156"
       style="fill:#212427;fill-opacity:1;fill-rule:nonzero;stroke:none"
       d="m 15062.9,3174.67 1237.1,0 0,3896.01 -1237.1,0 0,-3896.01" /></g><g
     transform="matrix(0.2777,0,0,-0.2777,-713.8348,3881.3967)"
     id="g158"
     style="fill:url(#linearGradient4523);fill-opacity:1"><path
       inkscape:connector-curvature="0"
       id="path160"
       style="fill:url(#linearGradient4253);fill-opacity:1;fill-rule:nonzero;stroke:none"
       d="M 16300,1498.79 14226.6,4607.8 13189.9,3053.34 11544.4,5520.79 8862.17,1498.92 l 5364.43,-0.13 0,0.04 2073.4,-0.04" /></g><g
     transform="matrix(0.27876375,0,0,-0.27876375,-713.8348,3881.3967)"
     id="g162"
     style="fill:#212427;fill-opacity:1"><path
       inkscape:connector-curvature="0"
       id="path164"
       style="fill:#212427;fill-opacity:1;fill-rule:nonzero;stroke:none"
       d="M 8938.44,1552.12 16127.7,1551.99 14172.3,4484.04 13188.6,3009 c -10.9,-16.41 -29.3,-26.23 -49,-26.23 -19.7,0 -38.1,9.82 -49,26.23 L 11500.3,5393.54 8938.44,1552.12 Z m 7299.36,-117.98 -7409.45,0.14 c -21.7,0 -41.65,11.97 -51.97,31.12 -10.22,19.14 -9.1,42.42 2.96,60.49 l 2671.96,4006.53 c 11,16.36 29.3,26.23 49,26.23 l 0,0 c 19.8,0 38.1,-9.87 49,-26.23 l 1590.3,-2384.59 983.7,1475.08 c 11,16.41 29.4,26.23 49,26.23 l 0,0 c 19.8,0 38.1,-9.82 49.1,-26.23 l 2065.4,-3097.16 c 12.1,-18.07 13.2,-41.34 3,-60.48 -10.3,-19.15 -30.3,-31.13 -52,-31.13" /></g><g
     transform="matrix(0.27316375,0,0,-0.27316375,-713.8348,3881.3967)"
     id="g166"
     style="fill:url(#linearGradient4539);fill-opacity:1"><path
       inkscape:connector-curvature="0"
       id="path168"
       style="fill:url(#linearGradient4255);fill-opacity:1;fill-rule:nonzero;stroke:none"
       d="m 16300,6471.63 c 0,-444.01 -360,-803.96 -804,-803.96 -443.9,0 -803.9,359.95 -803.9,803.96 0,444.01 360,803.92 803.9,803.92 444,0 804,-359.91 804,-803.92" /></g><g
     transform="matrix(0.27417125,0,0,-0.27417125,-713.8348,3881.3967)"
     id="g170"
     style="fill:#212427;fill-opacity:1"><path
       inkscape:connector-curvature="0"
       id="path172"
       style="fill:#212427;fill-opacity:1;fill-rule:nonzero;stroke:none"
       d="m 15439.1,7188.94 c -408.6,0 -741.1,-332.45 -741.1,-741.09 0,-408.64 332.5,-741.1 741.1,-741.1 408.6,0 741.1,332.46 741.1,741.1 0,408.64 -332.5,741.09 -741.1,741.09 z m 0,-1602.01 c -474.7,0 -860.9,386.21 -860.9,860.92 0,474.7 386.2,860.87 860.9,860.87 474.7,0 860.9,-386.17 860.9,-860.87 0,-474.71 -386.2,-860.92 -860.9,-860.92" /></g><g
     transform="matrix(0.1613125,0,0,-0.1613125,-713.8348,3881.3967)"
     id="g174"><path
       inkscape:connector-curvature="0"
       id="path176"
       style="fill:#ffffff;fill-opacity:1;fill-rule:nonzero;stroke:none"
       d="m 13248.4,2580.33 3028,0 c 15.5,768.85 5.2,1939.79 20.7,2708.56 2.9,141.58 -20.7,424.95 -20.7,424.95 -821.3,47.12 -3028,33.09 -3028,33.09 l 0,-3166.6" /></g><g
     transform="matrix(0.16638625,0,0,-0.16638625,-713.8348,3881.3967)"
     id="g178"><path
       inkscape:connector-curvature="0"
       id="path180"
       style="fill:#ffffff;fill-opacity:1;fill-rule:nonzero;stroke:none"
       d="m 15172.4,4958.56 992,1169.34 c 135.6,159.79 116,399.3 -43.9,534.9 l 0,0 c -159.8,135.6 -399.3,115.92 -534.9,-43.88 l -992,-1169.33 578.8,-491.03" /></g><g
     transform="matrix(0.17608875,0,0,-0.17608875,-713.8348,3881.3967)"
     id="g182"><path
       inkscape:connector-curvature="0"
       id="path184"
       style="fill:#ffffff;fill-opacity:1;fill-rule:nonzero;stroke:none"
       d="m 15941.2,3081.48 -1030.6,0 0,-717.68 1030.6,0 c 198.2,0 358.8,160.72 358.8,358.84 l 0,0 c 0,198.2 -160.6,358.84 -358.8,358.84" /></g><g
     transform="matrix(0.17790625,0,0,-0.18762976,-713.8348,3913.9312)"
     id="g186"><path
       inkscape:connector-curvature="0"
       id="path188"
       style="fill:#ffffff;fill-opacity:1;fill-rule:nonzero;stroke:none"
       d="m 15944.9,3760.28 -1186.6,0 0,-710.28 1186.6,0 c 196.1,0 355.1,159.01 355.1,355.11 l 0,0 c 0,196.17 -159,355.17 -355.1,355.17" /></g><g
     transform="matrix(0.17960875,0,0,-0.17960875,-713.8348,3881.3967)"
     id="g190"><path
       inkscape:connector-curvature="0"
       id="path192"
       style="fill:#ffffff;fill-opacity:1;fill-rule:nonzero;stroke:none"
       d="m 15948.2,4428.18 -1329.8,0 0,-703.54 1329.8,0 c 194.3,0 351.8,157.49 351.8,351.8 l 0,0 c 0,194.25 -157.5,351.74 -351.8,351.74" /></g><g
     transform="matrix(0.18998875,0,0,-0.18998875,-713.8348,3881.3967)"
     id="g194"><path
       inkscape:connector-curvature="0"
       id="path196"
       style="fill:#ffffff;fill-opacity:1;fill-rule:nonzero;stroke:none"
       d="m 15967.4,4851.41 -2147.7,0 0,-665.17 1910.5,0 c 486.7,0 569.8,148.89 569.8,332.59 l 0,0 c 0,183.69 -148.9,332.58 -332.6,332.58" /></g><g
     transform="matrix(0.13212,0,0,-0.13212,-713.8348,3881.3967)"
     id="g198"
     style="fill:#212427;fill-opacity:1"><path
       inkscape:connector-curvature="0"
       id="path200"
       style="fill:#212427;fill-opacity:1;fill-rule:nonzero;stroke:none"
       d="m 16175.7,6892.43 -5764.3,0 c -68.6,0 -124.3,55.63 -124.3,124.32 0,68.59 55.7,124.32 124.3,124.32 l 5764.3,0 c 68.6,0 124.3,-55.73 124.3,-124.32 0,-68.69 -55.7,-124.32 -124.3,-124.32" /></g><g
     transform="matrix(0.19131875,0,0,-0.19131875,-713.8348,3881.3967)"
     id="g202"
     style="fill:#212427;fill-opacity:1"><path
       inkscape:connector-curvature="0"
       id="path204"
       style="fill:#212427;fill-opacity:1;fill-rule:nonzero;stroke:none"
       d="m 14683.9,2089.51 c -5,0 -9.6,0.06 -14.1,0.33 l -3499.3,0 c -47.5,0 -85.9,38.41 -85.9,85.85 0,47.36 38.4,85.78 85.9,85.78 l 3501.7,0 c 1.7,0 3.5,-0.06 5.2,-0.13 16.3,-0.52 165.7,-2.28 223.5,158.38 58.7,162.62 -59.5,263.69 -73.2,274.67 -2.2,1.83 -5,4.24 -7.1,6.34 -1.4,1.37 -50.4,46.38 -129,49.58 l -19.4,0 c -46.9,0 -85,37.51 -85.9,84.35 -0.8,46.85 36.1,85.66 82.8,87.29 8.9,0.26 17.6,0.33 26,0.07 l 131.9,0 c 1.8,0 3.7,-0.07 5.5,-0.2 16.2,-0.78 169.3,-2.87 225.3,164.19 56.7,168.83 -73.7,268.53 -88.8,279.31 -1.7,1.24 -3.9,2.94 -5.5,4.25 -1.3,1.05 -53.2,41.22 -136.5,41.22 -47.4,0 -85.8,38.42 -85.8,85.86 0,47.43 38.4,85.85 85.8,85.85 l 145,0 c 3.4,0 6.8,-0.2 10.1,-0.59 11.7,-0.92 124.9,-7.38 200.1,120.28 78.6,133.16 5,238.54 4.3,239.59 -3.4,4.64 -6.2,9.54 -8.6,14.7 -1.8,3.79 -57.1,114.86 -205.9,114.86 -47.4,0 -85.8,38.42 -85.8,85.79 0,47.43 38.4,85.85 85.8,85.85 l 884.4,0 c 6.5,0.26 135.7,-0.65 197.9,100.68 66.1,107.8 42.4,191.5 41.5,195.03 -1,3.2 -2.3,8.1 -2.8,11.43 -1,4.71 -28.2,136.55 -179.9,175.1 -0.1,0 -27.1,6.6 -56.7,6.6 l -2228.6,4.97 c -33.4,0.13 -63.7,19.53 -77.7,49.91 -14,30.32 -9.1,65.99 12.5,91.47 l 429.8,506.68 c 1.6,1.9 3.3,3.73 5.2,5.56 11.1,11.5 111.5,122.44 16.4,280.88 -95,158.11 -265.1,109.56 -284.1,103.55 -2.4,-0.78 -64.6,-20.57 -109.8,-74.02 l -772.8,-910.78 c -16.3,-19.21 -40.3,-30.32 -65.5,-30.32 l -1611.3,0 c -47.5,0 -85.9,38.42 -85.9,85.85 0,47.37 38.4,85.85 85.9,85.85 l 1571.6,0 747,880.47 c 78.1,92.12 178.8,123.62 190,126.95 106.1,35.34 347.5,44.75 482.1,-179.15 132,-219.92 33.1,-413.71 -40,-488.52 l -308.1,-363.07 2043.5,-4.64 c 50.8,0 94.1,-10.65 98.9,-11.89 240.5,-61.09 296.5,-265.4 305.4,-305.84 9.5,-33.12 39.1,-169.74 -60.2,-331.78 -114.7,-187.31 -337.3,-182.87 -346.8,-182.61 l -545.5,0 c 11,-15.81 18.2,-28.75 22.3,-36.52 23.8,-37.31 121.4,-213 -0.5,-419.85 -56,-94.8 -127.3,-146.16 -192.3,-173.73 74.7,-86.5 142.7,-231.42 82.7,-409.85 -47.4,-141.39 -143.4,-216.39 -235,-252.52 72,-84.81 142.5,-235.28 76.9,-417.37 -78.2,-216.78 -272.6,-271.99 -378.6,-271.99" /></g><g
     transform="matrix(0.13212,0,0,-0.13212,-713.8348,3881.3967)"
     id="g206"
     style="fill:#212427;fill-opacity:1"><path
       inkscape:connector-curvature="0"
       id="path208"
       style="fill:#212427;fill-opacity:1;fill-rule:nonzero;stroke:none"
       d="m 16175.7,3026.24 -5511.9,0 c -68.6,0 -124.3,55.63 -124.3,124.31 0,68.6 55.7,124.23 124.3,124.23 l 5511.9,0 c 68.6,0 124.3,-55.63 124.3,-124.23 0,-68.68 -55.7,-124.31 -124.3,-124.31" /></g><g
     transform="matrix(0.18381125,0,0,-0.18381125,-713.8348,3881.3967)"
     id="g210"><path
       inkscape:connector-curvature="0"
       id="path212"
       style="fill:#000000;fill-opacity:1;fill-rule:nonzero;stroke:none"
       d="m 16210.6,4237.63 -1807.2,0 c -49.3,0 -89.3,39.99 -89.3,89.29 0,49.37 40,89.36 89.3,89.36 l 1807.2,0 c 49.3,0 89.4,-39.99 89.4,-89.36 0,-49.3 -40.1,-89.29 -89.4,-89.29" /></g><g
     transform="matrix(0.1750375,0,0,-0.1750375,-713.8348,3881.3967)"
     id="g214"><path
       inkscape:connector-curvature="0"
       id="path216"
       style="fill:#000000;fill-opacity:1;fill-rule:nonzero;stroke:none"
       d="m 16206.2,3728.06 -935.5,0 c -51.8,0 -93.8,41.99 -93.8,93.83 0,51.85 42,93.84 93.8,93.84 l 935.5,0 c 51.7,0 93.8,-41.99 93.8,-93.84 0,-51.84 -42.1,-93.83 -93.8,-93.83" /></g><g
     transform="matrix(0.17322,0,0,-0.17322,-713.8348,3881.3967)"
     id="g218"><path
       inkscape:connector-curvature="0"
       id="path220"
       style="fill:#000000;fill-opacity:1;fill-rule:nonzero;stroke:none"
       d="m 16205.2,3037.68 -534,0 c -52.4,0 -94.8,42.43 -94.8,94.82 0,52.32 42.4,94.82 94.8,94.82 l 534,0 c 52.3,0 94.8,-42.5 94.8,-94.82 0,-52.39 -42.5,-94.82 -94.8,-94.82" /></g><path
     inkscape:connector-curvature="0"
     id="path222"
     style="fill:#212427;fill-opacity:1;fill-rule:nonzero;stroke:none"
     d="m 758.4523,2971.6593 c -14.3,0 -36.512,-3.725 -60.475,-21.6875 -55.237,-41.4375 -121.1,-161.2125 -121.1,-496.5375 0,-9.075 7.35,-16.425 16.425,-16.425 9.063,0 16.425,7.35 16.425,16.425 0,336.125 66.775,438.2375 106.563,469.1875 26.962,20.975 48.6,15.8 49.487,15.575 8.663,-2.225 17.688,2.9 20.05,11.55 2.35,8.6375 -2.512,17.5375 -11.1,20.05 -0.6,0.175 -6.65,1.8625 -16.275,1.8625" /><g
     transform="matrix(0.23136375,0,0,-0.23136375,-713.8348,3881.3967)"
     id="g224"
     style="fill:#212427;fill-opacity:1"><path
       inkscape:connector-curvature="0"
       id="path226"
       style="fill:#212427;fill-opacity:1;fill-rule:nonzero;stroke:none"
       d="m 15008.7,12238.2 c -9.8,0 -19.8,2.1 -29.3,6.4 -35.8,16.3 -51.5,58.3 -35.3,94 63.7,140 203.7,250.2 404.8,318.6 287.9,97.9 605.4,98.8 893.8,2.4 37.2,-12.4 57.3,-52.6 44.9,-89.9 -12.4,-37.1 -52.7,-57.3 -89.9,-44.8 -259.2,86.7 -544.4,85.8 -803.1,-2.2 -113.7,-38.7 -261.8,-112.2 -321.2,-242.9 -11.9,-26.1 -37.7,-41.6 -64.7,-41.6" /></g><g
     transform="matrix(0.227065,0,0,-0.227065,-713.8348,3881.3967)"
     id="g228"
     style="fill:#212427;fill-opacity:1"><path
       inkscape:connector-curvature="0"
       id="path230"
       style="fill:#212427;fill-opacity:1;fill-rule:nonzero;stroke:none"
       d="m 14999.8,15238.8 c -21.7,0 -43.2,9.7 -57.4,28.3 l -696,907.2 c -24.2,31.7 -18.3,77.1 13.4,101.4 31.7,24.3 77.1,18.3 101.4,-13.4 l 696,-907.2 c 24.2,-31.7 18.3,-77.1 -13.4,-101.4 -13.1,-10 -28.6,-14.9 -44,-14.9" /></g><g
     transform="matrix(0.23612125,0,0,-0.23612125,-713.8348,3881.3967)"
     id="g232"
     style="fill:#212427;fill-opacity:1"><path
       inkscape:connector-curvature="0"
       id="path234"
       style="fill:#212427;fill-opacity:1;fill-rule:nonzero;stroke:none"
       d="m 15049.6,14892.6 c -38.4,0 -69.5,31.1 -69.5,69.5 l 0,1268.3 c 0,38.5 31.1,69.6 69.5,69.6 38.4,0 69.6,-31.1 69.6,-69.6 l 0,-1268.3 c 0,-38.4 -31.2,-69.5 -69.6,-69.5" /></g><g
     transform="matrix(0.237005,0,0,-0.237005,-713.8348,3881.3967)"
     id="g236"
     style="fill:#212427;fill-opacity:1"><path
       inkscape:connector-curvature="0"
       id="path238"
       style="fill:#212427;fill-opacity:1;fill-rule:nonzero;stroke:none"
       d="m 15468,14633.3 c -16.6,0 -33.2,5.9 -46.5,17.9 -28.4,25.6 -30.6,69.5 -5,97.8 l 755,835.5 c 25.7,28.4 69.4,30.6 97.9,5 28.3,-25.7 30.6,-69.5 5,-97.9 l -755,-835.5 c -13.7,-15.1 -32.6,-22.8 -51.4,-22.8" /></g></svg>