<?xml version="1.0" encoding="UTF-8" standalone="no"?>
<!-- Created with Inkscape (http://www.inkscape.org/) -->

<svg
   xmlns:dc="http://purl.org/dc/elements/1.1/"
   xmlns:cc="http://creativecommons.org/ns#"
   xmlns:rdf="http://www.w3.org/1999/02/22-rdf-syntax-ns#"
   xmlns:svg="http://www.w3.org/2000/svg"
   xmlns="http://www.w3.org/2000/svg"
   xmlns:sodipodi="http://sodipodi.sourceforge.net/DTD/sodipodi-0.dtd"
   xmlns:inkscape="http://www.inkscape.org/namespaces/inkscape"
   id="svg2"
   version="1.1"
   inkscape:version="0.91 r13725"
   xml:space="preserve"
   width="4313.1426"
   height="3081.231"
   viewBox="0 0 4313.1426 3081.2309"
   sodipodi:docname="webdeveloper.svg"><metadata
     id="metadata8"><rdf:RDF><cc:Work
         rdf:about=""><dc:format>image/svg+xml</dc:format><dc:type
           rdf:resource="http://purl.org/dc/dcmitype/StillImage" /><dc:title></dc:title></cc:Work></rdf:RDF></metadata><defs
     id="defs6"><clipPath
       clipPathUnits="userSpaceOnUse"
       id="clipPath194"><path
         d="m 12375.7,6460.6 -4757.17,0 632.18,-3360 3492.79,0 632.2,3360 z"
         id="path196"
         inkscape:connector-curvature="0" /></clipPath><linearGradient
       x1="0"
       y1="0"
       x2="1"
       y2="0"
       gradientUnits="userSpaceOnUse"
       gradientTransform="matrix(13602.4,-20689.3,-20689.3,-13602.4,2167.81,17169.8)"
       spreadMethod="pad"
       id="linearGradient198"><stop
         style="stop-opacity:1;stop-color:#fdce5c"
         offset="0"
         id="stop200" /><stop
         style="stop-opacity:1;stop-color:#ffd660"
         offset="0.999999"
         id="stop202" /><stop
         style="stop-opacity:1;stop-color:#ffd660"
         offset="1"
         id="stop204" /></linearGradient><clipPath
       clipPathUnits="userSpaceOnUse"
       id="clipPath4485"><rect
         style="fill:#0000ff;fill-rule:evenodd;stroke:none;stroke-width:0.80000001px;stroke-linecap:butt;stroke-linejoin:miter;stroke-opacity:1"
         id="rect4487"
         width="4072.0337"
         height="2771.6101"
         x="1068.4926"
         y="-3078.2773"
         transform="scale(1,-1)" /></clipPath></defs><sodipodi:namedview
     pagecolor="#ffffff"
     bordercolor="#666666"
     borderopacity="1"
     objecttolerance="10"
     gridtolerance="10"
     guidetolerance="10"
     inkscape:pageopacity="0"
     inkscape:pageshadow="2"
     inkscape:window-width="2560"
     inkscape:window-height="1026"
     id="namedview4"
     showgrid="false"
     inkscape:zoom="0.17226034"
     inkscape:cx="2045.2763"
     inkscape:cy="1507.6001"
     inkscape:window-x="0"
     inkscape:window-y="0"
     inkscape:window-maximized="1"
     inkscape:current-layer="g10"
     fit-margin-top="0"
     fit-margin-left="0"
     fit-margin-right="0"
     fit-margin-bottom="0" /><g
     id="g10"
     inkscape:groupmode="layer"
     inkscape:label="ink_ext_XXXXXX"
     transform="matrix(1.25,0,0,-1.25,-1605.9988,3464.565)"><g
       id="g4317"
       clip-path="url(#clipPath4485)"><g
         style="fill:#ffffff;fill-opacity:0.62745098"
         id="g304"
         transform="scale(0.168084,0.168084)"><path
           d="m 16300,10577.6 0,-473.7 -4546.1,0 0,466.5 c 0,176.8 143.4,320.2 320.2,320.2 l 3912.8,0 c 172.9,0 313.1,-140.1 313.1,-313"
           style="fill:#ffffff;fill-opacity:0.62745098;fill-rule:nonzero;stroke:none"
           id="path306"
           inkscape:connector-curvature="0" /></g><g
         style="fill:#ffffff;fill-opacity:0.62745098"
         id="g424"
         transform="scale(0.193458,0.193458)"><path
           d="m 16300,12947 0,-298 -2860.6,0 0,293.5 c 0,111.3 90.2,201.5 201.5,201.5 l 2462.2,0 c 108.7,0 196.9,-88.2 196.9,-197"
           style="fill:#ffffff;fill-opacity:0.62745098;fill-rule:nonzero;stroke:none"
           id="path426"
           inkscape:connector-curvature="0" /></g><g
         style="fill:#ffffff"
         id="g18"
         transform="scale(0.275014,0.275014)"><path
           d="m 14355.6,2313.45 c -952,0 -1895.4,498.19 -1904.7,870.06 -2.4,97.81 57.9,164.79 127.9,242.35 84.6,93.85 180.4,200.21 203.7,398.13 4.4,37.38 37,371.9 -166.8,596.8 -63.7,70.32 -126.6,102.76 -193.2,137.09 -85.8,44.17 -174.5,89.84 -271.9,214.89 -34.1,43.78 -114,146.25 -157.7,302.02 -60,213.92 -7.3,398.89 31.1,533.94 32.6,114.25 62.7,166.36 89.3,212.35 25.1,43.27 46.7,80.65 65.9,166.36 23.8,106.47 17.7,167.59 10.5,238.35 -6.9,67.71 -14.7,144.47 6.4,269.33 12.3,72.65 41.1,242.72 148.9,406.31 138.2,209.62 331.6,302.42 447.1,357.87 189.7,91.05 399.2,137.23 622.6,137.23 208.9,0 371.2,-40.65 432.3,-55.93 159.6,-39.96 273.6,-94.14 356.9,-133.7 206.8,-98.25 552.9,-262.67 764.4,-630.95 l 1.1,-2 c 69.8,-121.34 118.8,-251.47 145.9,-386.7 26.7,-133.49 25.9,-223.37 25.2,-310.28 -0.7,-70.87 -1.3,-137.77 12.1,-227.91 34.3,-232.07 135.7,-395.62 217.2,-527.03 119.6,-193.08 221.7,-273.37 329.8,-358.38 88.1,-69.27 179.1,-140.87 278.5,-275.81 76.2,-103.52 321.9,-473.1 284.1,-882.24 -36,-388.82 -328.5,-754.95 -823.9,-1030.97 -311.1,-173.3 -675.3,-261.18 -1082.7,-261.18"
           style="fill:#ffffff;fill-opacity:1;fill-rule:nonzero;stroke:none"
           id="path20"
           inkscape:connector-curvature="0" /></g><g
         style="fill:#212427;fill-opacity:1"
         id="g22"
         transform="scale(0.275539,0.275539)"><path
           d="m 13389.1,7412.66 0,-60.46 0,60.46 c -227.5,-0.03 -441,-47.1 -634.5,-139.94 -118.1,-56.72 -315.8,-151.59 -458.3,-367.82 -111.2,-168.62 -140.6,-342.75 -153.2,-417.11 -21.7,-128.66 -13.8,-207.45 -6.7,-276.92 6.9,-68.01 12.8,-126.76 -9.9,-228.24 -18.1,-81 -37.7,-114.75 -62.4,-157.51 -27.4,-47.43 -58.6,-101.14 -92,-218.8 -39.4,-138.28 -93.4,-327.65 -31.2,-549.36 45.3,-161.22 127.5,-266.79 162.7,-311.86 101.3,-130.04 197,-179.33 281.3,-222.8 66.8,-34.37 124.5,-64.1 184.4,-130.22 194.4,-214.6 163,-535.93 158.8,-571.86 -22.1,-188 -114.4,-290.34 -195.8,-380.64 -71,-78.79 -138.1,-153.22 -135.3,-262.9 4.8,-192.31 234.8,-416.53 615.4,-599.73 393.6,-189.49 873.2,-298.15 1315.9,-298.15 411.7,0 780.3,88.99 1095.3,264.54 503.4,280.5 800.9,654.32 837.7,1052.59 38.7,419 -211.7,795.79 -289.3,901.25 -101.6,138.02 -194.1,210.79 -283.6,281.12 -105.7,83.15 -205.6,161.72 -322.2,349.9 -79.9,128.76 -179.3,289.07 -212.6,514.52 -13,87.64 -12.4,153.3 -11.8,222.76 0.8,88.3 1.6,179.61 -25.7,315.89 -27.6,138.2 -77.8,271.14 -149,395.12 l -1.2,1.99 c -93.7,163.36 -226.4,307 -394.3,426.91 -141,100.68 -280.2,166.8 -381.8,215.07 -84.3,40.03 -199.7,94.87 -361.8,135.44 -62,15.54 -226.6,56.76 -438.9,56.76 l 0,0 z m 0,-60.46 c 198.6,0 354.8,-37.53 424.2,-54.91 153.2,-38.36 260.7,-88.7 350.6,-131.41 200.2,-95.13 543.3,-258.15 749.6,-617.49 20,-34.87 102.9,-176.59 143.4,-378.89 47.1,-235.61 6.4,-329.42 36.9,-535.64 35.2,-237.82 138,-403.61 221,-537.53 222.3,-358.6 393.5,-342.92 608.5,-634.97 47.3,-64.35 316.4,-441.9 277.8,-859.84 -54.2,-585.91 -683.9,-936.82 -807,-1005.37 -329.4,-183.61 -700.9,-256.92 -1065.8,-256.92 -953,0 -1862.5,499.46 -1870.9,838.97 -4.8,194.28 287.2,264.76 330.7,634.98 4.3,36.22 40.1,383.17 -174,619.51 -149.2,164.66 -293.2,131.89 -462.8,349.57 -37.4,47.9 -111,144.26 -152.2,291.03 -57.3,204.43 -7.1,382.27 31.1,516.48 62.7,220.26 114.8,199.1 155.3,379.65 48.9,218.37 -24.3,262.87 17.2,508.28 13.1,77.66 41.2,237.93 144,393.92 130.7,198.23 310.3,287.14 434.1,346.59 215.5,103.43 429.2,133.99 608.3,133.99 l 0,0"
           style="fill:#212427;fill-opacity:1;fill-rule:nonzero;stroke:none"
           id="path24"
           inkscape:connector-curvature="0" /></g><g
         id="g26"
         transform="scale(0.24985,0.24985)"><path
           d="m 15635.6,7895.33 c -96.1,46.42 -224.6,107.74 -402.1,152.21 -144.3,36.18 -637.4,153.89 -1138.7,-87.13 -136.4,-65.6 -334.5,-163.7 -478.6,-382.27 -113.4,-171.99 -144.4,-348.73 -158.8,-434.42 -45.9,-270.68 34.9,-319.71 -19,-560.54 -4,-18.13 -8.2,-34.38 -12.5,-49.19 39.1,74.37 57.3,137.68 66.8,180.47 8,36.46 10.1,60.2 22.9,198.28 4.9,52.67 5.9,105.86 14.7,158.01 14.5,85.7 45.4,262.48 158.9,434.46 144,218.53 342,316.63 478.6,382.23 521.5,250.27 1025.8,119.43 1138.7,87.18 136.1,-38.87 219.3,-88.02 392.8,-170.59 384.6,-182.99 588.9,-386.27 594.5,-379.1 6.2,8.08 -248.8,272.44 -658.2,470.4"
           style="fill:#ffffff;fill-opacity:1;fill-rule:nonzero;stroke:none"
           id="path28"
           inkscape:connector-curvature="0" /></g><g
         id="g30"
         transform="scale(0.244155,0.244155)"><path
           d="m 16300,5082.93 c -96.8,-443.04 -391.7,-807.32 -783.9,-923.23 -579.3,-171.16 -1123.3,273.52 -1358.8,606.42 -67.4,95.23 -109.9,184.27 -136.6,249.47 79.9,7.05 445.1,45.18 710.1,203.93 117.6,70.45 172.2,135 203,203.11 22.1,48.62 28.4,91.66 33.9,169.16 4.2,59.3 7.4,133.15 6.9,219.82 -0.4,56.76 -2.4,119.02 -6.9,186.27 l 685.9,0 c -4.5,-67.25 -6.5,-129.59 -6.9,-186.27 -0.6,-86.79 2.7,-160.52 6.9,-219.82 5.4,-77.5 11.8,-120.54 33.8,-169.16 42.5,-94.04 129.4,-157.15 203.1,-203.11 146.2,-91.25 295.8,-124.96 409.5,-136.59"
           style="fill:#ffffff;fill-opacity:1;fill-rule:nonzero;stroke:none"
           id="path32"
           inkscape:connector-curvature="0" /></g><g
         id="g34"
         transform="scale(0.244633,0.244633)"><path
           d="m 14038,4979.47 c 32.4,-72.44 71.6,-141.19 116.7,-204.92 199.3,-281.61 732.3,-768.09 1322.3,-593.54 363.2,107.3 649.6,437.35 753.6,865.54 -142.2,19.05 -272.4,64.99 -387.4,136.73 -75.7,47.22 -168.5,114.5 -214.5,216.12 -24,53.19 -30.8,100.2 -36.3,179.34 -5.3,73.78 -7.5,146.34 -6.9,221.72 0.3,50.85 1.9,102.88 4.9,155.04 l -619.3,0 c 2.9,-52.32 4.5,-104.36 4.9,-155.09 0.5,-75.01 -1.9,-149.61 -6.9,-221.67 -5.6,-79.47 -12.6,-126.6 -36.5,-179.38 -37.6,-83.14 -103.9,-149.9 -214.8,-216.32 -233.4,-139.84 -542.5,-188.28 -679.8,-203.57 z m 1185.7,-896.61 c -510,0 -941.8,405.63 -1119.1,656.21 -55.6,78.61 -102.6,164.45 -139.7,255.12 -3.6,9.03 -2.8,19.29 2.3,27.59 5,8.34 13.7,13.73 23.4,14.59 99.9,8.83 445.2,49.22 695.7,199.28 99.5,59.64 158.2,117.93 190.3,189.06 20.3,44.56 26,84.86 31.3,158.32 4.9,70.51 7.2,143.52 6.7,216.98 -0.4,60.09 -2.6,122.06 -6.7,184.15 -0.6,8.5 2.3,16.8 8.1,23.01 5.9,6.18 14,9.69 22.4,9.69 l 684.6,0 c 8.5,0 16.6,-3.51 22.4,-9.69 5.8,-6.21 8.8,-14.55 8.2,-23.01 -4.1,-61.89 -6.4,-123.82 -6.7,-184.15 -0.6,-73.79 1.6,-144.75 6.7,-216.98 5.1,-73.21 10.8,-113.44 31.1,-158.36 39.1,-86.62 122.6,-146.63 190.9,-189.27 116.3,-72.55 249.4,-116.91 395.7,-131.87 8.7,-0.9 16.6,-5.43 21.7,-12.51 5.1,-7.07 7,-16.02 5.1,-24.56 -101.8,-466.09 -409.7,-827.9 -803.6,-944.32 -92.1,-27.14 -182.6,-39.28 -270.8,-39.28"
           style="fill:#000000;fill-opacity:1;fill-rule:nonzero;stroke:none"
           id="path36"
           inkscape:connector-curvature="0" /></g><g
         style="fill:#212427;fill-opacity:1"
         id="g38"
         transform="scale(0.245607,0.245607)"><path
           d="m 13970,4966.8 c 33.4,-76.46 74.3,-149.06 121.7,-216.03 207.7,-293.73 721.3,-749.29 1327.1,-594.17 390,99.8 705.8,429.96 829.6,864.76 -172.5,15.68 -328.3,65.59 -463.5,148.41 -68.2,41.85 -164.2,109.28 -210.5,211.68 -23.4,51.79 -30.1,97.92 -35.5,175.73 -5.2,73.33 -7.4,145.35 -6.9,220.19 0.4,53.42 2.2,108.14 5.4,162.94 l -634.6,0 c 3.2,-55.01 5,-109.69 5.4,-162.94 0.4,-74.51 -1.8,-148.58 -6.9,-220.19 -5.5,-78.14 -12.3,-124.35 -35.6,-175.77 -36.7,-81.19 -101.7,-146.5 -210.6,-211.72 -237.8,-142.47 -555.4,-189.17 -685.1,-202.89 z m 1201.7,-885.89 c -513.8,0 -931.9,383.75 -1116.2,644.25 -55,77.76 -101.5,162.7 -138.2,252.43 -2.7,6.52 -2,13.88 1.6,19.87 3.7,6.03 10,9.98 17,10.55 99.9,8.83 445.4,49.3 696.4,199.67 100.7,60.34 160.2,119.58 193,192.05 20.7,45.56 26.5,86.36 31.8,160.54 5,70.48 7.2,143.4 6.7,216.81 -0.3,60.02 -2.6,121.9 -6.7,183.91 -0.4,6.11 1.7,12.14 6,16.62 4.1,4.47 9.9,7 16.1,7 l 681.9,0 c 6.1,0 11.9,-2.53 16.1,-7.05 4.2,-4.47 6.3,-10.46 6,-16.57 -4.1,-61.8 -6.5,-123.69 -6.8,-183.91 -0.6,-73.73 1.6,-144.66 6.7,-216.81 5.2,-73.94 10.9,-114.65 31.7,-160.54 41.3,-91.32 130.1,-153.42 193.3,-192.18 136,-83.34 294.2,-131.88 470.4,-144.13 6.5,-0.45 12.6,-3.83 16.4,-9.2 3.8,-5.38 5.1,-12.18 3.4,-18.57 -122.6,-462.97 -455.4,-816.26 -868.5,-922 -88.1,-22.56 -174.4,-32.74 -258.1,-32.74"
           style="fill:#212427;fill-opacity:1;fill-rule:nonzero;stroke:none"
           id="path40"
           inkscape:connector-curvature="0" /></g><g
         id="g42"
         transform="scale(0.240706,0.240706)"><path
           d="m 15870.1,6011.08 c 14.4,18.53 33.7,44.74 54.2,77.65 68.4,109.88 96.5,207.39 113.4,267.63 16.2,57.91 33.3,135.51 40.9,228.95 22.7,8.1 56,22.85 88.8,50.35 126.5,105.94 132.6,306.02 90.3,440.79 -18.5,58.91 -48.2,153.51 -142.1,201.49 -82.2,41.96 -165.6,23.8 -194.4,16.08 -207,505.39 -572.4,648.76 -996.9,485.49 -411.5,-158.29 -515.4,-558.9 -503.2,-903.31 1.9,-54.63 9.4,-100.12 16.1,-132.48 -3.3,-15.5 -7.7,-34.82 -14,-57.17 -10.6,-37.97 -20.7,-64.85 -24.6,-75.53 -32.1,-88.53 -59.9,-165.09 -30.2,-198.75 20.8,-23.43 77.2,-34.73 97.1,-38.67 0,0 29.1,-5.86 40.5,-21.61 5,-6.89 7.2,-13.46 7.9,-15.99 0.1,-0.37 0.2,-0.62 0.2,-0.75 l 0.1,-0.04 c 11.3,-35.94 29.5,-87.62 57.6,-147.23 41,-109.56 98.7,-180.64 136,-219.98 148.7,-156.58 394.1,-232.11 611.6,-193.39 91.4,16.28 162.3,49.1 207.7,74.36 l 343,162.11"
           style="fill:#ffffff;fill-opacity:1;fill-rule:nonzero;stroke:none"
           id="path44"
           inkscape:connector-curvature="0" /></g><g
         style="fill:#212427;fill-opacity:1"
         id="g46"
         transform="scale(0.24121,0.24121)"><path
           d="m 15173.2,5721.52 c -194,0 -391.8,78.73 -518.7,212.55 -61.6,64.84 -109.4,142.24 -142.3,230.05 -22.2,46.6 -42.1,97.34 -58.1,148.46 -0.6,1.82 -1.4,4.81 -3.6,7.92 -2.4,2.82 -13.1,7.46 -21.5,9.24 -40.2,8.05 -89.5,20.86 -114,48.51 -41.9,47.47 -12.7,127.81 24.2,229.55 5.2,14.14 14.3,38.97 23.8,73.13 5.2,18.66 9.2,35.07 12.2,48.84 -8.7,43.2 -13.9,87.18 -15.4,130.96 -9.5,269.23 45.6,748.23 522.1,931.51 454.3,174.7 817.4,5.35 1024.7,-477.42 47.4,8.7 118.9,11.56 189.4,-24.42 105.4,-53.81 137.9,-157.5 157.3,-219.44 46.7,-148.5 35.4,-359.85 -99.8,-473.07 -23.5,-19.69 -50.1,-35.9 -79.3,-48.34 -7.1,-72.8 -20.6,-145.02 -40.1,-214.91 -15.7,-55.85 -44.9,-159.7 -116.8,-275.12 -17,-27.4 -35.8,-54.35 -55.8,-80.13 -10.6,-13.6 -30.1,-16.01 -43.7,-5.48 -13.6,10.57 -16,30.1 -5.5,43.7 18.7,24.04 36.3,49.21 52.2,74.83 67.2,107.83 93.8,202.48 109.6,258.99 20.2,72.26 33.7,147.17 39.8,222.62 1,12.19 9,22.68 20.6,26.78 29.6,10.58 56.2,25.67 79.1,44.82 113.2,94.85 121,277.27 80.4,406.66 -17.7,56.05 -44.2,140.7 -126.3,182.66 -66.6,34.04 -136.3,23.22 -171.7,13.72 -15.4,-4.14 -31,3.77 -36.9,18.28 -190.4,464.91 -529.5,630.78 -954.9,467.19 -440.4,-169.4 -491.2,-618.59 -482.2,-871.23 1.5,-42.45 6.7,-85.11 15.4,-126.9 0.9,-4.23 0.9,-8.63 0,-12.85 -3.3,-16.01 -8,-35.95 -14.4,-59.04 -10.2,-36.32 -19.9,-62.81 -24.4,-75.2 -24.7,-68.04 -54.4,-149.75 -36.9,-169.48 5,-5.77 22.3,-17.21 79.6,-28.69 6.9,-1.37 41.8,-9.41 59.5,-33.75 7.8,-10.73 11.3,-20.89 12.7,-25.99 15.1,-48.05 34,-96.18 55.9,-142.7 31,-82.33 74.5,-152.69 130.2,-211.43 139.6,-147.05 373.5,-220.85 582.2,-183.74 68.7,12.23 135.2,36.02 197.8,70.81 15,8.37 33.9,2.94 42.2,-12.11 8.4,-15.01 3,-33.99 -12.1,-42.33 -68.5,-38.1 -141.5,-64.21 -216.9,-77.65 -39.3,-6.96 -79.3,-10.36 -119.6,-10.36"
           style="fill:#212427;fill-opacity:1;fill-rule:nonzero;stroke:none"
           id="path48"
           inkscape:connector-curvature="0" /></g><g
         style="fill:#212427;fill-opacity:1"
         id="g50"
         transform="scale(0.238734,0.238734)"><path
           d="m 16185.6,6795.4 c -7.2,0 -14.3,2.38 -20.2,7.33 -13.3,11.09 -15,30.95 -3.9,44.27 24.3,29.11 41.4,61.74 50.8,96.93 12.3,46.07 24.8,130.94 -28.4,189.41 -21.1,23.25 -49.6,40.55 -82.3,50.06 -16.7,4.82 -26.3,22.24 -21.4,38.96 4.7,16.67 22.1,26.34 38.9,21.44 43.9,-12.73 82.4,-36.31 111.4,-68.15 54.3,-59.73 69.5,-147.57 42.7,-247.35 -11.9,-44.69 -33.2,-85.45 -63.5,-121.64 -6.2,-7.45 -15.1,-11.26 -24.1,-11.26"
           style="fill:#212427;fill-opacity:1;fill-rule:nonzero;stroke:none"
           id="path52"
           inkscape:connector-curvature="0" /></g><g
         style="fill:#212427;fill-opacity:1"
         id="g54"
         transform="scale(0.220263,0.220263)"><path
           d="m 16287,7541.23 c 13,-59.8 -12.5,-116.09 -57,-125.81 -44.4,-9.67 -91,30.97 -104.1,90.76 -12.9,59.79 12.5,116.13 57,125.8 44.5,9.67 91,-30.96 104.1,-90.75"
           style="fill:#212427;fill-opacity:1;fill-rule:nonzero;stroke:none"
           id="path56"
           inkscape:connector-curvature="0" /></g><g
         style="fill:#212427;fill-opacity:1"
         id="g58"
         transform="scale(0.223988,0.223988)"><path
           d="m 16011.7,6564.33 c -9.7,0 -18.6,0.45 -26.6,1.16 -23.7,2.06 -41.3,22.91 -39.3,46.61 2.1,23.75 23.5,41.61 46.6,39.25 27.1,-2.24 68,-0.85 111.2,18.97 65.7,30.14 97.6,85.68 108.3,108.13 10.2,21.48 36,30.72 57.4,20.45 21.5,-10.22 30.7,-35.94 20.5,-57.41 -18.3,-38.49 -62.2,-109.07 -150.3,-149.52 -47.3,-21.7 -92.5,-27.64 -127.8,-27.64"
           style="fill:#212427;fill-opacity:1;fill-rule:nonzero;stroke:none"
           id="path60"
           inkscape:connector-curvature="0" /></g><g
         style="fill:#212427;fill-opacity:1"
         id="g62"
         transform="scale(0.220825,0.220825)"><path
           d="m 15981.9,7742.82 c -12.9,0 -25.6,5.62 -34.2,16.44 -15.1,18.84 -12,46.33 6.9,61.41 33.8,27.08 105,72.77 201,74.67 36.8,0.68 73.7,-5.02 109.4,-17.07 22.8,-7.74 35,-32.56 27.3,-55.43 -7.7,-22.82 -32.6,-35.09 -55.5,-27.35 -26,8.83 -53.4,12.63 -79.4,12.5 -70.2,-1.41 -123.1,-35.46 -148.3,-55.61 -8,-6.43 -17.7,-9.56 -27.2,-9.56"
           style="fill:#212427;fill-opacity:1;fill-rule:nonzero;stroke:none"
           id="path64"
           inkscape:connector-curvature="0" /></g><g
         style="fill:#ffffff"
         id="g66"
         transform="scale(0.245684,0.245684)"><path
           d="m 14397.6,7799.65 c 11.5,-90.11 41.8,-235.1 132.4,-387.28 101.1,-170.02 226.1,-262.46 318.3,-329.25 354.4,-256.71 726.3,-282.39 808.7,-286.54 281.2,-14.25 506.9,54.25 643,108.96 -70.7,308.89 -141.4,617.78 -212.2,926.72 -150.8,79.53 -534.7,255.36 -1030,193.74 -298,-37.08 -524.2,-146.12 -660.2,-226.35"
           style="fill:#ffffff;fill-opacity:1;fill-rule:nonzero;stroke:none"
           id="path68"
           inkscape:connector-curvature="0" /></g><g
         style="fill:#212427;fill-opacity:1"
         id="g70"
         transform="scale(0.247606,0.247606)"><path
           d="m 15567.5,6711.02 c -154.4,0 -425.6,16.68 -708.3,172.29 -92.5,50.89 -264.6,145.6 -402.7,347.61 -78.8,115.39 -132.9,245.35 -160.5,386.26 -3.3,16.44 7.4,32.35 23.9,35.58 15.8,3.19 32.3,-7.39 35.5,-23.91 26.2,-132.79 77,-255.16 151.2,-363.72 129.9,-190.1 293.8,-280.25 381.8,-328.71 313.1,-172.29 613.5,-166.47 741.8,-164.01 212.8,4.08 422.6,49.15 623.6,133.92 15.3,6.46 33.2,-0.68 39.7,-16.19 6.5,-15.39 -0.8,-33.2 -16.2,-39.7 -208,-87.76 -425.4,-134.45 -645.9,-138.65 -18.1,-0.32 -39.5,-0.77 -63.9,-0.77"
           style="fill:#212427;fill-opacity:1;fill-rule:nonzero;stroke:none"
           id="path72"
           inkscape:connector-curvature="0" /></g><g
         style="fill:#ffffff"
         id="g74"
         transform="scale(0.225566,0.225566)"><path
           d="m 15269.3,7852.1 c 3.5,-23.54 12.2,-53.68 35.9,-75.36 77.6,-71.02 250.2,10.73 368.6,60.56 90.6,38.17 275.2,128.87 440.3,316.45 156,177.19 176.9,307 181,336.48 4.2,29.93 4.9,55.15 4.8,72.62 -44.2,61.13 -88.3,122.27 -132.5,183.41 -59.1,-55.16 -147.7,-120.1 -266.9,-145.11 -93.2,-19.5 -133.2,0.4 -182.3,-34.44 -90,-63.98 -52.8,-200.34 -89.2,-335.82 -28.2,-105.25 -110.4,-245.7 -359.7,-378.79"
           style="fill:#ffffff;fill-opacity:1;fill-rule:nonzero;stroke:none"
           id="path76"
           inkscape:connector-curvature="0" /></g><g
         style="fill:#212427;fill-opacity:1"
         id="g78"
         transform="scale(0.223288,0.223288)"><path
           d="m 15428.7,7751.34 c -16.3,0 -30.7,11.96 -33.2,28.62 -2.8,18.32 9.8,35.47 28.2,38.25 199.8,30.45 483.5,115.86 699.9,349.86 40.4,43.58 77.3,91.32 109.8,141.92 10,15.59 30.8,20.16 46.5,10.13 15.6,-10.03 20.1,-30.86 10.1,-46.49 -34.6,-53.88 -74,-104.75 -117,-151.24 -229.7,-248.25 -528.7,-338.58 -739.2,-370.64 -1.7,-0.27 -3.4,-0.41 -5.1,-0.41"
           style="fill:#212427;fill-opacity:1;fill-rule:nonzero;stroke:none"
           id="path80"
           inkscape:connector-curvature="0" /></g><g
         id="g82"
         transform="scale(0.211594,0.211594)"><path
           d="m 11040.9,1791.16 c -410.2,17.63 -713.5,173.92 -737.6,379.97 -14.2,121.18 76.7,224.44 120.4,274.07 166.2,188.94 410.4,221.84 549.1,223.58 0,0.9 0,1.8 0.1,2.7 1.1,14.65 10.2,27.5 23.7,33.32 45.2,19.47 88.5,43.62 128.8,71.83 35.7,24.96 69.3,53.31 99.8,84.32 7.6,7.65 17.8,11.72 28.1,11.72 5.2,0 10.5,-1.04 15.4,-3.17 39.9,-17.06 78.1,-38.47 113.4,-63.61 27.7,-19.76 53.9,-41.92 78,-66.12 26.6,5.81 61.4,13.37 101.6,22.26 3.6,0.8 361.5,80.01 691,164.61 1195.6,306.95 1917.2,492.26 2341.4,1063.21 46.5,62.67 62.6,93.48 84.9,136.16 26.3,50.23 58.9,112.76 151.7,250.57 249.5,370.33 546.3,708.29 882.1,1004.42 7.4,6.43 16.6,9.83 26.1,9.83 3.9,0 7.8,-0.57 11.6,-1.75 146.3,-45.23 263,-118.15 347,-216.78 147.2,-172.92 202.5,-448.41 155.7,-775.78 -42.7,-299.25 -168,-628.56 -352.9,-927.24 -199.3,-322.08 -454.4,-590.85 -737.9,-777.2 -224.3,-147.5 -409.8,-207.94 -717.1,-308.04 -380.3,-123.96 -907,-177.22 -1863,-274.01 l -30.5,-3.07 c -119.1,-12.01 -435.5,-43.96 -854.2,-88 l -132.4,-13.95 c -90.5,-70.74 -188.8,-124.48 -292.3,-159.78 -8.5,-2.88 -16.2,-5.39 -24.6,-7.8 -76.6,-21.74 -145.6,-37.62 -199.8,-45.89 -1.9,-0.28 -3.9,-0.42 -5.9,-0.42 -0.6,0 -1.1,0 -1.7,0.04"
           style="fill:#ffffff;fill-opacity:1;fill-rule:nonzero;stroke:none"
           id="path84"
           inkscape:connector-curvature="0" /></g><g
         style="fill:#212427;fill-opacity:1"
         id="g86"
         transform="scale(0.21417,0.21417)"><path
           d="m 15549.6,5364.85 c -18.7,0 -37,-6.72 -51.4,-19.42 -334.4,-294.72 -629.8,-631.09 -878,-999.77 -93,-137.97 -125.8,-200.77 -152.2,-251.25 -21.9,-42.11 -36.5,-69.9 -80.6,-129.33 -410.9,-553.07 -1118.8,-734.84 -2291.7,-1035.96 -320.1,-82.22 -671.6,-160.15 -681.2,-162.3 -0.1,0 -0.2,0 -0.2,-0.04 -30.1,-6.64 -57.1,-12.56 -79.9,-17.51 -21,19.65 -43.3,37.91 -66.6,54.53 -37.2,26.48 -77.3,48.98 -119.3,66.91 -9.9,4.2 -20.2,6.26 -30.6,6.26 -20.3,0 -40.4,-7.99 -55.3,-23.11 -28.6,-28.95 -60,-55.47 -93.3,-78.77 -37.6,-26.34 -78.1,-48.94 -120.3,-67.1 -15.9,-6.86 -28.8,-18.63 -37,-33.15 -146.9,-6.02 -379.7,-47.91 -542.9,-233.32 -46.8,-53.28 -144.3,-164.08 -128.3,-300.98 26,-223 340.9,-391.51 765.7,-409.76 1.1,-0.05 2.2,-0.1 3.3,-0.1 3.9,0 7.8,0.28 11.8,0.89 55,8.4 124.8,24.47 202,46.36 8.2,2.34 16.3,4.91 26.4,8.32 102.9,35.11 200.8,87.96 291.2,157.16 37.5,3.92 90.7,9.53 119.8,12.61 413.9,43.51 726.4,75.08 844.1,86.94 l 29.8,2.99 c 947.2,95.9 1469,148.71 1848.8,272.44 296.1,96.51 491.8,160.25 717.7,308.82 284.8,187.24 540.9,456.88 740.8,779.9 185.3,299.53 311.1,630.2 354.1,931.03 23,161 22.2,309.48 -2.5,441.24 -26.6,142.51 -80.6,262.27 -160.3,355.94 -87.8,103.14 -209.3,179.2 -360.9,226.08 -7.6,2.33 -15.3,3.45 -23,3.45 l 0,0 z m 0,-77.74 c 152.7,-47.16 255,-120.33 324.7,-202.22 425.7,-499.98 -32.7,-1812.26 -915.6,-2392.73 -217.2,-142.78 -401.6,-202.87 -699.1,-299.81 -364.4,-118.74 -858.7,-170.47 -1832.5,-268.99 -84.5,-8.59 -417.9,-42.02 -874.2,-90.02 -35.6,-3.74 -107,-11.25 -142,-14.94 -71,-56.73 -165.8,-117.53 -286.1,-158.57 -7.7,-2.61 -14.8,-4.9 -22.4,-7.1 -79.5,-22.55 -145.3,-37.07 -192.6,-44.26 -399.7,17.18 -671.8,169.96 -691.8,341.09 -11.9,102.53 68.6,194 109.5,240.55 157.8,179.34 391,207.78 525.4,207.78 48.3,0 83.8,-3.69 98.5,-5.37 -24.7,15.18 -48.5,29.79 -71.7,44.03 38.8,16.72 85.3,40.58 134.2,74.85 42.7,29.84 77.1,60.51 104,87.83 29.9,-12.8 66.4,-31.43 104.8,-58.79 36.7,-26.1 65.2,-53.09 86.5,-76.2 27.9,5.98 70.3,15.22 121.9,26.61 0,0 358.6,79.38 684,162.91 1198.8,307.8 1907.5,489.75 2334.7,1064.95 101.7,136.86 64,129.9 234.8,383.53 310.9,461.46 637.3,784.05 865,984.87 l 0,0"
           style="fill:#212427;fill-opacity:1;fill-rule:nonzero;stroke:none"
           id="path88"
           inkscape:connector-curvature="0" /></g><g
         style="fill:#212427;fill-opacity:1"
         id="g90"
         transform="scale(0.26894,0.26894)"><path
           d="m 16281.5,2475.83 c -17.8,-8.7 -35.7,-17.07 -53.8,-25.14 -10.1,-4.61 -20.1,-9.15 -30.3,-13.42 l -0.1,0 c -136,-58.75 -277.9,-102.7 -423,-130.96 -1.5,-0.3 -3,-0.52 -4.5,-0.86 -0.4,-0.11 -1,-0.22 -1.5,-0.29 -120.3,-23.02 -243.4,-35.36 -366.2,-36.55 -6.8,-0.11 -13.6,-0.11 -20.4,-0.11 0,0 -1.3,0 -1.9,0 -10.2,-146.51 -25.5,-292.89 -45.8,-438.36 -2.1,-15.57 -4.4,-31.27 -6.6,-46.81 -1.9,-12.45 -3.7,-24.95 -5.6,-37.4 -28.9,-190.01 -66.3,-378.3 -111.7,-563.51 -2,-7.92 -4,-15.99 -6.1,-23.95 -2.4,-10.3 -5.1,-20.71 -7.8,-31.05 -2.5,-9.77 -5,-19.52 -7.5,-29.3 -0.1,-0.55 -0.2,-1.07 -0.5,-1.63 l -68.6,0 c -46.6,-1.08 -95.8,-2.05 -147.9,-3.01 0,0 -216.2,-3.95 -504.9,-3.95 -174.8,0 -376.2,1.38 -572.4,6.1 -11.7,0.34 -23,0.56 -34,0.86 l -1311.8,0 c 0,10.33 0,20.63 -0.2,30.93 0.1,10.45 0,20.75 -0.2,31.05 0,4.72 0,9.37 -0.2,13.98 -0.4,32.2 -1.1,64.22 -2.1,96.12 -0.9,29.67 -2.1,59.31 -3.5,88.72 -8.5,177.25 -12.7,266.3 -35.6,374.58 -18,86.04 -36.6,138.54 -54.5,189.37 -18.7,53.17 -36.4,103.34 -49.6,182.39 -14.8,88.53 -18.1,179.18 -10.3,270.46 -19.4,-20.07 -39.7,-39.52 -60.6,-58.11 -33.7,-30.16 -69.6,-58.64 -106.8,-84.52 -5.4,-3.75 -11.6,-5.58 -17.8,-5.58 -8.4,0 -16.8,3.42 -22.8,10.08 -155.7,170.78 -297.1,356.4 -420.6,551.5 -109.8,173.79 -207,357.55 -288.7,546.4 -4.3,10.11 -3,21.71 3.4,30.49 175.9,240.95 314.6,436.56 436.3,615.71 38.4,56.52 241.4,346.1 467.3,495.54 16,10.63 30.2,19.22 30.3,19.33 146.5,89.02 281.3,111.15 400.2,130.7 l 18,3.01 c 133.4,22.02 275.8,49.94 423.5,82.81 2.3,0.45 4.5,0.78 6.8,0.78 5.9,0 11.8,-1.74 16.9,-5.05 7,-4.62 11.9,-11.83 13.5,-19.97 15.5,-79.28 62.7,-228.27 203.5,-335.47 35.1,-26.77 109.4,-74.77 212.2,-95.93 34,-6.99 68.8,-10.52 103.4,-10.52 139.2,0 255.6,56.7 332.5,94.3 199.2,97.12 325.4,246.85 396.1,355.35 5.2,7.92 13.7,13.09 23.1,13.95 41.1,3.64 82.6,5.57 123.6,5.57 96.8,0 193.7,-10.41 287.8,-30.93 60.9,-13.31 107.5,-28.04 138.2,-37.82 230.1,-73.03 390.3,-170.56 407.8,-181.53 210.2,-130.62 316.8,-352.42 440.1,-609.35 175.6,-365.84 236.5,-695.62 280.9,-936.34 25.1,-136.31 44.8,-274.89 58.2,-411.73 1.3,-12.9 -5.6,-25.24 -17.2,-30.93"
           style="fill:#212427;fill-opacity:1;fill-rule:nonzero;stroke:none"
           id="path92"
           inkscape:connector-curvature="0" /></g><g
         style="fill:#212427;fill-opacity:1"
         id="g94"
         transform="scale(0.269471,0.269471)"><path
           d="m 16297.4,2504.84 c -13.5,137.42 -33.2,276.58 -58.4,413.47 -44.7,241.96 -105.8,573.46 -282.9,942.33 -125.2,260.74 -233.3,485.96 -450.8,621.04 -17.8,11.17 -180.9,110.32 -413.9,184.4 -31.4,9.87 -78.5,24.86 -140.8,38.37 -96,21 -194.9,31.61 -293.8,31.61 -41.8,0 -84.2,-1.92 -126.1,-5.67 -18.8,-1.71 -35.8,-11.99 -46.2,-27.87 -68.4,-104.95 -190.4,-249.9 -383,-343.71 -78.6,-38.38 -186.5,-91 -318.1,-91 -32.6,0 -65.2,3.31 -97,9.99 -96.8,19.81 -166.4,64.83 -199.4,89.91 -132.4,100.9 -176.8,241.44 -191.5,316.25 -3.2,16.29 -13,30.69 -26.9,39.78 -10.1,6.65 -21.9,10.1 -33.8,10.1 -4.5,0 -9,-0.56 -13.4,-1.52 -146.9,-32.7 -288.6,-60.34 -421.1,-82.31 l -17.9,-2.9 c -121.5,-20.07 -259.1,-42.67 -410.5,-134.67 -1.6,-0.96 -15.7,-9.65 -31.2,-19.82 -230.2,-152.33 -436,-445.65 -474.9,-502.91 -121.4,-178.61 -259.5,-373.58 -434.8,-613.72 -12.9,-17.7 -15.5,-40.86 -6.8,-61.01 82.1,-189.85 179.9,-374.81 290.4,-549.52 124.2,-196.2 266.4,-382.83 422.9,-554.68 12.1,-13.29 28.8,-20.15 45.7,-20.15 12.3,0 24.7,3.64 35.4,11.02 38.1,26.61 75,55.74 109.6,86.73 1.7,1.52 3.3,2.89 5,4.41 -1.2,-66.91 3.8,-133.15 14.6,-198.46 13.6,-81.46 31.7,-132.82 50.9,-187.15 17.5,-49.76 35.6,-101.23 53.3,-185.14 22.3,-105.61 26.5,-193.64 34.9,-368.9 3,-65.06 5,-130.89 5.7,-196.95 0.2,-10.39 0.2,-20.67 0.2,-30.98 0.3,-10.28 0.3,-20.56 0.3,-30.88 l 61.7,0 c 0,6.35 0,12.54 -0.1,18.67 l 0,12.21 c 0,10.5 -0.1,20.82 -0.3,30.98 0,5.5 -0.1,10.84 -0.2,16.11 0,0.07 0,0.07 0,0.07 -0.5,33.03 -1.2,64.24 -2.1,93.7 0,0 0,0 0,0.12 -0.7,24.56 -1.6,47.72 -2.5,69.58 -0.4,6.86 -0.7,13.62 -1,20.26 -8.6,178.91 -12.9,268.34 -36.1,378.74 -37.8,179.58 -78.8,220.44 -103.7,369.76 -25,149.96 -11.7,277.44 3.2,361.16 -33,-40.82 -74.2,-85.95 -124.9,-131.22 -36,-32.14 -71.2,-59.27 -103.9,-82.09 -131.1,143.95 -276.6,325.05 -416.3,546.07 -123,194.38 -215.7,378.78 -285.9,541.06 183.7,251.72 320.8,445.99 436,615.36 15.2,22.41 225.9,332.76 457.8,486.17 15,9.99 28.6,18.22 29.2,18.56 148.4,90.17 282.7,108.91 406.4,129.4 99.7,16.51 241.3,42.23 424.4,82.98 10.4,-52.77 52,-229.42 214.7,-353.36 27.1,-20.67 106.7,-77.19 224.3,-101.42 37.9,-7.83 74.5,-11.14 109.6,-11.14 145.9,0 265.6,58.3 345.3,97.12 217.6,106.13 344.9,269.53 407.6,365.68 34.4,3 74.9,5.34 120.5,5.34 79.9,0 175.5,-7.16 280.6,-30.09 58.9,-12.88 102.9,-26.83 135.2,-37 191.1,-60.68 342.5,-142.17 400.1,-177.87 202,-125.62 305.6,-341.34 427.6,-595.39 170.1,-354.21 230.5,-670.02 277.9,-926.78 31.3,-169.81 48.2,-311.65 57.7,-408.36 -22.7,-11.02 -47,-22.3 -72.7,-33.65 -108.7,-47.5 -243.8,-95.41 -402.4,-128.22 -7.8,-1.59 -15.6,-3.23 -23.4,-4.71 -145.3,-28.32 -276.4,-37.19 -386,-37.19 -10.4,0 -20.6,0.08 -30.7,0.3 -10.5,-158.46 -27.2,-324.6 -52,-497.31 -1.6,-11.46 -3.3,-22.93 -5.1,-34.4 -1.6,-10.95 -3.3,-21.78 -4.9,-32.8 -27.1,-174.98 -62.7,-356.48 -108.6,-543.33 -2.5,-10.39 -5.1,-20.82 -7.8,-31.21 -2.6,-10.39 -5.2,-20.67 -7.8,-30.98 -2.6,-9.95 -5.2,-19.93 -7.8,-29.91 -0.1,-0.3 -0.2,-0.63 -0.2,-0.97 l 63.9,0 c 0.1,0.78 0.4,1.63 0.6,2.38 2.4,9.53 4.9,19.07 7.2,28.5 2.7,10.42 5.3,20.7 7.9,30.98 1.4,5.5 2.6,11.06 4.1,16.52 47.6,194.16 86.4,391.73 116,591.12 2.6,18.03 5.2,36.03 7.7,54.14 19.3,137.87 34,276.47 44.4,415.41 3,0 6.1,0.11 9.1,0.22 110,1.82 220.3,12.43 328.4,31.73 0.1,0 0.1,0 0.2,0 11.1,1.93 22.1,3.97 33.2,6.12 138.1,26.8 273.1,67.66 403.2,121.98 9.5,3.86 19.1,7.95 28.5,12.14 9.4,3.97 18.9,8.13 28.3,12.54 18,8.02 36,16.4 53.8,25.09 23.3,11.24 37,35.92 34.4,61.64"
           style="fill:#212427;fill-opacity:1;fill-rule:nonzero;stroke:none"
           id="path96"
           inkscape:connector-curvature="0" /></g><g
         style="fill:#212427;fill-opacity:1"
         id="g98"
         transform="scale(0.21918,0.21918)"><path
           d="m 16300,5639.56 c -195.2,-42.34 -348.5,-70.04 -459.5,-88.38 -152.1,-25.18 -317.3,-48.32 -499.6,-159.14 -0.8,-0.45 -17.5,-10.63 -36,-22.81 -285,-188.66 -544.1,-570.26 -562.9,-597.68 -127.5,-187.61 -277,-400.13 -470.6,-666.62 -41.1,-56.53 -48.1,-130.85 -18.8,-194.31 79.7,-172.83 179.5,-362.58 305,-560.87 142.3,-225.02 289.4,-416.41 427.3,-576.1 -2.1,-1.55 -4.2,-3.05 -6.3,-4.47 -161.2,176.93 -340,399.63 -511.8,671.46 -151.2,238.93 -265.2,465.59 -351.6,665.2 225.9,309.38 394.4,548.23 536,756.55 18.7,27.46 277.9,409.07 563,597.59 18.5,12.27 35.2,22.4 35.8,22.81 182.4,110.82 347.6,133.95 499.7,159.14 122.5,20.3 296.6,51.92 521.7,102.06 4.1,-21.17 12.4,-58.53 28.6,-104.43"
           style="fill:#212427;fill-opacity:1;fill-rule:nonzero;stroke:none"
           id="path100"
           inkscape:connector-curvature="0" /></g><g
         id="g102"
         transform="scale(0.200627,0.200627)"><path
           d="m 16300,1747.92 -5396.6,0 -604.7,2861.13 c -45.8,216.82 119.5,420.83 341.1,420.83 l 4683.9,0 c 164.7,0 307,-115.39 341.1,-276.63 L 16300,1747.92"
           style="fill:#fbebbf;fill-opacity:1;fill-rule:nonzero;stroke:none"
           id="path104"
           inkscape:connector-curvature="0" /></g><g
         id="g106"
         transform="matrix(0.200627,0,0,0.20416462,0,-17.793814)"><path
           d="m 16300,1747.92 -5396.6,0 -604.7,2861.13 c -45.8,216.82 119.5,420.83 341.1,420.83 l 4683.9,0 c 164.7,0 307,-115.39 341.1,-276.63 L 16300,1747.92"
           style="fill:#ffffff;fill-opacity:1;fill-rule:nonzero;stroke:none"
           id="path108"
           inkscape:connector-curvature="0" /></g><g
         id="g110"
         transform="scale(0.226302,0.226302)"><path
           d="m 16225.9,1414.61 -6478.5,0 c -32.53,0 -60.45,23.24 -66.37,55.24 l -14.72,79.76 6615.79,0 10.2,-55.24 c 7.7,-41.49 -24.2,-79.76 -66.4,-79.76"
           style="fill:#ffffff;fill-opacity:1;fill-rule:nonzero;stroke:none"
           id="path112"
           inkscape:connector-curvature="0" /></g><g
         style="fill:#212427;fill-opacity:1"
         id="g114"
         transform="scale(0.226793,0.226793)"><path
           d="m 9412.3,4388.68 c -81.97,0 -158.6,-36.51 -210.24,-100.18 -51.59,-63.67 -71.52,-146.21 -54.58,-226.42 l 534.89,-2531.03 14.95,-80.56 c 2.56,-13.98 14.81,-24.16 29.01,-24.16 l 6464.57,0 c 12,0 19.4,6.7 22.7,10.62 3.3,3.97 8.5,12.44 6.3,24.25 l -4.5,24.17 -1714.2,0 c -65.1,0 -122.2,46.25 -135.7,110.01 l -544.9,2578.61 c -26.4,124.43 -137.7,214.69 -264.9,214.69 l -4143.4,0 z m 6778.6,-3038.02 -6464.57,0 c -50.66,0 -94.18,36.2 -103.4,86.07 l -14.72,79.59 -534.68,2530.11 c -21.69,102.65 3.71,208.25 69.8,289.73 66.05,81.44 164.12,128.18 268.97,128.18 l 4143.4,0 c 162.7,0 305.2,-115.52 338.8,-274.7 l 545,-2578.56 c 6.1,-29.02 32.1,-50.05 61.7,-50.05 l 1777.2,0 15.9,-86.07 c 5.7,-30.82 -2.5,-62.3 -22.6,-86.38 -20,-24.07 -49.5,-37.92 -80.8,-37.92"
           style="fill:#212427;fill-opacity:1;fill-rule:nonzero;stroke:none"
           id="path116"
           inkscape:connector-curvature="0" /></g><g
         id="g126"
         transform="scale(0.267774,0.267774)"><path
           d="m 16299.5,2153.9 c -7.5,-829.31 -133.6,-916.7 -181.1,-949.6 -14,-9.71 -28.8,-17.03 -58.1,-31.6 -6.5,-3.24 -12.9,-6.27 -19.2,-9.18 -26,-12.18 -51.5,-22.45 -77.4,-31.18 -40.1,-13.71 -81.1,-23.61 -125.8,-31.08 l -652.4,0 c -46.9,-1.08 -96.3,-2.05 -148.6,-3.02 0,0 -217.2,-3.96 -507,-3.96 -175.7,0 -378,1.38 -575,6.13 -11.7,0.33 -23.1,0.56 -34.1,0.85 l -1220,0 c -14.4,9.6 -26.7,19.98 -37,31.08 -9.2,9.82 -16.7,20.27 -22.7,31.18 -2.9,5.3 -5.3,10.68 -7.4,16.21 0,0.07 0,0.07 0,0.07 -1.5,3.7 -2.7,7.47 -3.8,11.24 -5.9,21.03 -8,48.77 1.7,83.06 0,0 0,0 0,0.11 10.8,38.31 36,84.7 86.5,138.85 77.4,83.05 176.1,106.47 287.7,126.67 292.6,52.73 554.2,57.4 818.6,57.7 l 24.7,0 c 54.7,0 78.6,-0.23 97.5,-0.41 12.3,-0.11 22.5,-0.23 37.7,-0.23 8.8,0 19.4,0 33,0.12 158.4,1.08 327.7,14.56 329.4,14.67 3.4,0.3 353.4,29.02 973,152.85 l 2.3,0.57 c 10.4,2.01 23.9,4.74 38.3,9.7 0.5,0.08 0.8,0.3 1.2,0.41 2.2,0.75 4.5,1.61 6.7,2.58 0.3,0.11 0.6,0.23 0.8,0.23 2.7,1.08 5.5,2.39 8.2,3.66 2.8,1.3 5.7,2.83 8.5,4.44 2.8,1.49 5.6,3.21 8.4,5.08 2.9,1.83 5.7,3.88 8.5,6.12 1.9,1.42 3.7,2.92 5.5,4.56 2,1.6 3.9,3.43 5.7,5.26 1.8,1.72 3.5,3.59 5.2,5.49 1.2,1.42 2.4,2.84 3.5,4.22 2,2.62 4,5.31 5.7,8.22 1,1.38 1.9,2.91 2.8,4.52 16.6,29.24 25.3,75.73 35.4,173.8 7.9,77.45 13.5,156.66 16.6,235.31 0.1,3.21 0.8,6.35 1.8,9.15 4.1,10.91 14.2,18.79 26.3,19.65 100,6.9 200.3,20.91 298.3,41.75 9.2,1.94 18.4,3.99 27.6,6.05 0.5,0.07 1,0.18 1.5,0.3 137.6,31.18 272.8,76.29 402.2,133.88 3.8,1.75 8.1,2.61 12.3,2.61 5,0 10,-1.31 14.7,-3.88 0,0 0,-0.11 0.1,-0.23 l 0.2,0 c 7.9,-4.63 13.4,-12.73 14.7,-21.99 0.3,-1.76 0.5,-3.36 0.7,-5.08 6.6,-50.19 11.2,-101.09 13.7,-151.7 2.9,-56.31 2.5,-99.15 2.4,-115.21"
           style="fill:#ffffff;fill-opacity:1;fill-rule:nonzero;stroke:none"
           id="path128"
           inkscape:connector-curvature="0" /></g><g
         style="fill:#212427;fill-opacity:1"
         id="g130"
         transform="scale(0.268269,0.268269)"><path
           d="m 15456.3,2243.61 c -3,-0.11 -6,-0.22 -9.1,-0.22 -10.4,-139.57 -25.2,-278.79 -44.6,-417.27 -0.9,-1.61 -1.9,-3.13 -2.9,-4.51 -1.7,-2.91 -3.6,-5.59 -5.7,-8.2 -1,-1.38 -2.2,-2.8 -3.4,-4.22 -1.7,-1.9 -3.5,-3.76 -5.2,-5.48 -1.8,-1.82 -3.7,-3.65 -5.7,-5.25 -1.8,-1.75 -3.6,-3.24 -5.4,-4.55 -2.8,-2.24 -5.6,-4.29 -8.5,-6.11 -2.9,-1.87 -5.7,-3.58 -8.5,-5.07 -2.8,-1.6 -5.7,-3.13 -8.5,-4.44 -2.7,-1.27 -5.5,-2.57 -8.2,-3.65 -0.2,0 -0.4,-0.11 -0.7,-0.23 -2.3,-0.96 -4.5,-1.82 -6.7,-2.57 -0.4,-0.11 -0.7,-0.33 -1.2,-0.41 -1.6,-10.99 -3.3,-21.88 -4.9,-32.95 10.2,2.8 21.5,6.56 33,11.82 11.5,5.4 23.4,12.37 34.7,21.43 4,3.36 8,6.79 11.8,10.66 35.9,35.86 47.6,81.64 61.1,214.19 6.4,62.66 13,142.81 16.8,236.59 90.4,6.34 192,19.05 301.7,42.31 -108.6,-19.38 -219.4,-30.04 -329.9,-31.87 z m 840.8,22.85 c -2.6,52.34 -7.4,105.08 -14.3,156.89 -0.2,1.83 -0.6,3.77 -1,5.6 -2.2,10.32 -6.7,20.01 -13.4,27.88 -0.8,0.97 -1.7,1.82 -2.5,2.68 -8.7,8.72 -19.2,14.24 -30.3,16.59 -4.1,0.97 -8.4,1.42 -12.6,1.42 -8.4,0 -16.7,-1.76 -24.5,-5.3 -118.4,-52.74 -241.6,-94.64 -367.1,-124.91 -19.1,-4.62 -38.3,-8.94 -57.4,-13.05 -96.3,-20.42 -195.1,-34.21 -293.5,-41.11 -15.7,-1.08 -29.8,-8.09 -39.8,-18.86 -9.6,-10.22 -15.6,-23.67 -16.3,-38.66 -3.1,-77.83 -8.7,-156.22 -16.5,-232.9 -11.1,-109.74 -20.4,-147.02 -35.5,-168 -2.5,-3.66 -5.3,-6.79 -8.2,-9.69 -8.3,-8.17 -17.6,-14.43 -27.1,-19.05 -17.5,-8.5 -35.5,-12.19 -49.2,-14.88 l -2.4,-0.41 c -611.9,-122.33 -959.5,-151.52 -967.5,-152.15 -0.2,0 -0.2,0 -0.3,0 -1.6,-0.12 -169.9,-13.46 -326.5,-14.54 -13.4,-0.12 -23.9,-0.12 -32.6,-0.12 -15,0 -25.2,0.12 -37.3,0.23 -19.1,0.18 -42.9,0.41 -97.7,0.41 l -24.7,0 c -265.4,-0.34 -528,-4.96 -822.4,-58.15 -116.8,-20.99 -220.3,-45.78 -303.8,-135.46 -29.8,-31.99 -51.5,-61.69 -66.9,-89.17 -14.4,-25.42 -23.4,-48.79 -28.4,-70 -9,-36.94 -6.3,-67.51 0.4,-91.1 0.5,-1.83 1,-3.55 1.6,-5.26 1.5,-4.74 3.2,-9.39 5.1,-14.02 4.6,-10.88 10.3,-21.21 17.2,-31.12 2.9,-4.18 5.9,-8.28 9.2,-12.27 5.4,-6.45 11.4,-12.71 17.8,-18.75 l 112,0 c -20.8,9.06 -39.3,19.39 -54.9,31.02 -12.8,9.39 -23.7,19.83 -32.2,31.12 -8.3,11 -14.3,22.85 -18,35.64 -22.9,81.33 61.8,172.33 81.1,192.87 69,74.21 156.7,96.8 270.5,117.38 287.6,51.92 545.7,56.84 811.7,57.18 l 24.7,0 c 90.1,0 96.1,-0.63 135,-0.63 8.9,0 19.4,0 33.1,0.11 161,1.08 330.9,14.72 330.9,14.72 0,0 347.2,27.59 974.6,153.13 8.1,1.64 18.3,3.58 29.9,6.71 10.2,2.8 21.5,6.56 33,11.82 11.5,5.4 23.4,12.37 34.7,21.43 4,3.36 8,6.79 11.8,10.66 35.9,35.86 47.6,81.64 61.1,214.19 6.4,62.66 13,142.81 16.8,236.59 90.4,6.34 192,19.05 301.7,42.31 0.1,0 0.1,0 0.2,0 173.1,36.72 319.7,89.8 436.6,141.95 0.5,-4.33 1.2,-8.73 1.7,-13.27 4.9,-39.29 9.7,-86.78 12.4,-140.72 2.7,-54.27 2.4,-95.32 2.3,-113.28 -7.1,-792.79 -123.2,-892.5 -167.8,-923.4 -12.2,-8.5 -26.2,-15.4 -54.3,-29.3 -28.7,-14.21 -56.6,-26.17 -84.8,-36.09 -38.2,-13.57 -77,-23.55 -119.4,-31.12 -126.1,-22.41 -284.1,-22.81 -554.1,-28.63 -10.5,-0.22 -21.3,-0.45 -32.3,-0.75 -10.5,-0.22 -21.3,-0.44 -32.2,-0.67 -0.7,-0.11 -1.6,-0.11 -2.3,-0.11 -11.5,-0.3 -23,-0.52 -34.7,-0.86 l 778.9,0 c 26.6,8.61 52.8,18.87 79.4,31.02 9.4,4.21 18.8,8.61 28.2,13.38 14.5,7.08 25.7,12.67 35.3,17.74 10.1,5.41 18.4,10.37 26.6,15.96 86.5,60.09 186.9,224.85 193.6,972.27 0.1,16.36 0.5,59.68 -2.4,116.86 z m -840.8,-22.85 c -3,-0.11 -6,-0.22 -9.1,-0.22 -10.4,-139.57 -25.2,-278.79 -44.6,-417.27 -0.9,-1.61 -1.9,-3.13 -2.9,-4.51 -1.7,-2.91 -3.6,-5.59 -5.7,-8.2 -1,-1.38 -2.2,-2.8 -3.4,-4.22 -1.7,-1.9 -3.5,-3.76 -5.2,-5.48 -1.8,-1.82 -3.7,-3.65 -5.7,-5.25 -1.8,-1.75 -3.6,-3.24 -5.4,-4.55 -2.8,-2.24 -5.6,-4.29 -8.5,-6.11 -2.9,-1.87 -5.7,-3.58 -8.5,-5.07 -2.8,-1.6 -5.7,-3.13 -8.5,-4.44 -2.7,-1.27 -5.5,-2.57 -8.2,-3.65 -0.2,0 -0.4,-0.11 -0.7,-0.23 -2.3,-0.96 -4.5,-1.82 -6.7,-2.57 -0.4,-0.11 -0.7,-0.33 -1.2,-0.41 -1.6,-10.99 -3.3,-21.88 -4.9,-32.95 10.2,2.8 21.5,6.56 33,11.82 11.5,5.4 23.4,12.37 34.7,21.43 4,3.36 8,6.79 11.8,10.66 35.9,35.86 47.6,81.64 61.1,214.19 6.4,62.66 13,142.81 16.8,236.59 90.4,6.34 192,19.05 301.7,42.31 -108.6,-19.38 -219.4,-30.04 -329.9,-31.87 z m 0,0 c -3,-0.11 -6,-0.22 -9.1,-0.22 -10.4,-139.57 -25.2,-278.79 -44.6,-417.27 -0.9,-1.61 -1.9,-3.13 -2.9,-4.51 -1.7,-2.91 -3.6,-5.59 -5.7,-8.2 -1,-1.38 -2.2,-2.8 -3.4,-4.22 -1.7,-1.9 -3.5,-3.76 -5.2,-5.48 -1.8,-1.82 -3.7,-3.65 -5.7,-5.25 -1.8,-1.75 -3.6,-3.24 -5.4,-4.55 -2.8,-2.24 -5.6,-4.29 -8.5,-6.11 -2.9,-1.87 -5.7,-3.58 -8.5,-5.07 -2.8,-1.6 -5.7,-3.13 -8.5,-4.44 -2.7,-1.27 -5.3,-2.46 -8.2,-3.65 -0.2,0 -0.4,-0.11 -0.7,-0.23 -2.3,-0.96 -4.5,-1.82 -6.7,-2.57 -0.4,-0.11 -0.7,-0.33 -1.2,-0.41 -1.6,-10.99 -3.3,-21.88 -4.9,-32.95 10.2,2.8 21.5,6.56 33,11.82 11.5,5.4 23.4,12.37 34.7,21.43 4,3.36 8,6.79 11.8,10.66 35.9,35.86 47.6,81.64 61.1,214.19 6.4,62.66 13,142.81 16.8,236.59 90.4,6.34 192,19.05 301.7,42.31 -108.6,-19.38 -219.4,-30.04 -329.9,-31.87"
           style="fill:#212427;fill-opacity:1;fill-rule:nonzero;stroke:none"
           id="path132"
           inkscape:connector-curvature="0" /></g><g
         id="g134"
         transform="scale(0.134752,0.134752)"><path
           d="m 15953.2,2892.21 c -87.6,0 -160.6,70.65 -162.7,157.4 -0.8,29.69 0.2,56.4 2.9,81.78 8.9,81.86 77.4,144.27 159.4,145.16 l 10.9,0.07 c 1.7,0.15 3.3,0.23 5,0.23 l 32,0.07 c 82.5,0 135.9,-1.71 181.8,-25.46 28.2,-14.47 52.7,-34.65 72.5,-59.88 0.3,-0.37 1.4,-1.71 1.7,-2.08 12.8,-17.22 34.4,-46.01 37.1,-88.53 6.2,-88.09 -73.1,-143.3 -89,-153.47 -14.2,-9.65 -39.9,-23.82 -73.6,-31.24 -27.4,-5.49 -78.6,-12.92 -157.6,-22.79 -6.7,-0.81 -13.6,-1.26 -20.3,-1.26 0,0 0,0 -0.1,0"
           style="fill:#ffffff;fill-opacity:1;fill-rule:nonzero;stroke:none"
           id="path136"
           inkscape:connector-curvature="0" /></g><g
         style="fill:#212427;fill-opacity:1"
         id="g138"
         transform="scale(0.135265,0.135265)"><path
           d="m 15939.9,3326.06 c -10.1,0 -20.7,0 -31.9,-0.07 -2.5,0 -4.9,-0.07 -7.3,-0.22 l -8.1,-0.08 c -0.2,0 -1.3,0 -1.5,0 -112.3,-1.25 -206.6,-87.08 -218.8,-199.53 -3.1,-28.02 -4.2,-57.3 -3.4,-89.68 3.1,-119.54 103.5,-216.83 223.8,-216.83 9.3,0 18.7,0.59 28,1.77 106.7,13.31 142.7,19.67 160.5,23.22 0.6,0.15 1.4,0.3 2,0.44 42.1,9.32 74.5,26.76 94.6,40.22 60.5,39.11 122.2,114.14 115.5,208.7 -3.8,59.81 -34.4,100.62 -49.1,120.28 l -0.8,0.96 c -0.5,0.82 -1.1,1.56 -1.7,2.29 -25.2,32.17 -56.4,57.89 -92.7,76.45 -57.7,29.79 -120.2,32.08 -209.1,32.08 l 0,0 z m 0,-123.16 c 77.7,0 120.6,-1.78 152.9,-18.48 30.2,-15.46 46.9,-36.38 52.1,-42.96 10.2,-13.6 24,-31.49 25.6,-56.18 3.8,-54.49 -54.1,-93.08 -60.4,-97.07 -24.1,-16.41 -47.6,-21.59 -53.3,-22.85 -26.2,-5.32 -80.2,-12.86 -151.4,-21.8 -4.3,-0.52 -8.5,-0.74 -12.7,-0.74 -53.4,0 -99.3,42.06 -100.7,96.77 -0.6,24.69 0,49.09 2.7,73.26 5.5,50.49 47.5,89.16 98.2,89.75 0.3,0 0.6,0 0.9,0 9.8,0.08 12.5,-0.07 14.5,0.3 11.1,0 21.7,0 31.6,0 l 0,0"
           style="fill:#212427;fill-opacity:1;fill-rule:nonzero;stroke:none"
           id="path140"
           inkscape:connector-curvature="0" /></g><g
         id="g142"
         transform="scale(0.135445,0.135445)"><path
           d="m 15893.6,3216.29 c -99,0 -181.4,79.74 -183.9,177.79 -0.9,35.36 0.2,67.18 3.5,97.23 10.1,92.51 87.5,163.02 180.1,164.05 l 13.6,0.08 c 1.8,0.22 3.6,0.29 5.5,0.29 l 38.6,0.08 c 98,0 161.3,-2 214.3,-29.39 32.6,-16.68 60.7,-39.87 83.5,-68.88 0.3,-0.37 1.5,-1.99 1.8,-2.36 14.7,-19.64 39.4,-52.5 42.4,-100.04 7,-99.38 -83.5,-162.36 -101.7,-173.95 -16.5,-11.22 -46,-27.47 -84.8,-35.96 -32.7,-6.64 -94.4,-15.58 -189.8,-27.46 -7.7,-0.96 -15.5,-1.48 -23.1,-1.48 l 0,0"
           style="fill:#ffffff;fill-opacity:1;fill-rule:nonzero;stroke:none"
           id="path144"
           inkscape:connector-curvature="0" /></g><g
         style="fill:#212427;fill-opacity:1"
         id="g146"
         transform="scale(0.135956,0.135956)"><path
           d="m 15891,3703.32 c -12.2,0 -25,-0.07 -38.6,-0.07 -2.7,0 -5.3,-0.15 -8,-0.3 l 0,0 c -2.6,0 -6,0 -10.5,-0.07 l 0,-1.11 c -0.3,-0.07 -0.7,-0.07 -1,-0.14 0.3,0.07 0.7,0.07 1,0.14 l 0.2,-121.36 -1.4,122.47 c -123.2,-1.4 -226.2,-95.18 -239.5,-218.01 -3.6,-32.73 -4.8,-67.16 -3.9,-105.11 3.3,-130.63 113,-236.84 244.5,-236.84 10.2,0 20.5,0.66 30.5,1.91 96.5,12.06 159.5,21.18 192.7,27.88 0.6,0.15 1.3,0.29 2,0.44 47.1,10.37 83.3,30.01 105.7,44.94 67,43.25 135.3,125.7 128,228.75 -4.1,64.8 -37.9,109.96 -54.3,131.66 l -0.8,1.18 c -0.6,0.81 -1.2,1.54 -1.8,2.28 -28.2,35.89 -63,64.65 -103.6,85.47 -64.7,33.46 -134.3,35.89 -241.2,35.89 l 0,0 z m 0,-122.54 c 94.2,0 146.3,-2.21 185.3,-22.43 36.7,-18.76 56.9,-44.06 63.2,-52.08 12.4,-16.47 29.1,-38.17 31,-68.04 4.7,-66.12 -65.4,-112.9 -73.1,-117.76 -29.3,-19.85 -57.7,-26.11 -64.7,-27.65 -31.7,-6.4 -97.2,-15.59 -183.6,-26.4 -5.1,-0.67 -10.2,-0.96 -15.3,-0.96 -64.7,0 -120.3,51.04 -122,117.39 -0.8,29.94 0,59.43 3.2,88.7 6.7,61.2 57.6,108.13 119.1,108.86 0.4,0 0.7,0 1,0 11.9,0.08 15.1,-0.07 17.6,0.3 13.5,0.07 26.3,0.07 38.3,0.07 l 0,0"
           style="fill:#212427;fill-opacity:1;fill-rule:nonzero;stroke:none"
           id="path148"
           inkscape:connector-curvature="0" /></g><g
         id="g150"
         transform="scale(0.135736,0.135736)"><path
           d="m 15868.7,3588.43 c -103.7,0 -190.1,83.55 -192.8,186.17 -0.9,37.8 0.3,71.69 3.9,103.8 10.5,96.89 91.6,170.78 188.6,171.96 l 14.8,0.07 c 1.9,0.15 3.8,0.22 5.7,0.22 l 41.3,0.08 c 104.5,0 172,-2.07 227.9,-30.95 34.4,-17.68 64.1,-42.14 88.1,-72.71 0.3,-0.37 1.6,-2.06 1.9,-2.43 15.4,-20.7 41.4,-55.26 44.5,-104.91 7.4,-104.1 -87.9,-170.26 -107,-182.41 -17.5,-11.86 -48.6,-29.03 -89.5,-38.02 -34.9,-7.07 -101.1,-16.58 -203.3,-29.39 -7.9,-0.96 -16,-1.48 -24.1,-1.48 l 0,0"
           style="fill:#ffffff;fill-opacity:1;fill-rule:nonzero;stroke:none"
           id="path152"
           inkscape:connector-curvature="0" /></g><g
         style="fill:#212427;fill-opacity:1"
         id="g154"
         transform="scale(0.136247,0.136247)"><path
           d="m 15870.6,4096.67 c -13,0 -26.8,0 -41.5,-0.07 -2.7,0 -5.4,-0.08 -8.2,-0.3 l -0.3,0 c -2.8,0 -6.4,0 -11.2,-0.07 l -1.2,0 c -127.6,-1.47 -234.2,-98.5 -248,-225.69 -3.8,-34.79 -5.2,-71.27 -4.1,-111.56 3.4,-135.2 117,-245.15 253.1,-245.15 10.5,0 21.1,0.66 31.6,1.98 103.3,12.92 170.7,22.68 206.1,29.8 0.6,0.15 1.3,0.3 1.9,0.44 49.2,10.79 87,31.27 110.4,46.9 69.6,44.92 140.8,130.5 133.2,237.15 -4.2,66.79 -38.1,112.07 -56.3,136.37 l -1.1,1.32 c -0.5,0.73 -1.1,1.54 -1.6,2.27 -29.5,37.44 -65.9,67.45 -108.2,89.1 -67.6,35.02 -141.3,37.51 -254.6,37.51 l 0,0 z m 0,-122.2 c 101,0 156.9,-2.35 198.9,-24.08 39.2,-20.11 61,-47.26 67.7,-55.85 13.3,-17.76 31.3,-40.96 33.3,-73.1 5,-70.91 -70.3,-121.04 -78.4,-126.24 -31.6,-21.36 -62.1,-28.12 -69.5,-29.73 -34,-6.9 -104.3,-16.74 -197,-28.33 -5.5,-0.74 -11,-1.03 -16.4,-1.03 -69.4,0 -129.2,54.76 -130.9,125.95 -0.8,32.07 0,63.78 3.4,95.19 7.1,65.69 61.8,115.97 127.9,116.78 0.3,0 0.7,0 1.1,0 12.7,0.14 16.1,-0.08 18.8,0.36 14.5,0 28.1,0.08 41.1,0.08 l 0,0"
           style="fill:#212427;fill-opacity:1;fill-rule:nonzero;stroke:none"
           id="path156"
           inkscape:connector-curvature="0" /></g><g
         id="g158"
         transform="scale(0.134932,0.134932)"><path
           d="m 15896.3,4016.99 c -98.5,0 -180.7,79.37 -183.1,176.98 -0.9,35.05 0.2,66.62 3.5,96.57 10.1,92.04 87.1,162.23 179.2,163.34 l 13.5,0 c 1.8,0.22 3.7,0.29 5.5,0.29 l 38.1,0.08 c 97.4,0 160.3,-1.93 213.1,-29.2 32.3,-16.6 60.3,-39.65 83,-68.48 0.3,-0.37 1.5,-2 1.8,-2.37 14.6,-19.57 39.1,-52.25 42.1,-99.61 7,-99.01 -83,-161.64 -101.2,-173.2 -16.3,-11.04 -45.7,-27.19 -84.3,-35.72 -32.6,-6.6 -93.8,-15.41 -188.3,-27.27 -7.5,-0.97 -15.3,-1.41 -22.9,-1.41 l 0,0"
           style="fill:#ffffff;fill-opacity:1;fill-rule:nonzero;stroke:none"
           id="path160"
           inkscape:connector-curvature="0" /></g><g
         style="fill:#212427;fill-opacity:1"
         id="g162"
         transform="scale(0.135444,0.135444)"><path
           d="m 15893,4498.9 c -12.1,0 -24.9,-0.07 -38.4,-0.07 -2.7,0 -5.3,-0.08 -7.9,-0.3 -2.6,0 -5.9,0 -10.4,-0.07 l 0,-1.04 c -0.4,-0.07 -0.8,-0.14 -1.1,-0.21 0.3,0.07 0.7,0.14 1.1,0.21 l 0.2,-121.89 -1.4,121.68 c 0,0 0,0 -0.1,0 0.1,0 0.1,0 0.1,0 l 0,1.25 c -122.9,-1.4 -225.6,-94.88 -239,-217.51 -3.6,-32.48 -4.8,-66.67 -3.8,-104.4 3.3,-130.31 112.7,-236.26 243.9,-236.26 10.1,0 20.4,0.67 30.5,1.92 95.7,11.97 158.2,21.05 191.1,27.69 0.6,0.08 1.3,0.22 2,0.37 46.9,10.34 82.9,29.83 105.3,44.82 66.8,43.04 134.9,125.29 127.6,228.13 -4.1,64.68 -37.9,109.72 -54.1,131.35 l -0.8,1.18 c -0.6,0.74 -1.2,1.55 -1.8,2.29 -28.1,35.74 -62.8,64.38 -103.2,85.05 -64.6,33.37 -133.7,35.81 -239.8,35.81 l 0,0 z m 0,-123 c 93.3,0 144.9,-2.14 183.7,-22.22 36.3,-18.61 56.4,-43.71 62.6,-51.61 12.2,-16.39 28.8,-37.88 30.8,-67.48 4.6,-65.57 -65,-111.93 -72.5,-116.73 -29.1,-19.71 -57.3,-25.92 -64.2,-27.47 -31.5,-6.35 -96.4,-15.43 -182,-26.21 -5.1,-0.59 -10.2,-0.88 -15.2,-0.88 -64.2,0 -119.3,50.57 -121,116.36 -0.8,29.68 0,58.99 3.2,88 6.6,60.69 57.1,107.13 118.1,107.87 0.4,0 0.7,0 1,0 11.8,0.15 14.9,-0.07 17.4,0.3 13.4,0.07 26.1,0.07 38.1,0.07 l 0,0"
           style="fill:#212427;fill-opacity:1;fill-rule:nonzero;stroke:none"
           id="path164"
           inkscape:connector-curvature="0" /></g><g
         style="fill:#212427;fill-opacity:1"
         id="g166"
         transform="scale(0.254304,0.254304)"><path
           d="m 16267.7,2363.98 c -0.2,0 -0.4,0 -0.5,0 -16.4,0.32 -29.3,13.77 -29.1,30.05 2.8,153.16 -4,308.09 -20.4,460.51 -17.1,160.91 -45.2,322.06 -83.1,478.88 -3.8,15.84 5.9,31.77 21.7,35.62 15.9,3.86 31.8,-5.89 35.6,-21.74 38.6,-159.34 67,-323 84.5,-486.47 16.6,-154.85 23.6,-312.26 20.8,-467.86 -0.3,-16.13 -13.5,-28.99 -29.5,-28.99"
           style="fill:#212427;fill-opacity:1;fill-rule:nonzero;stroke:none"
           id="path168"
           inkscape:connector-curvature="0" /></g><g
         style="fill:#212427;fill-opacity:1"
         id="g170"
         transform="scale(0.2069,0.2069)"><path
           d="m 16125.3,3105.75 c -1.6,0 -3.3,0.15 -4.9,0.34 -19.9,2.75 -33.7,21.02 -31.1,40.89 15.9,115.71 37.5,231.56 64.3,344.27 20.4,85.99 44.3,172.5 71.1,257.03 6.1,19.1 26.5,29.73 45.6,23.64 19.2,-6.04 29.7,-26.49 23.7,-45.53 -26.4,-82.89 -49.8,-167.67 -69.8,-251.91 -26.3,-110.44 -47.4,-223.92 -63,-337.36 -2.4,-18.17 -18,-31.37 -35.9,-31.37"
           style="fill:#212427;fill-opacity:1;fill-rule:nonzero;stroke:none"
           id="path172"
           inkscape:connector-curvature="0" /></g><g
         style="fill:#212427;fill-opacity:1"
         id="g174"
         transform="scale(0.217068,0.217068)"><path
           d="m 15685.7,1401.5 c -3.9,0 -7.8,0.73 -11.5,2.3 -15.1,6.36 -22.2,23.63 -15.8,38.7 4.9,11.88 127.2,292.07 603.4,389.28 15.6,3.31 31.7,-7.05 34.9,-23.13 3.3,-16.03 -7,-31.7 -23.1,-34.97 -443.4,-90.47 -559.5,-351.55 -560.6,-354.17 -4.8,-11.24 -15.8,-18.01 -27.3,-18.01"
           style="fill:#212427;fill-opacity:1;fill-rule:nonzero;stroke:none"
           id="path176"
           inkscape:connector-curvature="0" /></g><g
         style="fill:#212427;fill-opacity:1"
         id="g178"
         transform="scale(0.220041,0.220041)"><path
           d="m 16298.4,1687.41 c 1.6,-16.13 -10.2,-30.45 -26.2,-31.99 -182.7,-18.27 -340.2,-145.11 -434.1,-239.5 -29.9,-30.04 -53.3,-56.86 -69,-75.76 l -73.2,0 c 0.8,2 1.9,3.82 3.2,5.68 2.7,3.77 23.1,31.49 57.8,70.08 90.1,100.3 277.9,274.54 509.5,297.62 16.4,1.87 30.3,-10.09 32,-26.13"
           style="fill:#212427;fill-opacity:1;fill-rule:nonzero;stroke:none"
           id="path180"
           inkscape:connector-curvature="0" /></g><g
         style="fill:#212427;fill-opacity:1"
         id="g182"
         transform="scale(0.22388,0.22388)"><path
           d="m 16273.8,1503.66 c -119.1,-20.14 -206.3,-66.19 -267.1,-112.02 -35.2,-26.58 -61.4,-53.15 -79.8,-74.46 l -72.9,0 c 11.5,16.93 32.1,44 63.4,74.46 64.9,62.85 175.7,139.9 346.9,168.66 15.2,2.73 30.6,-7.86 33.1,-23.49 2.6,-15.72 -7.9,-30.46 -23.6,-33.15"
           style="fill:#212427;fill-opacity:1;fill-rule:nonzero;stroke:none"
           id="path184"
           inkscape:connector-curvature="0" /></g><g
         style="fill:#212427;fill-opacity:1"
         id="g186"
         transform="matrix(0.16912466,0,0,0.21179621,1779.3636,98.10413)"><path
           d="m 16273.2,982.31786 -14610.19,0 c -14.77,0 -26.75,17.02941 -26.75,38.12024 l 0,3.9617 c 0,21.048 11.98,38.1202 26.75,38.1202 l 14610.19,0 c 14.8,0 26.8,-17.0722 26.8,-38.1202 l 0,-3.9617 c 0,-21.09083 -12,-38.12024 -26.8,-38.12024"
           style="fill:#212427;fill-opacity:1;fill-rule:nonzero;stroke:none"
           id="path188"
           inkscape:connector-curvature="0" /></g><g
         style="fill:#ffffff;fill-opacity:0.62745098"
         id="g256"
         transform="scale(0.230045,0.230045)"><path
           d="m 16221.3,9954.62 -1054.7,203.18 774.7,710.1 358.7,-389.6 -78.7,-523.68"
           style="fill:#ffffff;fill-opacity:0.62745098;fill-rule:nonzero;stroke:none"
           id="path258"
           inkscape:connector-curvature="0" /></g><g
         style="fill:#ffffff"
         id="g260"
         transform="scale(0.230509,0.230509)"><path
           d="m 15892.5,10873 c 12.6,7.9 29.6,6 40.1,-5.5 l 357.9,-388.8 c 6.6,-7.1 9.5,-16.7 8.1,-26.2 l -78.6,-522.63 c -1.3,-8.53 -6,-16.18 -13.1,-21.18 -7.2,-5.02 -15.8,-6.88 -24.2,-5.24 L 15130,10106.3 c -17.2,3.3 -28.4,19.9 -25.1,37.1 3.3,17.2 19.9,28.5 37.1,25.1 l 1020.2,-196.52 71.4,474.92 -326.2,354.4 -447,-409.7 c -13,-11.8 -33,-11 -44.8,2 -11.9,12.9 -11,32.9 1.9,44.8 l 470.4,431 c 1.4,1.4 3,2.5 4.6,3.6"
           style="fill:#ffffff;fill-opacity:1;fill-rule:nonzero;stroke:none"
           id="path262"
           inkscape:connector-curvature="0" /></g><g
         style="fill:#ffffff"
         id="g264"
         transform="scale(0.2305,0.2305)"><path
           d="m 15746.1,10329.7 c 2.3,1.5 4.9,2.7 7.6,3.5 l 501.5,153.7 c 16.8,5.2 34.5,-4.3 39.6,-21 5.2,-16.8 -4.3,-34.5 -21,-39.6 l -501.5,-153.7 c -16.8,-5.2 -34.5,4.3 -39.6,21 -4.3,14 1.6,28.7 13.4,36.1"
           style="fill:#ffffff;fill-opacity:1;fill-rule:nonzero;stroke:none"
           id="path266"
           inkscape:connector-curvature="0" /></g><g
         style="fill:#ffffff"
         id="g292"
         transform="scale(0.29051,0.29051)"><path
           d="m 13953.8,8353.79 c -1.9,0 -3.8,0.17 -5.7,0.53 -84,15.76 -169.5,25.72 -254.3,29.62 -17.1,0.79 -30.3,15.28 -29.5,32.37 0.8,17.09 15.2,30.35 32.4,29.52 87.6,-4.02 176,-14.32 262.8,-30.61 16.8,-3.16 27.9,-19.35 24.7,-36.16 -2.8,-14.89 -15.8,-25.27 -30.4,-25.27 z m -775.1,-21.24 c -13.9,0 -26.5,9.34 -30,23.37 -4.2,16.58 5.8,33.44 22.4,37.64 84.7,21.51 172.6,36.82 260.9,45.51 17.1,1.66 32.2,-10.78 33.9,-27.8 1.7,-17.03 -10.8,-32.19 -27.8,-33.87 -85.3,-8.38 -170,-23.15 -251.8,-43.89 -2.5,-0.65 -5.1,-0.96 -7.6,-0.96 z m 1267.3,-144.1 c -4.6,0 -9.4,1.06 -13.8,3.28 -75.8,37.92 -155.4,70.93 -236.4,98.12 -16.2,5.44 -24.9,23.01 -19.5,39.23 5.4,16.21 23,24.95 39.2,19.51 83.8,-28.1 166,-62.23 244.4,-101.44 15.3,-7.66 21.5,-26.27 13.9,-41.57 -5.5,-10.85 -16.4,-17.13 -27.8,-17.13 z m 425.6,-297.21 c -7.7,0 -15.4,2.84 -21.4,8.55 -9,8.64 -18.4,17.37 -27.9,25.93 -53.2,48.27 -110.4,93.85 -170.2,135.47 -14,9.78 -17.4,29.09 -7.7,43.13 9.8,14.04 29.1,17.49 43.2,7.71 61.9,-43.14 121.2,-90.39 176.3,-140.43 9.9,-8.9 19.6,-17.97 29.1,-26.95 12.4,-11.8 12.8,-31.42 1,-43.8 -6.1,-6.39 -14.3,-9.61 -22.4,-9.61 z m 288.4,-427.53 c -13,0 -25.1,8.29 -29.4,21.35 -24.5,74.95 -62.8,150.03 -113.8,223.15 -9.8,14.03 -6.4,33.34 7.7,43.13 14,9.79 33.3,6.34 43.1,-7.69 54.5,-78.08 95.5,-158.6 121.9,-239.31 5.3,-16.26 -3.5,-33.76 -19.8,-39.08 -3.2,-1.05 -6.5,-1.55 -9.7,-1.55 z m -607.5,-108.16 c -8.9,0 -17.6,3.78 -23.8,11.11 -10.9,13.13 -9.2,32.66 3.9,43.64 73.1,61.07 162,101.08 250.3,112.66 16.9,2.22 32.5,-9.72 34.7,-26.69 2.2,-16.97 -9.7,-32.52 -26.7,-34.75 -76.8,-10.06 -154.4,-45.14 -218.5,-98.76 -5.8,-4.85 -12.9,-7.21 -19.9,-7.21 z m 720.3,-45.6 c -6.3,0 -12.6,1.9 -18.1,5.83 -73.6,52.94 -148.1,92.36 -221.3,117.15 -16.2,5.49 -24.8,23.08 -19.3,39.29 5.4,16.2 23,24.89 39.2,19.39 79,-26.76 158.9,-69 237.6,-125.52 13.9,-9.99 17.1,-29.34 7.1,-43.24 -6.1,-8.42 -15.6,-12.9 -25.2,-12.9 z m -157.7,-349.65 c -5.4,0 -10.8,1.38 -15.8,4.3 -14.7,8.71 -19.6,27.71 -10.9,42.45 40.2,68.05 65.3,148.8 72.5,233.54 1.4,17.05 16.4,29.73 33.5,28.26 17,-1.44 29.7,-16.44 28.2,-33.48 -7.9,-93.97 -35.9,-183.82 -80.9,-259.85 -5.7,-9.78 -16,-15.22 -26.6,-15.22 z m 517.4,-24.2 c -9.7,0 -19.2,4.55 -25.3,13.05 -49.7,69.88 -104.2,136.48 -162.2,197.96 -11.8,12.43 -11.2,32.05 1.2,43.79 12.5,11.73 32,11.18 43.8,-1.28 60,-63.51 116.4,-132.35 167.8,-204.57 9.9,-13.94 6.6,-33.28 -7.4,-43.2 -5.4,-3.89 -11.7,-5.75 -17.9,-5.75 z m -1175.8,-42.3 c -9.6,0 -19,4.44 -25.1,12.77 -18.9,26.02 -33.7,54.52 -44,84.71 -11.4,33.63 -17.2,68.67 -17.2,104.13 0,28.09 3.7,56.62 10.9,84.85 4.2,16.59 21.1,26.57 37.6,22.37 16.6,-4.23 26.6,-21.1 22.4,-37.69 -5.9,-23.2 -8.9,-46.61 -8.9,-69.53 0,-28.67 4.7,-57 13.9,-84.2 8.3,-24.27 20.2,-47.23 35.4,-68.22 10.1,-13.84 7,-33.19 -6.8,-43.27 -5.5,-3.99 -11.9,-5.92 -18.2,-5.92 z m 307.7,-144.09 c -32.8,0 -65.7,3.54 -97.8,10.56 -16.7,3.69 -27.3,20.18 -23.6,36.9 3.7,16.73 20.2,27.3 36.9,23.65 27.7,-6.09 56.2,-9.15 84.5,-9.15 53.4,0 105.5,11.05 150.7,31.97 15.5,7.2 33.9,0.45 41.1,-15.07 7.2,-15.53 0.4,-33.94 -15.1,-41.14 -53.3,-24.68 -114.3,-37.72 -176.7,-37.72 z m 1110.2,-273.18 c -12.6,0 -24.4,7.75 -29.1,20.24 -29.6,80.14 -64.7,158.9 -104.2,234.11 -8,15.14 -2.2,33.87 13,41.82 15.1,7.99 33.8,2.17 41.8,-12.98 40.8,-77.55 77,-158.82 107.6,-241.47 5.9,-16.04 -2.3,-33.87 -18.4,-39.79 -3.5,-1.31 -7.1,-1.93 -10.7,-1.93 z m 115.4,-506.52 c -15.8,0 -29.3,12.05 -30.8,28.12 -7.9,84.51 -21.5,169.64 -40.6,253.01 -3.8,16.66 6.7,33.28 23.3,37.1 16.7,3.79 33.3,-6.64 37.1,-23.34 19.7,-85.98 33.8,-173.83 41.9,-261.02 1.6,-17.04 -10.9,-32.11 -27.9,-33.73 -1,-0.07 -2,-0.14 -3,-0.14 z m -583.5,-420.3 c -8.6,0 -17.1,3.55 -23.2,10.5 -11.4,12.84 -10.1,32.43 2.7,43.75 17.2,15.08 35.8,28.09 55.5,38.66 47.8,25.68 101.6,38.69 159.7,38.69 17.4,0 35.3,-1.2 53,-3.61 17,-2.28 28.9,-17.87 26.6,-34.84 -2.3,-16.93 -17.9,-28.84 -34.8,-26.57 -15.1,2.03 -30.1,3.06 -44.8,3.06 -47.8,0 -91.7,-10.53 -130.4,-31.32 -15.5,-8.33 -30.2,-18.59 -43.8,-30.57 -5.9,-5.2 -13.2,-7.75 -20.5,-7.75 z m 632.6,-249.45 c -11,0 -21.7,5.88 -27.3,16.24 -45.4,84.03 -94.5,148.74 -150,197.86 -12.8,11.36 -14,30.92 -2.7,43.75 11.3,12.81 30.9,14.01 43.7,2.66 13.7,-12.09 27,-25 40,-38.76 2.5,13.83 4.8,27.81 6.8,41.78 8.2,58.59 13.7,118.59 16.3,178.34 0.7,17.08 15.1,30.33 32.2,29.64 17.1,-0.72 30.4,-15.18 29.7,-32.25 -2.7,-61.75 -8.3,-123.78 -16.9,-184.4 -3.7,-26.71 -8.6,-53.46 -14.4,-79.45 -0.9,-4.3 -2.7,-8.19 -5.2,-11.53 26.3,-34.9 51.2,-74.14 75,-118.17 8.2,-15.08 2.6,-33.87 -12.5,-41.99 -4.7,-2.55 -9.7,-3.72 -14.7,-3.72 z m -614.4,-202.47 c -6.2,0 -12.5,1.86 -17.9,5.75 -54.3,38.72 -95.6,92.56 -116.2,151.66 -10.3,29.6 -15.8,61.06 -16.4,93.49 -0.3,17.11 13.3,31.22 30.4,31.53 0.2,0 0.4,0 0.6,0 16.9,0 30.7,-13.53 31,-30.43 0.4,-25.85 4.8,-50.81 12.9,-74.18 16.4,-47.09 49.7,-90.29 93.6,-121.61 14,-9.95 17.2,-29.3 7.3,-43.2 -6.1,-8.5 -15.6,-13.01 -25.3,-13.01 z m 247.5,-46.34 c -13.6,0 -26,8.92 -29.8,22.59 -4.6,16.48 5,33.59 21.4,38.2 71,19.93 131.9,68.99 181.2,145.75 9.2,14.39 28.4,18.59 42.8,9.33 14.4,-9.23 18.5,-28.4 9.3,-42.79 -57.7,-89.91 -130.5,-147.78 -216.5,-171.94 -2.8,-0.79 -5.6,-1.14 -8.4,-1.14 z m 543.4,-239.75 c -14.2,0 -27,9.78 -30.2,24.2 -18.8,83.82 -42.8,166.67 -71.3,246.36 -5.8,16.11 2.6,33.84 18.7,39.62 16.1,5.79 33.8,-2.61 39.6,-18.72 29.4,-82.07 54.1,-167.43 73.5,-253.7 3.7,-16.72 -6.8,-33.28 -23.5,-37 -2.3,-0.51 -4.6,-0.76 -6.8,-0.76 z m 53.2,-517.05 c -0.1,0 -0.2,0 -0.4,0 -17.1,0.2 -30.8,14.25 -30.5,31.36 0.1,9.57 0.1,19.1 0.1,28.67 0,76.14 -3.8,152.8 -11.5,227.88 -1.7,17 10.6,32.22 27.7,33.97 16.9,1.76 32.2,-10.67 33.9,-27.68 7.9,-77.14 11.9,-155.93 11.9,-234.17 0,-9.81 -0.1,-19.65 -0.2,-29.47 -0.2,-16.96 -14,-30.56 -31,-30.56 z m -64.4,-515.92 c -2.4,0 -4.8,0.27 -7.2,0.86 -16.6,3.99 -26.9,20.72 -22.9,37.35 19.9,83.06 35.3,168.08 45.9,252.79 2.1,16.97 17.7,28.99 34.6,26.89 17,-2.1 29.1,-17.59 26.9,-34.56 -10.9,-86.99 -26.7,-174.28 -47.2,-259.54 -3.4,-14.22 -16,-23.79 -30.1,-23.79 z m -177,-488.83 c -4.6,0 -9.3,1.07 -13.8,3.27 -15.3,7.61 -21.5,26.2 -13.9,41.51 37.8,76.04 71.7,155.49 100.9,236.17 5.8,16.08 23.6,24.41 39.7,18.59 16.1,-5.82 24.4,-23.58 18.6,-39.65 -30,-82.89 -64.9,-164.54 -103.7,-242.68 -5.4,-10.88 -16.4,-17.21 -27.8,-17.21 z m -285,-434.51 c -7.1,0 -14.2,2.44 -20,7.37 -13.1,11.05 -14.7,30.6 -3.6,43.64 54.7,64.54 106.3,133.7 153.3,205.57 9.4,14.32 28.6,18.31 42.9,8.95 14.3,-9.36 18.3,-28.57 9,-42.89 -48.5,-73.97 -101.6,-145.19 -158,-211.7 -6.1,-7.22 -14.8,-10.94 -23.6,-10.94"
           style="fill:#ffffff;fill-opacity:1;fill-rule:nonzero;stroke:none"
           id="path294"
           inkscape:connector-curvature="0" /></g><g
         style="fill:#ffffff"
         id="g308"
         transform="scale(0.129623,0.129623)"><path
           d="m 16044.3,13717 c -57.8,0 -104.9,-47.2 -104.9,-105 0,-58 47.1,-105 104.9,-105 58,0 105,47 105,105 0,57.8 -47,105 -105,105 z m 0,-360.7 c -140.9,0 -255.6,114.6 -255.6,255.7 0,140.9 114.7,255.6 255.6,255.6 141.1,0 255.7,-114.7 255.7,-255.6 0,-141.1 -114.6,-255.7 -255.7,-255.7"
           style="fill:#ffffff;fill-opacity:1;fill-rule:nonzero;stroke:none"
           id="path310"
           inkscape:connector-curvature="0" /></g><g
         style="fill:#ffffff"
         id="g316"
         transform="scale(0.134587,0.134587)"><path
           d="m 16053.8,13211 c -55.8,0 -101.2,-45.4 -101.2,-101.1 0,-55.8 45.4,-101.1 101.2,-101.1 55.7,0 101.1,45.3 101.1,101.1 0,55.7 -45.4,101.1 -101.1,101.1 z m 0,-347.4 c -135.9,0 -246.3,110.5 -246.3,246.3 0,135.7 110.4,246.2 246.3,246.2 135.7,0 246.2,-110.5 246.2,-246.2 0,-135.8 -110.5,-246.3 -246.2,-246.3"
           style="fill:#ffffff;fill-opacity:1;fill-rule:nonzero;stroke:none"
           id="path318"
           inkscape:connector-curvature="0" /></g><g
         style="fill:#ffffff"
         id="g324"
         transform="scale(0.139552,0.139552)"><path
           d="m 16062.5,12741 c -53.8,0 -97.6,-43.8 -97.6,-97.5 0,-53.8 43.8,-97.5 97.6,-97.5 53.8,0 97.6,43.7 97.6,97.5 0,53.7 -43.8,97.5 -97.6,97.5 z m 0,-335 c -130.9,0 -237.5,106.5 -237.5,237.5 0,130.9 106.6,237.5 237.5,237.5 130.9,0 237.5,-106.6 237.5,-237.5 0,-131 -106.6,-237.5 -237.5,-237.5"
           style="fill:#ffffff;fill-opacity:1;fill-rule:nonzero;stroke:none"
           id="path326"
           inkscape:connector-curvature="0" /></g><g
         style="fill:#ffffff"
         id="g328"
         transform="scale(0.166161,0.166161)"><path
           d="m 12091.9,11069.4 c -215.4,0 -390.6,-175.2 -390.6,-390.6 l 0,-2412.86 c 0,-215.39 175.2,-390.64 390.6,-390.64 l 3699.9,0 c 215.4,0 390.7,175.25 390.7,390.64 l 0,2412.86 c 0,215.4 -175.3,390.6 -390.7,390.6 l -3699.9,0 z m 3699.9,-3311.64 -3699.9,0 c -280.2,0 -508.2,227.97 -508.2,508.18 l 0,2412.86 c 0,280.2 228,508.2 508.2,508.2 l 3699.9,0 c 280.2,0 508.2,-228 508.2,-508.2 l 0,-2412.86 c 0,-280.21 -228,-508.18 -508.2,-508.18"
           style="fill:#ffffff;fill-opacity:1;fill-rule:nonzero;stroke:none"
           id="path330"
           inkscape:connector-curvature="0" /></g><g
         style="fill:#ffffff"
         id="g332"
         transform="scale(0.166161,0.166161)"><path
           d="m 16241.2,10300.3 -4598.7,0 c -32.5,0 -58.8,26.4 -58.8,58.8 0,32.5 26.3,58.8 58.8,58.8 l 4598.7,0 c 32.5,0 58.8,-26.3 58.8,-58.8 0,-32.4 -26.3,-58.8 -58.8,-58.8"
           style="fill:#ffffff;fill-opacity:1;fill-rule:nonzero;stroke:none"
           id="path334"
           inkscape:connector-curvature="0" /></g><g
         style="fill:#ffffff"
         id="g336"
         transform="scale(0.140163,0.140163)"><path
           d="m 15248.4,11663.1 c -503,0 -912.3,-409.2 -912.3,-912.2 0,-503.1 409.3,-912.33 912.3,-912.33 503,0 912.3,409.23 912.3,912.33 0,503 -409.3,912.2 -912.3,912.2 z m 0,-1963.86 c -579.9,0 -1051.6,471.76 -1051.6,1051.66 0,579.8 471.7,1051.5 1051.6,1051.5 579.9,0 1051.6,-471.7 1051.6,-1051.5 0,-579.9 -471.7,-1051.66 -1051.6,-1051.66"
           style="fill:#ffffff;fill-opacity:1;fill-rule:nonzero;stroke:none"
           id="path338"
           inkscape:connector-curvature="0" /></g><g
         style="fill:#ffffff"
         id="g340"
         transform="scale(0.135208,0.135208)"><path
           d="m 15807.1,10518.2 c -18.8,0 -37.2,7.4 -51,21.1 l -447.5,447.1 c -28.2,28.2 -28.3,73.9 -0.1,102.1 28.2,28.3 74,28.3 102.1,0 l 367.5,-367 372.6,1020.4 c 13.6,37.4 54.9,56.7 92.6,43.1 37.4,-13.7 56.7,-55.2 43,-92.7 L 15875,10565.7 c -8.4,-23.2 -28.1,-40.5 -52.3,-45.8 -5.1,-1.1 -10.3,-1.7 -15.6,-1.7"
           style="fill:#ffffff;fill-opacity:1;fill-rule:nonzero;stroke:none"
           id="path342"
           inkscape:connector-curvature="0" /></g><g
         style="fill:#ffffff"
         id="g344"
         transform="scale(0.160721,0.160721)"><path
           d="m 16239.3,9796.33 -1624.9,0 c -33.6,0 -60.8,27.19 -60.8,60.78 0,33.54 27.2,60.73 60.8,60.73 l 1624.9,0 c 33.5,0 60.7,-27.19 60.7,-60.73 0,-33.59 -27.2,-60.78 -60.7,-60.78"
           style="fill:#ffffff;fill-opacity:1;fill-rule:nonzero;stroke:none"
           id="path346"
           inkscape:connector-curvature="0" /></g><g
         style="fill:#ffffff"
         id="g348"
         transform="scale(0.160721,0.160721)"><path
           d="m 16239.3,9322.4 -1624.9,0 c -33.6,0 -60.8,27.19 -60.8,60.73 0,33.59 27.2,60.78 60.8,60.78 l 1624.9,0 c 33.5,0 60.7,-27.19 60.7,-60.78 0,-33.54 -27.2,-60.73 -60.7,-60.73"
           style="fill:#ffffff;fill-opacity:1;fill-rule:nonzero;stroke:none"
           id="path350"
           inkscape:connector-curvature="0" /></g><g
         style="fill:#ffffff"
         id="g352"
         transform="scale(0.160721,0.160721)"><path
           d="m 16239.3,8848.48 -1624.9,0 c -33.6,0 -60.8,27.19 -60.8,60.78 0,33.54 27.2,60.73 60.8,60.73 l 1624.9,0 c 33.5,0 60.7,-27.19 60.7,-60.73 0,-33.59 -27.2,-60.78 -60.7,-60.78"
           style="fill:#ffffff;fill-opacity:1;fill-rule:nonzero;stroke:none"
           id="path354"
           inkscape:connector-curvature="0" /></g><g
         style="fill:#ffffff;fill-opacity:0.62745098"
         id="g364"
         transform="scale(0.139795,0.139795)"><path
           d="m 12991.4,16054.6 0,-371.3 -3563.53,0 0,365.7 c 0,138.6 112.38,251 251.02,251 l 3067.11,0 c 135.5,0 245.4,-109.9 245.4,-245.4"
           style="fill:#ffffff;fill-opacity:0.62745098;fill-rule:nonzero;stroke:none"
           id="path366"
           inkscape:connector-curvature="0" /></g><g
         style="fill:#ffffff"
         id="g368"
         transform="scale(0.138476,0.138476)"><path
           d="m 10007.6,16208 c -35.34,0 -64.08,-28.7 -64.08,-64 0,-35.4 28.74,-64.1 64.08,-64.1 35.3,0 64.1,28.7 64.1,64.1 0,35.3 -28.8,64 -64.1,64 z m 0,-220 c -86.03,0 -156.01,69.9 -156.01,156 0,86 69.98,156 156.01,156 86.1,0 156,-70 156,-156 0,-86.1 -69.9,-156 -156,-156"
           style="fill:#ffffff;fill-opacity:1;fill-rule:nonzero;stroke:none"
           id="path370"
           inkscape:connector-curvature="0" /></g><g
         style="fill:#ffffff"
         id="g376"
         transform="scale(0.138476,0.138476)"><path
           d="m 10388.5,16208 c -35.3,0 -64,-28.7 -64,-64 0,-35.4 28.7,-64.1 64,-64.1 35.4,0 64.1,28.7 64.1,64.1 0,35.3 -28.7,64 -64.1,64 z m 0,-220 c -86,0 -156,69.9 -156,156 0,86 70,156 156,156 86.1,0 156.1,-70 156.1,-156 0,-86.1 -70,-156 -156.1,-156"
           style="fill:#ffffff;fill-opacity:1;fill-rule:nonzero;stroke:none"
           id="path378"
           inkscape:connector-curvature="0" /></g><g
         style="fill:#ffffff"
         id="g384"
         transform="scale(0.138476,0.138476)"><path
           d="m 10769.5,16208 c -35.4,0 -64.1,-28.7 -64.1,-64 0,-35.4 28.7,-64.1 64.1,-64.1 35.3,0 64.1,28.7 64.1,64.1 0,35.3 -28.8,64 -64.1,64 z m 0,-220 c -86,0 -156,69.9 -156,156 0,86 70,156 156,156 86,0 156,-70 156,-156 0,-86.1 -70,-156 -156,-156"
           style="fill:#ffffff;fill-opacity:1;fill-rule:nonzero;stroke:none"
           id="path386"
           inkscape:connector-curvature="0" /></g><g
         style="fill:#ffffff"
         id="g388"
         transform="scale(0.140927,0.140927)"><path
           d="m 9507.39,16209.7 c -165.61,0 -300.29,-134.7 -300.29,-300.3 l 0,-1854.8 c 0,-165.5 134.68,-300.2 300.29,-300.2 l 2844.01,0 c 165.6,0 300.2,134.7 300.2,300.2 l 0,1854.8 c 0,165.6 -134.6,300.3 -300.2,300.3 l -2844.01,0 z m 2844.01,-2545.6 -2844.01,0 c -215.43,0 -390.62,175.2 -390.62,390.5 l 0,1854.8 c 0,215.4 175.19,390.6 390.62,390.6 l 2844.01,0 c 215.4,0 390.6,-175.2 390.6,-390.6 l 0,-1854.8 c 0,-215.3 -175.2,-390.5 -390.6,-390.5"
           style="fill:#ffffff;fill-opacity:1;fill-rule:nonzero;stroke:none"
           id="path390"
           inkscape:connector-curvature="0" /></g><g
         style="fill:#ffffff"
         id="g392"
         transform="scale(0.135816,0.135816)"><path
           d="m 13174.7,16206.3 -3667.94,0 c -25.92,0 -46.9,20.9 -46.9,46.8 0,25.9 20.98,46.9 46.9,46.9 l 3667.94,0 c 25.9,0 46.9,-21 46.9,-46.9 0,-25.9 -21,-46.8 -46.9,-46.8"
           style="fill:#ffffff;fill-opacity:1;fill-rule:nonzero;stroke:none"
           id="path394"
           inkscape:connector-curvature="0" /></g><g
         style="fill:#ffffff"
         id="g396"
         transform="scale(0.132745,0.132745)"><path
           d="m 10722.3,16204.1 c -346.3,0 -628,-281.7 -628,-628 0,-346.3 281.7,-627.9 628,-627.9 346.2,0 628,281.6 628,627.9 0,346.3 -281.8,628 -628,628 z m 0,-1351.9 c -399.2,0 -723.94,324.8 -723.94,723.9 0,399.2 324.74,723.9 723.94,723.9 399.1,0 723.9,-324.7 723.9,-723.9 0,-399.1 -324.8,-723.9 -723.9,-723.9"
           style="fill:#ffffff;fill-opacity:1;fill-rule:nonzero;stroke:none"
           id="path398"
           inkscape:connector-curvature="0" /></g><g
         style="fill:#ffffff"
         id="g400"
         transform="scale(0.130385,0.130385)"><path
           d="m 10916.3,15434.3 c -12.8,0 -25.2,5.1 -34.5,14.3 l -302.5,302.2 c -19.1,19.1 -19.2,50 -0.1,69.1 19,19.1 50,19.1 69,0 l 248.5,-248.1 251.9,689.8 c 9.2,25.3 37.1,38.4 62.5,29.1 25.4,-9.2 38.4,-37.3 29.1,-62.6 l -278.1,-761.7 c -5.7,-15.7 -19,-27.3 -35.3,-30.9 -3.4,-0.8 -6.9,-1.2 -10.5,-1.2"
           style="fill:#ffffff;fill-opacity:1;fill-rule:nonzero;stroke:none"
           id="path402"
           inkscape:connector-curvature="0" /></g><g
         style="fill:#ffffff"
         id="g404"
         transform="scale(0.130335,0.130335)"><path
           d="m 13285.2,16202.3 -1306.3,0 c -27,0 -48.9,21.9 -48.9,48.9 0,26.9 21.9,48.8 48.9,48.8 l 1306.3,0 c 27,0 48.8,-21.9 48.8,-48.8 0,-27 -21.8,-48.9 -48.8,-48.9"
           style="fill:#ffffff;fill-opacity:1;fill-rule:nonzero;stroke:none"
           id="path406"
           inkscape:connector-curvature="0" /></g><g
         style="fill:#ffffff"
         id="g408"
         transform="scale(0.127288,0.127288)"><path
           d="m 13603.2,16200 -1337.6,0 c -27.6,0 -50,22.4 -50,50 0,27.6 22.4,50 50,50 l 1337.6,0 c 27.6,0 50,-22.4 50,-50 0,-27.6 -22.4,-50 -50,-50"
           style="fill:#ffffff;fill-opacity:1;fill-rule:nonzero;stroke:none"
           id="path410"
           inkscape:connector-curvature="0" /></g><g
         style="fill:#ffffff"
         id="g412"
         transform="scale(0.124242,0.124242)"><path
           d="m 13936.8,16197.5 -1370.4,0 c -28.3,0 -51.3,23 -51.3,51.3 0,28.3 23,51.2 51.3,51.2 l 1370.4,0 c 28.2,0 51.2,-22.9 51.2,-51.2 0,-28.3 -23,-51.3 -51.2,-51.3"
           style="fill:#ffffff;fill-opacity:1;fill-rule:nonzero;stroke:none"
           id="path414"
           inkscape:connector-curvature="0" /></g><g
         style="fill:#ffffff"
         id="g428"
         transform="matrix(0.165603,0,0,0.165603,-8.24875e-5,0)"><path
           d="m 16155.1,15125.2 c -32.9,0 -59.6,-26.7 -59.6,-59.5 0,-32.8 26.7,-59.5 59.6,-59.5 32.8,0 59.5,26.7 59.5,59.5 0,32.8 -26.7,59.5 -59.5,59.5 z m 0,-204.4 c -80,0 -145,65 -145,144.9 0,79.9 65,144.9 145,144.9 79.9,0 144.9,-65 144.9,-144.9 0,-79.9 -65,-144.9 -144.9,-144.9"
           style="fill:#ffffff;fill-opacity:1;fill-rule:nonzero;stroke:none"
           id="path430"
           inkscape:connector-curvature="0" /></g><g
         style="fill:#ffffff"
         id="g436"
         transform="matrix(0.169198,0,0,0.169198,0.30766635,0.0026866)"><path
           d="m 16158.2,14803.8 c -32.2,0 -58.3,-26.1 -58.3,-58.2 0,-32.1 26.1,-58.3 58.3,-58.3 32,0 58.2,26.2 58.2,58.3 0,32.1 -26.2,58.2 -58.2,58.2 z m 0,-200.1 c -78.3,0 -141.9,63.7 -141.9,141.9 0,78.2 63.6,141.8 141.9,141.8 78.1,0 141.8,-63.6 141.8,-141.8 0,-78.2 -63.7,-141.9 -141.8,-141.9"
           style="fill:#ffffff;fill-opacity:1;fill-rule:nonzero;stroke:none"
           id="path438"
           inkscape:connector-curvature="0" /></g><g
         style="fill:#ffffff"
         id="g444"
         transform="matrix(0.172793,0,0,0.172793,0.61583915,-0.0035243)"><path
           d="m 16161.1,14495.8 c -31.5,0 -57.1,-25.5 -57.1,-57 0,-31.5 25.6,-57 57.1,-57 31.5,0 57.1,25.5 57.1,57 0,31.5 -25.6,57 -57.1,57 z m 0,-195.9 c -76.6,0 -138.9,62.3 -138.9,138.9 0,76.6 62.3,138.9 138.9,138.9 76.6,0 138.9,-62.3 138.9,-138.9 0,-76.6 -62.3,-138.9 -138.9,-138.9"
           style="fill:#ffffff;fill-opacity:1;fill-rule:nonzero;stroke:none"
           id="path446"
           inkscape:connector-curvature="0" /></g><g
         style="fill:#ffffff"
         id="g448"
         transform="scale(0.192066,0.192066)"><path
           d="m 13663.4,13272.4 c -135,0 -244.8,-109.8 -244.8,-244.7 l 0,-1511.9 c 0,-134.9 109.8,-244.7 244.8,-244.7 l 2318.2,0 c 135,0 244.7,109.8 244.7,244.7 l 0,1511.9 c 0,134.9 -109.7,244.7 -244.7,244.7 l -2318.2,0 z m 2318.2,-2075 -2318.2,0 c -175.6,0 -318.4,142.9 -318.4,318.4 l 0,1511.9 c 0,175.5 142.8,318.3 318.4,318.3 l 2318.2,0 c 175.5,0 318.4,-142.8 318.4,-318.3 l 0,-1511.9 c 0,-175.5 -142.9,-318.4 -318.4,-318.4"
           style="fill:#ffffff;fill-opacity:1;fill-rule:nonzero;stroke:none"
           id="path450"
           inkscape:connector-curvature="0" /></g><g
         style="fill:#ffffff"
         id="g452"
         transform="scale(0.192066,0.192066)"><path
           d="m 16263.1,12790.5 -2881.3,0 c -20.3,0 -36.8,16.5 -36.8,36.8 0,20.4 16.5,36.8 36.8,36.8 l 2881.3,0 c 20.4,0 36.9,-16.4 36.9,-36.8 0,-20.3 -16.5,-36.8 -36.9,-36.8"
           style="fill:#ffffff;fill-opacity:1;fill-rule:nonzero;stroke:none"
           id="path454"
           inkscape:connector-curvature="0" /></g><g
         style="fill:#ffffff"
         id="g456"
         transform="scale(0.173236,0.173236)"><path
           d="m 15683.8,13859.7 c -294.8,0 -534.6,-239.8 -534.6,-534.6 0,-294.7 239.8,-534.5 534.6,-534.5 294.7,0 534.5,239.8 534.5,534.5 0,294.8 -239.8,534.6 -534.5,534.6 z m 0,-1150.8 c -339.8,0 -616.2,276.5 -616.2,616.2 0,339.8 276.4,616.3 616.2,616.3 339.8,0 616.2,-276.5 616.2,-616.3 0,-339.7 -276.4,-616.2 -616.2,-616.2"
           style="fill:#ffffff;fill-opacity:1;fill-rule:nonzero;stroke:none"
           id="path458"
           inkscape:connector-curvature="0" /></g><g
         style="fill:#ffffff"
         id="g460"
         transform="scale(0.169648,0.169648)"><path
           d="m 16015.5,13245.3 c -10.9,0 -21.5,4.3 -29.4,12.2 l -258.4,258.1 c -16.3,16.2 -16.3,42.6 0,58.9 16.2,16.3 42.7,16.3 58.9,0 l 212.2,-211.9 215,589 c 7.9,21.7 31.7,32.8 53.4,24.9 21.7,-7.9 32.8,-31.8 24.9,-53.5 l -237.4,-650.3 c -4.9,-13.4 -16.3,-23.3 -30.2,-26.4 -3,-0.7 -6,-1 -9,-1"
           style="fill:#ffffff;fill-opacity:1;fill-rule:nonzero;stroke:none"
           id="path462"
           inkscape:connector-curvature="0" /></g><g
         style="fill:#ffffff"
         id="g464"
         transform="scale(0.188126,0.188126)"><path
           d="m 16262.4,12530.8 -1005.4,0 c -20.8,0 -37.6,16.8 -37.6,37.6 0,20.8 16.8,37.6 37.6,37.6 l 1005.4,0 c 20.8,0 37.6,-16.8 37.6,-37.6 0,-20.8 -16.8,-37.6 -37.6,-37.6"
           style="fill:#ffffff;fill-opacity:1;fill-rule:nonzero;stroke:none"
           id="path466"
           inkscape:connector-curvature="0" /></g><g
         style="fill:#ffffff"
         id="g468"
         transform="scale(0.188126,0.188126)"><path
           d="m 16262.4,12237.6 -1005.4,0 c -20.8,0 -37.6,16.8 -37.6,37.5 0,20.8 16.8,37.6 37.6,37.6 l 1005.4,0 c 20.8,0 37.6,-16.8 37.6,-37.6 0,-20.7 -16.8,-37.5 -37.6,-37.5"
           style="fill:#ffffff;fill-opacity:1;fill-rule:nonzero;stroke:none"
           id="path470"
           inkscape:connector-curvature="0" /></g><g
         style="fill:#ffffff"
         id="g472"
         transform="scale(0.188126,0.188126)"><path
           d="m 16262.4,11944.3 -1005.4,0 c -20.8,0 -37.6,16.9 -37.6,37.6 0,20.8 16.8,37.6 37.6,37.6 l 1005.4,0 c 20.8,0 37.6,-16.8 37.6,-37.6 0,-20.7 -16.8,-37.6 -37.6,-37.6"
           style="fill:#ffffff;fill-opacity:1;fill-rule:nonzero;stroke:none"
           id="path474"
           inkscape:connector-curvature="0" /></g><g
         style="fill:#ffffff"
         id="g476"
         transform="scale(0.114393,0.114393)"><path
           d="m 14186.7,15240.3 c -27.9,0 -54.9,15 -69.2,41.2 -109.1,200.8 -196.1,411.3 -258.7,625.6 -12.2,41.7 11.7,85.4 53.5,97.6 41.7,12.2 85.3,-11.8 97.5,-53.5 59.5,-203.6 142.2,-403.6 246,-594.6 20.7,-38.2 6.6,-85.9 -31.6,-106.7 -11.9,-6.4 -24.8,-9.6 -37.5,-9.6 z m 846.9,-1004.8 c -17.1,0 -34.3,5.5 -48.7,17 -176.3,139.1 -339.7,297.5 -485.7,470.6 -28.1,33.2 -23.8,82.8 9.4,110.8 33.3,28.1 82.9,23.8 110.9,-9.3 139.2,-165.1 294.8,-316.1 462.9,-448.6 34,-26.9 39.9,-76.4 13,-110.5 -15.5,-19.6 -38.6,-30 -61.8,-30 z m 1180,-573.9 c -5.7,0 -11.7,0.7 -17.6,2.1 -217.9,50 -432.7,126.5 -638.7,227.5 -39,19.1 -55.2,66.3 -36,105.3 19.1,38.9 66.2,55.1 105.2,36 195.2,-95.7 398.7,-168.1 604.7,-215.5 42.4,-9.7 68.8,-51.9 59.1,-94.3 -8.4,-36.4 -40.8,-61.1 -76.7,-61.1"
           style="fill:#ffffff;fill-opacity:1;fill-rule:nonzero;stroke:none"
           id="path478"
           inkscape:connector-curvature="0" /></g><g
         style="fill:#ffffff"
         id="g480"
         transform="scale(0.17004,0.17004)"><path
           d="m 13153.4,16184.3 c -27.7,0 -51.1,21.6 -52.8,49.7 -1.7,29.2 20.5,54.3 49.7,56 109.3,6.6 220.6,10 330.5,10 39.4,0 79.3,-0.4 118.7,-1.3 29.2,-0.6 52.4,-24.8 51.8,-54 -0.6,-29.3 -24.9,-52.6 -54.1,-51.8 -38.6,0.8 -77.8,1.2 -116.4,1.2 -107.8,0 -216.9,-3.3 -324.1,-9.7 -1.1,-0.1 -2.2,-0.1 -3.3,-0.1 z m 1329.3,-84.5 c -3.3,0 -6.7,0.3 -10.1,0.9 -141.9,27.4 -288.4,49.1 -435.7,64.5 -29,3.1 -50.1,29.1 -47.1,58.2 3.1,29.1 29.1,50.1 58.2,47.1 150.3,-15.7 299.9,-37.9 444.7,-65.9 28.7,-5.5 47.4,-33.3 41.9,-62 -4.9,-25.3 -27.1,-42.8 -51.9,-42.8 z m -2209.1,-43.7 c -23.9,0 -45.7,16.4 -51.4,40.8 -6.7,28.5 10.9,57 39.4,63.7 144.3,33.9 292.9,62.1 441.7,83.7 28.9,4.1 55.7,-15.9 59.9,-44.8 4.2,-29 -15.8,-55.8 -44.8,-60 -145.7,-21.2 -291.3,-48.7 -432.6,-82 -4,-0.9 -8.2,-1.4 -12.2,-1.4 z m 3060.3,-211 c -6.9,0 -14,1.4 -20.8,4.3 -128.4,54.9 -267.4,104.6 -413.1,147.6 -28,8.3 -44,37.8 -35.7,65.8 8.3,28 37.7,44.1 65.7,35.8 149.6,-44.2 292.5,-95.3 424.7,-151.9 26.9,-11.5 39.4,-42.6 27.9,-69.5 -8.6,-20 -28.1,-32.1 -48.7,-32.1 z m -3903,-71.1 c -20.3,0 -39.6,11.8 -48.4,31.5 -11.8,26.7 0.2,58 26.9,69.8 135.5,60.2 276.6,114.9 419.5,162.6 27.7,9.3 57.7,-5.7 67,-33.4 9.2,-27.8 -5.8,-57.8 -33.5,-67 -139.6,-46.6 -277.6,-100.1 -410,-158.9 -7,-3.1 -14.3,-4.6 -21.5,-4.6 z m 4617.6,-392.2 c -14.1,0 -28.1,5.6 -38.6,16.7 -81.6,86.9 -185.9,170.9 -309.9,249.7 -24.7,15.7 -32,48.4 -16.3,73.1 15.7,24.7 48.4,32 73.1,16.3 131.5,-83.6 242.6,-173.3 330.3,-266.6 20,-21.3 18.9,-54.8 -2.4,-74.8 -10.2,-9.6 -23.2,-14.4 -36.2,-14.4 z m -5389.2,-48 c -16.4,0 -32.7,7.7 -43,22.1 -17.1,23.8 -11.6,56.8 12.2,73.8 121.1,86.7 248.7,168.4 379.1,242.7 25.5,14.5 57.7,5.7 72.3,-19.7 14.4,-25.4 5.6,-57.8 -19.9,-72.2 -127.2,-72.6 -251.7,-152.3 -369.9,-236.8 -9.3,-6.7 -20.1,-9.9 -30.8,-9.9 z m -664.41,-589.5 c -12.76,0 -25.53,4.6 -35.7,13.9 -21.58,19.7 -23.05,53.2 -3.29,74.8 101.3,110.7 209.1,217 320.6,315.9 21.9,19.4 55.4,17.4 74.8,-4.4 19.4,-21.9 17.4,-55.4 -4.5,-74.8 -108.7,-96.5 -214,-200.2 -312.8,-308.2 -10.5,-11.4 -24.8,-17.2 -39.11,-17.2 z m -531.17,-712 c -9.35,0 -18.82,2.5 -27.41,7.7 -24.99,15.1 -32.99,47.7 -17.82,72.7 78.1,129.1 162.55,254.7 250.83,373.3 17.46,23.4 50.63,28.2 74.1,10.8 23.46,-17.5 28.28,-50.6 10.82,-74.1 -86.34,-115.9 -168.79,-238.6 -245.24,-364.8 -9.94,-16.5 -27.4,-25.6 -45.28,-25.6"
           style="fill:#ffffff;fill-opacity:1;fill-rule:nonzero;stroke:none"
           id="path482"
           inkscape:connector-curvature="0" /></g><g
         style="fill:#ffffff"
         id="g484"
         transform="scale(0.191428,0.191428)"><path
           d="m 15637.2,10486.4 c -13.4,0 -26.8,5.8 -36.1,16.9 l -30.1,36.2 c -71.6,85.8 -145.5,174.5 -221.7,269.7 -16.2,20.3 -13,49.8 7.3,66.1 20.3,16.2 49.9,12.9 66.1,-7.4 75.6,-94.4 149.2,-182.8 220.5,-268.2 l 30.1,-36.2 c 16.7,-19.9 13.9,-49.6 -6,-66.2 -8.8,-7.3 -19.5,-10.9 -30.1,-10.9 z m 462,-639.39 c -17,0 -33.4,9.25 -41.8,25.39 -52.2,100.67 -118.9,203.9 -210,324.8 -15.6,20.8 -11.5,50.3 9.3,65.9 20.7,15.6 50.2,11.4 65.8,-9.3 94.3,-125.3 163.7,-232.7 218.4,-338.14 11.9,-23.04 3,-51.41 -20.1,-63.37 -6.9,-3.6 -14.3,-5.28 -21.6,-5.28 z m 146.6,-764.41 c -1.5,0 -3.1,0.05 -4.6,0.21 -25.8,2.51 -44.8,25.44 -42.3,51.3 4.7,48.63 7.1,96.74 7.1,143.08 0,81.18 -7.3,160.9 -21.8,237.06 -4.9,25.49 11.8,50.1 37.4,54.96 25.5,4.85 50.1,-11.91 54.9,-37.41 15.6,-81.91 23.5,-167.58 23.5,-254.61 0,-49.32 -2.5,-100.51 -7.5,-152.12 -2.3,-24.29 -22.8,-42.47 -46.7,-42.47 z m -233.5,-748.74 c -8.3,0 -16.7,2.19 -24.4,6.84 -22.2,13.48 -29.2,42.42 -15.8,64.57 57.1,94.03 102.1,192.97 133.9,293.95 5.9,18.96 11.7,37.92 17.1,56.52 7.2,24.92 33.3,39.23 58.3,31.97 24.9,-7.26 39.2,-33.33 31.9,-58.3 -5.5,-19.17 -11.5,-38.81 -17.6,-58.35 -34,-108.24 -82.2,-214.08 -143.2,-314.58 -8.8,-14.58 -24.4,-22.62 -40.2,-22.62 z m -553.3,-555.2 c -15.5,0 -30.6,7.57 -39.5,21.42 -14.1,21.83 -7.9,50.93 13.9,65.03 110.5,71.68 211.6,152.6 300.5,240.62 18.4,18.23 48.2,18.13 66.5,-0.37 18.2,-18.44 18.1,-48.21 -0.4,-66.45 -93.4,-92.56 -199.5,-177.56 -315.5,-252.68 -7.9,-5.12 -16.8,-7.57 -25.5,-7.57 z m -727,-300.58 c -21.7,0 -41.2,15.15 -45.9,37.19 -5.5,25.39 10.7,50.41 36.1,55.84 125,26.8 249.2,65.46 369,114.88 24,9.92 51.4,-1.47 61.4,-25.5 9.9,-23.97 -1.5,-51.5 -25.6,-61.38 -124.9,-51.61 -254.5,-91.99 -385.1,-119.94 -3.3,-0.73 -6.6,-1.09 -9.9,-1.09"
           style="fill:#ffffff;fill-opacity:1;fill-rule:nonzero;stroke:none"
           id="path486"
           inkscape:connector-curvature="0" /></g><g
         style="fill:#ffffff"
         id="g488"
         transform="scale(0.149319,0.149319)"><path
           d="m 15776,7791.11 c -26.1,0 -50.1,17 -57.8,43.26 -77.1,260.78 -97.4,450.51 -97.4,514.4 0,33.28 27,60.27 60.3,60.27 33.2,0 60.2,-26.99 60.2,-60.27 0,-64.7 25.1,-252.28 92.5,-480.25 9.4,-31.94 -8.8,-65.49 -40.8,-74.87 -5.7,-1.74 -11.4,-2.54 -17,-2.54 z m 456.3,-898.35 c -17.6,0 -34.9,7.63 -46.8,22.23 -104.4,128.39 -198.3,275.72 -279.2,437.79 -14.8,29.8 -2.6,66.03 27.2,80.83 29.7,14.87 65.9,2.75 80.7,-27.05 76.9,-154.17 166,-294 264.8,-415.49 21,-25.78 17.1,-63.75 -8.7,-84.78 -11.2,-9.04 -24.7,-13.53 -38,-13.53"
           style="fill:#ffffff;fill-opacity:1;fill-rule:nonzero;stroke:none"
           id="path490"
           inkscape:connector-curvature="0" /></g></g></g></svg>